{
.appVersion = "3108";
.formatVersion = 3;
DisplayStrings = (
q,
r,
B
);
axes = (
{
name = Weight;
tag = wght;
}
);
date = "2022-03-16 16:34:00 +0000";
familyName = Raindrops;
fontMaster = (
{
axesValues = (
2
);
id = m01;
metricValues = (
{
over = 16;
pos = 800;
},
{
over = 16;
pos = 700;
},
{
over = 16;
pos = 500;
},
{
over = -16;
},
{
over = -16;
pos = -200;
},
{
over = -16;
}
);
name = Regular;
},
{
axesValues = (
100
);
iconName = SemiBold;
id = "D0DEFB70-7D0D-4B44-B499-5072819829F5";
metricValues = (
{
pos = 800;
},
{
pos = 700;
},
{
pos = 500;
},
{
},
{
pos = -200;
},
{
}
);
name = Wider;
},
{
axesValues = (
200
);
iconName = SemiBold_Extended;
id = "8A987DE3-647B-4085-B6E8-CB46751612E3";
metricValues = (
{
pos = 800;
},
{
pos = 700;
},
{
pos = 500;
},
{
},
{
pos = -200;
},
{
}
);
name = Regular;
}
);
glyphs = (
{
glyphname = A;
lastChange = "2022-04-19 19:11:18 +0000";
layers = (
{
layerId = m01;
shapes = (
{
attr = {
strokeWidth = 2;
};
closed = 0;
nodes = (
(51,27,l),
(51,0,l)
);
},
{
attr = {
strokeWidth = 2;
};
closed = 0;
nodes = (
(717,27,l),
(717,0,l)
);
},
{
attr = {
strokeWidth = 2;
};
closed = 0;
nodes = (
(80,90,l),
(80,0,l)
);
},
{
attr = {
strokeWidth = 2;
};
closed = 0;
nodes = (
(687,90,l),
(687,0,l)
);
},
{
attr = {
strokeWidth = 2;
};
closed = 0;
nodes = (
(110,174,l),
(110,0,l)
);
},
{
attr = {
strokeWidth = 2;
};
closed = 0;
nodes = (
(658,174,l),
(658,0,l)
);
},
{
attr = {
strokeWidth = 2;
};
closed = 0;
nodes = (
(139,0,l),
(139,252,l)
);
},
{
attr = {
strokeWidth = 2;
};
closed = 0;
nodes = (
(629,0,l),
(629,252,l)
);
},
{
attr = {
strokeWidth = 2;
};
closed = 0;
nodes = (
(168,335,l),
(168,0,l)
);
},
{
attr = {
strokeWidth = 2;
};
closed = 0;
nodes = (
(601,335,l),
(601,0,l)
);
},
{
attr = {
strokeWidth = 2;
};
closed = 0;
nodes = (
(195,0,l),
(195,422,l)
);
},
{
attr = {
strokeWidth = 2;
};
closed = 0;
nodes = (
(572,0,l),
(572,422,l)
);
},
{
attr = {
strokeWidth = 2;
};
closed = 0;
nodes = (
(225,505,l),
(225,5,l)
);
},
{
attr = {
strokeWidth = 2;
};
closed = 0;
nodes = (
(543,505,l),
(543,5,l)
);
},
{
attr = {
strokeWidth = 2;
};
closed = 0;
nodes = (
(254,589,l),
(254,90,l)
);
},
{
attr = {
strokeWidth = 2;
};
closed = 0;
nodes = (
(513,589,l),
(513,90,l)
);
},
{
attr = {
strokeWidth = 2;
};
closed = 0;
nodes = (
(283,157,l),
(283,669,l)
);
},
{
attr = {
strokeWidth = 2;
};
closed = 0;
nodes = (
(484,157,l),
(484,669,l)
);
},
{
attr = {
strokeWidth = 2;
};
closed = 0;
nodes = (
(313,700,l),
(313,157,l)
);
},
{
attr = {
strokeWidth = 2;
};
closed = 0;
nodes = (
(457,700,l),
(457,157,l)
);
},
{
attr = {
strokeWidth = 2;
};
closed = 0;
nodes = (
(340,700,l),
(340,412,l)
);
},
{
attr = {
strokeWidth = 2;
};
closed = 0;
nodes = (
(428,700,l),
(428,412,l)
);
},
{
attr = {
strokeWidth = 2;
};
closed = 0;
nodes = (
(340,299,l),
(340,157,l)
);
},
{
attr = {
strokeWidth = 2;
};
closed = 0;
nodes = (
(369,299,l),
(369,157,l)
);
},
{
attr = {
strokeWidth = 2;
};
closed = 0;
nodes = (
(398,299,l),
(398,157,l)
);
},
{
attr = {
strokeWidth = 2;
};
closed = 0;
nodes = (
(428,299,l),
(428,157,l)
);
},
{
attr = {
strokeWidth = 2;
};
closed = 0;
nodes = (
(369,468,l),
(369,700,l)
);
},
{
attr = {
strokeWidth = 2;
};
closed = 0;
nodes = (
(398,700,l),
(398,468,l)
);
}
);
width = 768;
},
{
layerId = "D0DEFB70-7D0D-4B44-B499-5072819829F5";
shapes = (
{
attr = {
strokeWidth = 2;
};
closed = 0;
nodes = (
(51,27,l),
(51,0,l)
);
},
{
attr = {
strokeWidth = 2;
};
closed = 0;
nodes = (
(1003,27,l),
(1003,0,l)
);
},
{
attr = {
strokeWidth = 2;
};
closed = 0;
nodes = (
(93,90,l),
(93,0,l)
);
},
{
attr = {
strokeWidth = 2;
};
closed = 0;
nodes = (
(960,90,l),
(960,0,l)
);
},
{
attr = {
strokeWidth = 2;
};
closed = 0;
nodes = (
(136,174,l),
(136,0,l)
);
},
{
attr = {
strokeWidth = 2;
};
closed = 0;
nodes = (
(918,174,l),
(918,0,l)
);
},
{
attr = {
strokeWidth = 2;
};
closed = 0;
nodes = (
(177,0,l),
(177,252,l)
);
},
{
attr = {
strokeWidth = 2;
};
closed = 0;
nodes = (
(877,0,l),
(877,252,l)
);
},
{
attr = {
strokeWidth = 2;
};
closed = 0;
nodes = (
(218,335,l),
(218,0,l)
);
},
{
attr = {
strokeWidth = 2;
};
closed = 0;
nodes = (
(837,335,l),
(837,0,l)
);
},
{
attr = {
strokeWidth = 2;
};
closed = 0;
nodes = (
(257,0,l),
(257,422,l)
);
},
{
attr = {
strokeWidth = 2;
};
closed = 0;
nodes = (
(796,0,l),
(796,422,l)
);
},
{
attr = {
strokeWidth = 2;
};
closed = 0;
nodes = (
(300,505,l),
(300,5,l)
);
},
{
attr = {
strokeWidth = 2;
};
closed = 0;
nodes = (
(754,505,l),
(754,5,l)
);
},
{
attr = {
strokeWidth = 2;
};
closed = 0;
nodes = (
(341,589,l),
(341,90,l)
);
},
{
attr = {
strokeWidth = 2;
};
closed = 0;
nodes = (
(711,589,l),
(711,90,l)
);
},
{
attr = {
strokeWidth = 2;
};
closed = 0;
nodes = (
(383,157,l),
(383,669,l)
);
},
{
attr = {
strokeWidth = 2;
};
closed = 0;
nodes = (
(670,157,l),
(670,669,l)
);
},
{
attr = {
strokeWidth = 2;
};
closed = 0;
nodes = (
(426,700,l),
(426,157,l)
);
},
{
attr = {
strokeWidth = 2;
};
closed = 0;
nodes = (
(631,700,l),
(631,157,l)
);
},
{
attr = {
strokeWidth = 2;
};
closed = 0;
nodes = (
(464,700,l),
(464,412,l)
);
},
{
attr = {
strokeWidth = 2;
};
closed = 0;
nodes = (
(590,700,l),
(590,412,l)
);
},
{
attr = {
strokeWidth = 2;
};
closed = 0;
nodes = (
(464,299,l),
(464,157,l)
);
},
{
attr = {
strokeWidth = 2;
};
closed = 0;
nodes = (
(506,299,l),
(506,157,l)
);
},
{
attr = {
strokeWidth = 2;
};
closed = 0;
nodes = (
(547,299,l),
(547,157,l)
);
},
{
attr = {
strokeWidth = 2;
};
closed = 0;
nodes = (
(590,299,l),
(590,157,l)
);
},
{
attr = {
strokeWidth = 2;
};
closed = 0;
nodes = (
(506,468,l),
(506,700,l)
);
},
{
attr = {
strokeWidth = 2;
};
closed = 0;
nodes = (
(547,700,l),
(547,468,l)
);
}
);
width = 1054;
},
{
layerId = "8A987DE3-647B-4085-B6E8-CB46751612E3";
width = 600;
}
);
unicode = 65;
},
{
glyphname = B;
lastChange = "2022-04-19 19:12:30 +0000";
layers = (
{
layerId = m01;
shapes = (
{
attr = {
strokeWidth = 2;
};
closed = 0;
nodes = (
(51,700,l),
(51,0,l)
);
},
{
attr = {
strokeWidth = 2;
};
closed = 0;
nodes = (
(78,700,l),
(78,0,l)
);
},
{
attr = {
strokeWidth = 2;
};
closed = 0;
nodes = (
(104,700,l),
(104,0,l)
);
},
{
attr = {
strokeWidth = 2;
};
closed = 0;
nodes = (
(135,700,l),
(135,0,l)
);
},
{
attr = {
strokeWidth = 2;
};
closed = 0;
nodes = (
(161,700,l),
(161,0,l)
);
},
{
attr = {
strokeWidth = 2;
};
closed = 0;
nodes = (
(188,700,l),
(188,0,l)
);
},
{
attr = {
strokeWidth = 2;
};
closed = 0;
nodes = (
(215,700,l),
(215,0,l)
);
},
{
attr = {
strokeWidth = 2;
};
closed = 0;
nodes = (
(244,700,l),
(244,553,l)
);
},
{
attr = {
strokeWidth = 2;
};
closed = 0;
nodes = (
(272,700,l),
(272,553,l)
);
},
{
attr = {
strokeWidth = 2;
};
closed = 0;
nodes = (
(298,700,l),
(298,553,l)
);
},
{
attr = {
strokeWidth = 2;
};
closed = 0;
nodes = (
(328,700,l),
(328,543,l)
);
},
{
attr = {
strokeWidth = 2;
};
closed = 0;
nodes = (
(244,149,l),
(244,0,l)
);
},
{
attr = {
strokeWidth = 2;
};
closed = 0;
nodes = (
(272,0,l),
(272,149,l)
);
},
{
attr = {
strokeWidth = 2;
};
closed = 0;
nodes = (
(298,149,l),
(298,0,l)
);
},
{
attr = {
strokeWidth = 2;
};
closed = 0;
nodes = (
(328,0,l),
(328,154,l)
);
},
{
attr = {
strokeWidth = 2;
};
closed = 0;
nodes = (
(354,171,l),
(354,2,l)
);
},
{
attr = {
strokeWidth = 2;
};
closed = 0;
nodes = (
(244,428,l),
(244,289,l)
);
},
{
attr = {
strokeWidth = 2;
};
closed = 0;
nodes = (
(272,289,l),
(272,428,l)
);
},
{
attr = {
strokeWidth = 2;
};
closed = 0;
nodes = (
(298,428,l),
(298,289,l)
);
},
{
attr = {
strokeWidth = 2;
};
closed = 0;
nodes = (
(328,438,l),
(328,286,l)
);
},
{
attr = {
strokeWidth = 2;
};
closed = 0;
nodes = (
(354,697,l),
(354,272,l)
);
},
{
attr = {
strokeWidth = 2;
};
closed = 0;
nodes = (
(381,693,l),
(381,7,l)
);
},
{
attr = {
strokeWidth = 2;
};
closed = 0;
nodes = (
(411,685,l),
(411,15,l)
);
},
{
attr = {
strokeWidth = 2;
};
closed = 0;
nodes = (
(438,27,l),
(438,673,l)
);
},
{
attr = {
strokeWidth = 2;
};
closed = 0;
nodes = (
(465,654,l),
(465,377,l)
);
},
{
attr = {
strokeWidth = 2;
};
closed = 0;
nodes = (
(465,363,l),
(465,41,l)
);
},
{
attr = {
strokeWidth = 2;
};
closed = 0;
nodes = (
(494,626,l),
(494,404,l)
);
},
{
attr = {
strokeWidth = 2;
};
closed = 0;
nodes = (
(520,462,l),
(520,568,l)
);
},
{
attr = {
strokeWidth = 2;
};
closed = 0;
nodes = (
(494,345,l),
(494,63,l)
);
},
{
attr = {
strokeWidth = 2;
};
closed = 0;
nodes = (
(520,98,l),
(520,315,l)
);
},
{
attr = {
strokeWidth = 2;
};
closed = 0;
nodes = (
(548,235,l),
(548,183,l)
);
}
);
width = 599;
},
{
layerId = "D0DEFB70-7D0D-4B44-B499-5072819829F5";
shapes = (
{
attr = {
strokeWidth = 2;
};
closed = 0;
nodes = (
(47,700,l),
(47,0,l)
);
},
{
attr = {
strokeWidth = 2;
};
closed = 0;
nodes = (
(85,700,l),
(85,0,l)
);
},
{
attr = {
strokeWidth = 2;
};
closed = 0;
nodes = (
(122,700,l),
(122,0,l)
);
},
{
attr = {
strokeWidth = 2;
};
closed = 0;
nodes = (
(167,700,l),
(167,0,l)
);
},
{
attr = {
strokeWidth = 2;
};
closed = 0;
nodes = (
(204,700,l),
(204,0,l)
);
},
{
attr = {
strokeWidth = 2;
};
closed = 0;
nodes = (
(242,700,l),
(242,0,l)
);
},
{
attr = {
strokeWidth = 2;
};
closed = 0;
nodes = (
(281,700,l),
(281,0,l)
);
},
{
attr = {
strokeWidth = 2;
};
closed = 0;
nodes = (
(322,700,l),
(322,553,l)
);
},
{
attr = {
strokeWidth = 2;
};
closed = 0;
nodes = (
(362,700,l),
(362,553,l)
);
},
{
attr = {
strokeWidth = 2;
};
closed = 0;
nodes = (
(399,700,l),
(399,553,l)
);
},
{
attr = {
strokeWidth = 2;
};
closed = 0;
nodes = (
(442,700,l),
(442,543,l)
);
},
{
attr = {
strokeWidth = 2;
};
closed = 0;
nodes = (
(322,149,l),
(322,0,l)
);
},
{
attr = {
strokeWidth = 2;
};
closed = 0;
nodes = (
(362,0,l),
(362,149,l)
);
},
{
attr = {
strokeWidth = 2;
};
closed = 0;
nodes = (
(399,149,l),
(399,0,l)
);
},
{
attr = {
strokeWidth = 2;
};
closed = 0;
nodes = (
(442,0,l),
(442,154,l)
);
},
{
attr = {
strokeWidth = 2;
};
closed = 0;
nodes = (
(479,171,l),
(479,2,l)
);
},
{
attr = {
strokeWidth = 2;
};
closed = 0;
nodes = (
(322,428,l),
(322,289,l)
);
},
{
attr = {
strokeWidth = 2;
};
closed = 0;
nodes = (
(362,289,l),
(362,428,l)
);
},
{
attr = {
strokeWidth = 2;
};
closed = 0;
nodes = (
(399,428,l),
(399,289,l)
);
},
{
attr = {
strokeWidth = 2;
};
closed = 0;
nodes = (
(442,438,l),
(442,286,l)
);
},
{
attr = {
strokeWidth = 2;
};
closed = 0;
nodes = (
(479,697,l),
(479,272,l)
);
},
{
attr = {
strokeWidth = 2;
};
closed = 0;
nodes = (
(518,693,l),
(518,7,l)
);
},
{
attr = {
strokeWidth = 2;
};
closed = 0;
nodes = (
(561,685,l),
(561,15,l)
);
},
{
attr = {
strokeWidth = 2;
};
closed = 0;
nodes = (
(599,27,l),
(599,673,l)
);
},
{
attr = {
strokeWidth = 2;
};
closed = 0;
nodes = (
(638,654,l),
(638,377,l)
);
},
{
attr = {
strokeWidth = 2;
};
closed = 0;
nodes = (
(638,363,l),
(638,41,l)
);
},
{
attr = {
strokeWidth = 2;
};
closed = 0;
nodes = (
(679,626,l),
(679,404,l)
);
},
{
attr = {
strokeWidth = 2;
};
closed = 0;
nodes = (
(717,462,l),
(717,568,l)
);
},
{
attr = {
strokeWidth = 2;
};
closed = 0;
nodes = (
(679,345,l),
(679,63,l)
);
},
{
attr = {
strokeWidth = 2;
};
closed = 0;
nodes = (
(717,98,l),
(717,315,l)
);
},
{
attr = {
strokeWidth = 2;
};
closed = 0;
nodes = (
(757,235,l),
(757,183,l)
);
}
);
width = 804;
},
{
layerId = "8A987DE3-647B-4085-B6E8-CB46751612E3";
shapes = (
{
attr = {
strokeWidth = 2;
};
closed = 0;
nodes = (
(41,700,l),
(41,0,l)
);
},
{
attr = {
strokeWidth = 2;
};
closed = 0;
nodes = (
(117,700,l),
(117,0,l)
);
},
{
attr = {
strokeWidth = 2;
};
closed = 0;
nodes = (
(191,700,l),
(191,0,l)
);
},
{
attr = {
strokeWidth = 2;
};
closed = 0;
nodes = (
(281,700,l),
(281,0,l)
);
},
{
attr = {
strokeWidth = 2;
};
closed = 0;
nodes = (
(355,700,l),
(355,0,l)
);
},
{
attr = {
strokeWidth = 2;
};
closed = 0;
nodes = (
(431,700,l),
(431,0,l)
);
},
{
attr = {
strokeWidth = 2;
};
closed = 0;
nodes = (
(509,700,l),
(509,0,l)
);
},
{
attr = {
strokeWidth = 2;
};
closed = 0;
nodes = (
(591,700,l),
(591,553,l)
);
},
{
attr = {
strokeWidth = 2;
};
closed = 0;
nodes = (
(671,700,l),
(671,553,l)
);
},
{
attr = {
strokeWidth = 2;
};
closed = 0;
nodes = (
(745,700,l),
(745,553,l)
);
},
{
attr = {
strokeWidth = 2;
};
closed = 0;
nodes = (
(831,700,l),
(831,543,l)
);
},
{
attr = {
strokeWidth = 2;
};
closed = 0;
nodes = (
(591,149,l),
(591,0,l)
);
},
{
attr = {
strokeWidth = 2;
};
closed = 0;
nodes = (
(671,0,l),
(671,149,l)
);
},
{
attr = {
strokeWidth = 2;
};
closed = 0;
nodes = (
(745,149,l),
(745,0,l)
);
},
{
attr = {
strokeWidth = 2;
};
closed = 0;
nodes = (
(831,0,l),
(831,154,l)
);
},
{
attr = {
strokeWidth = 2;
};
closed = 0;
nodes = (
(905,171,l),
(905,2,l)
);
},
{
attr = {
strokeWidth = 2;
};
closed = 0;
nodes = (
(591,428,l),
(591,289,l)
);
},
{
attr = {
strokeWidth = 2;
};
closed = 0;
nodes = (
(671,289,l),
(671,428,l)
);
},
{
attr = {
strokeWidth = 2;
};
closed = 0;
nodes = (
(745,428,l),
(745,289,l)
);
},
{
attr = {
strokeWidth = 2;
};
closed = 0;
nodes = (
(831,438,l),
(831,286,l)
);
},
{
attr = {
strokeWidth = 2;
};
closed = 0;
nodes = (
(905,697,l),
(905,272,l)
);
},
{
attr = {
strokeWidth = 2;
};
closed = 0;
nodes = (
(983,693,l),
(983,7,l)
);
},
{
attr = {
strokeWidth = 2;
};
closed = 0;
nodes = (
(1069,685,l),
(1069,15,l)
);
},
{
attr = {
strokeWidth = 2;
};
closed = 0;
nodes = (
(1145,27,l),
(1145,673,l)
);
},
{
attr = {
strokeWidth = 2;
};
closed = 0;
nodes = (
(1223,654,l),
(1223,377,l)
);
},
{
attr = {
strokeWidth = 2;
};
closed = 0;
nodes = (
(1223,363,l),
(1223,41,l)
);
},
{
attr = {
strokeWidth = 2;
};
closed = 0;
nodes = (
(1305,626,l),
(1305,404,l)
);
},
{
attr = {
strokeWidth = 2;
};
closed = 0;
nodes = (
(1381,462,l),
(1381,568,l)
);
},
{
attr = {
strokeWidth = 2;
};
closed = 0;
nodes = (
(1305,345,l),
(1305,63,l)
);
},
{
attr = {
strokeWidth = 2;
};
closed = 0;
nodes = (
(1381,98,l),
(1381,315,l)
);
},
{
attr = {
strokeWidth = 2;
};
closed = 0;
nodes = (
(1461,235,l),
(1461,183,l)
);
}
);
width = 1502;
}
);
unicode = 66;
},
{
glyphname = C;
lastChange = "2022-04-19 19:11:18 +0000";
layers = (
{
layerId = m01;
shapes = (
{
attr = {
strokeWidth = 2;
};
closed = 0;
nodes = (
(51,394,l),
(51,305,l)
);
},
{
attr = {
strokeWidth = 2;
};
closed = 0;
nodes = (
(79,500,l),
(79,197,l)
);
},
{
attr = {
strokeWidth = 2;
};
closed = 0;
nodes = (
(108,142,l),
(108,554,l)
);
},
{
attr = {
strokeWidth = 2;
};
closed = 0;
nodes = (
(136,592,l),
(136,106,l)
);
},
{
attr = {
strokeWidth = 2;
};
closed = 0;
nodes = (
(167,75,l),
(166,620,l)
);
},
{
attr = {
strokeWidth = 2;
};
closed = 0;
nodes = (
(194,643,l),
(194,54,l)
);
},
{
attr = {
strokeWidth = 2;
};
closed = 0;
nodes = (
(222,35,l),
(222,661,l)
);
},
{
attr = {
strokeWidth = 2;
};
closed = 0;
nodes = (
(251,677,l),
(251,452,l)
);
},
{
attr = {
strokeWidth = 2;
};
closed = 0;
nodes = (
(281,493,l),
(281,688,l)
);
},
{
attr = {
strokeWidth = 2;
};
closed = 0;
nodes = (
(310,697,l),
(310,518,l)
);
},
{
attr = {
strokeWidth = 2;
};
closed = 0;
nodes = (
(338,535,l),
(338,703,l)
);
},
{
attr = {
strokeWidth = 2;
};
closed = 0;
nodes = (
(366,707,l),
(366,544,l)
);
},
{
attr = {
strokeWidth = 2;
};
closed = 0;
nodes = (
(397,550,l),
(397,710,l)
);
},
{
attr = {
strokeWidth = 2;
};
closed = 0;
nodes = (
(424,710,l),
(424,552,l)
);
},
{
attr = {
strokeWidth = 2;
};
closed = 0;
nodes = (
(453,550,l),
(453,710,l)
);
},
{
attr = {
strokeWidth = 2;
};
closed = 0;
nodes = (
(482,706,l),
(482,544,l)
);
},
{
attr = {
strokeWidth = 2;
};
closed = 0;
nodes = (
(511,536,l),
(511,701,l)
);
},
{
attr = {
strokeWidth = 2;
};
closed = 0;
nodes = (
(540,692,l),
(540,523,l)
);
},
{
attr = {
strokeWidth = 2;
};
closed = 0;
nodes = (
(568,508,l),
(568,682,l)
);
},
{
attr = {
strokeWidth = 2;
};
closed = 0;
nodes = (
(598,668,l),
(598,572,l)
);
},
{
attr = {
strokeWidth = 2;
};
closed = 0;
nodes = (
(627,657,l),
(627,633,l)
);
},
{
attr = {
strokeWidth = 2;
};
closed = 0;
nodes = (
(627,69,l),
(627,44,l)
);
},
{
attr = {
strokeWidth = 2;
};
closed = 0;
nodes = (
(251,21,l),
(251,247,l)
);
},
{
attr = {
strokeWidth = 2;
};
closed = 0;
nodes = (
(281,205,l),
(281,10,l)
);
},
{
attr = {
strokeWidth = 2;
};
closed = 0;
nodes = (
(310,1,l),
(310,182,l)
);
},
{
attr = {
strokeWidth = 2;
};
closed = 0;
nodes = (
(338,164,l),
(338,-5,l)
);
},
{
attr = {
strokeWidth = 2;
};
closed = 0;
nodes = (
(366,-10,l),
(366,153,l)
);
},
{
attr = {
strokeWidth = 2;
};
closed = 0;
nodes = (
(397,147,l),
(397,-12,l)
);
},
{
attr = {
strokeWidth = 2;
};
closed = 0;
nodes = (
(424,145,l),
(424,-13,l)
);
},
{
attr = {
strokeWidth = 2;
};
closed = 0;
nodes = (
(453,-11,l),
(453,147,l)
);
},
{
attr = {
strokeWidth = 2;
};
closed = 0;
nodes = (
(482,153,l),
(482,-7,l)
);
},
{
attr = {
strokeWidth = 2;
};
closed = 0;
nodes = (
(511,-2,l),
(511,162,l)
);
},
{
attr = {
strokeWidth = 2;
};
closed = 0;
nodes = (
(540,174,l),
(540,5,l)
);
},
{
attr = {
strokeWidth = 2;
};
closed = 0;
nodes = (
(568,15,l),
(568,189,l)
);
},
{
attr = {
strokeWidth = 2;
};
closed = 0;
nodes = (
(598,135,l),
(598,29,l)
);
}
);
width = 678;
},
{
layerId = "D0DEFB70-7D0D-4B44-B499-5072819829F5";
shapes = (
{
attr = {
strokeWidth = 2;
};
closed = 0;
nodes = (
(51,394,l),
(51,305,l)
);
},
{
attr = {
strokeWidth = 2;
};
closed = 0;
nodes = (
(91,500,l),
(91,197,l)
);
},
{
attr = {
strokeWidth = 2;
};
closed = 0;
nodes = (
(132,142,l),
(132,554,l)
);
},
{
attr = {
strokeWidth = 2;
};
closed = 0;
nodes = (
(172,592,l),
(172,106,l)
);
},
{
attr = {
strokeWidth = 2;
};
closed = 0;
nodes = (
(216,75,l),
(215,620,l)
);
},
{
attr = {
strokeWidth = 2;
};
closed = 0;
nodes = (
(255,643,l),
(255,54,l)
);
},
{
attr = {
strokeWidth = 2;
};
closed = 0;
nodes = (
(295,35,l),
(295,661,l)
);
},
{
attr = {
strokeWidth = 2;
};
closed = 0;
nodes = (
(336,677,l),
(336,452,l)
);
},
{
attr = {
strokeWidth = 2;
};
closed = 0;
nodes = (
(379,493,l),
(379,688,l)
);
},
{
attr = {
strokeWidth = 2;
};
closed = 0;
nodes = (
(421,697,l),
(421,518,l)
);
},
{
attr = {
strokeWidth = 2;
};
closed = 0;
nodes = (
(461,535,l),
(461,703,l)
);
},
{
attr = {
strokeWidth = 2;
};
closed = 0;
nodes = (
(501,707,l),
(501,544,l)
);
},
{
attr = {
strokeWidth = 2;
};
closed = 0;
nodes = (
(545,550,l),
(545,710,l)
);
},
{
attr = {
strokeWidth = 2;
};
closed = 0;
nodes = (
(583,710,l),
(583,552,l)
);
},
{
attr = {
strokeWidth = 2;
};
closed = 0;
nodes = (
(625,550,l),
(625,710,l)
);
},
{
attr = {
strokeWidth = 2;
};
closed = 0;
nodes = (
(666,706,l),
(666,544,l)
);
},
{
attr = {
strokeWidth = 2;
};
closed = 0;
nodes = (
(708,536,l),
(708,701,l)
);
},
{
attr = {
strokeWidth = 2;
};
closed = 0;
nodes = (
(749,692,l),
(749,523,l)
);
},
{
attr = {
strokeWidth = 2;
};
closed = 0;
nodes = (
(789,508,l),
(789,682,l)
);
},
{
attr = {
strokeWidth = 2;
};
closed = 0;
nodes = (
(832,668,l),
(832,572,l)
);
},
{
attr = {
strokeWidth = 2;
};
closed = 0;
nodes = (
(873,657,l),
(873,633,l)
);
},
{
attr = {
strokeWidth = 2;
};
closed = 0;
nodes = (
(873,69,l),
(873,44,l)
);
},
{
attr = {
strokeWidth = 2;
};
closed = 0;
nodes = (
(336,21,l),
(336,247,l)
);
},
{
attr = {
strokeWidth = 2;
};
closed = 0;
nodes = (
(379,205,l),
(379,10,l)
);
},
{
attr = {
strokeWidth = 2;
};
closed = 0;
nodes = (
(421,1,l),
(421,182,l)
);
},
{
attr = {
strokeWidth = 2;
};
closed = 0;
nodes = (
(461,164,l),
(461,-5,l)
);
},
{
attr = {
strokeWidth = 2;
};
closed = 0;
nodes = (
(501,-10,l),
(501,153,l)
);
},
{
attr = {
strokeWidth = 2;
};
closed = 0;
nodes = (
(545,147,l),
(545,-12,l)
);
},
{
attr = {
strokeWidth = 2;
};
closed = 0;
nodes = (
(583,145,l),
(583,-13,l)
);
},
{
attr = {
strokeWidth = 2;
};
closed = 0;
nodes = (
(625,-11,l),
(625,147,l)
);
},
{
attr = {
strokeWidth = 2;
};
closed = 0;
nodes = (
(666,153,l),
(666,-7,l)
);
},
{
attr = {
strokeWidth = 2;
};
closed = 0;
nodes = (
(708,-2,l),
(708,162,l)
);
},
{
attr = {
strokeWidth = 2;
};
closed = 0;
nodes = (
(749,174,l),
(749,5,l)
);
},
{
attr = {
strokeWidth = 2;
};
closed = 0;
nodes = (
(789,15,l),
(789,189,l)
);
},
{
attr = {
strokeWidth = 2;
};
closed = 0;
nodes = (
(832,135,l),
(832,29,l)
);
}
);
width = 924;
},
{
layerId = "8A987DE3-647B-4085-B6E8-CB46751612E3";
width = 600;
}
);
unicode = 67;
},
{
glyphname = D;
lastChange = "2022-04-19 19:11:18 +0000";
layers = (
{
background = {
shapes = (
{
attr = {
strokeWidth = 2;
};
closed = 0;
nodes = (
(49,700,l),
(49,0,l)
);
},
{
attr = {
strokeWidth = 2;
};
closed = 0;
nodes = (
(78,700,l),
(78,0,l)
);
},
{
attr = {
strokeWidth = 2;
};
closed = 0;
nodes = (
(107,700,l),
(107,0,l)
);
},
{
attr = {
strokeWidth = 2;
};
closed = 0;
nodes = (
(136,700,l),
(136,0,l)
);
},
{
attr = {
strokeWidth = 2;
};
closed = 0;
nodes = (
(164,700,l),
(164,0,l)
);
},
{
attr = {
strokeWidth = 2;
};
closed = 0;
nodes = (
(193,700,l),
(193,0,l)
);
},
{
attr = {
strokeWidth = 2;
};
closed = 0;
nodes = (
(222,700,l),
(222,0,l)
);
},
{
attr = {
strokeWidth = 2;
};
closed = 0;
nodes = (
(251,700,l),
(251,551,l)
);
},
{
attr = {
strokeWidth = 2;
};
closed = 0;
nodes = (
(251,147,l),
(251,-1,l)
);
},
{
attr = {
strokeWidth = 2;
};
closed = 0;
nodes = (
(280,148,l),
(280,0,l)
);
},
{
attr = {
strokeWidth = 2;
};
closed = 0;
nodes = (
(280,552,l),
(280,700,l)
);
},
{
attr = {
strokeWidth = 2;
};
closed = 0;
nodes = (
(309,698,l),
(309,546,l)
);
},
{
attr = {
strokeWidth = 2;
};
closed = 0;
nodes = (
(336,693,l),
(336,538,l)
);
},
{
attr = {
strokeWidth = 2;
};
closed = 0;
nodes = (
(365,687,l),
(365,524,l)
);
},
{
attr = {
strokeWidth = 2;
};
closed = 0;
nodes = (
(394,680,l),
(394,501,l)
);
},
{
attr = {
strokeWidth = 2;
};
closed = 0;
nodes = (
(309,153,l),
(309,2,l)
);
},
{
attr = {
strokeWidth = 2;
};
closed = 0;
nodes = (
(336,161,l),
(336,6,l)
);
},
{
attr = {
strokeWidth = 2;
};
closed = 0;
nodes = (
(365,176,l),
(365,12,l)
);
},
{
attr = {
strokeWidth = 2;
};
closed = 0;
nodes = (
(394,19,l),
(394,198,l)
);
},
{
attr = {
strokeWidth = 2;
};
closed = 0;
nodes = (
(423,29,l),
(423,239,l)
);
},
{
attr = {
strokeWidth = 2;
};
closed = 0;
nodes = (
(423,670,l),
(423,460,l)
);
},
{
attr = {
strokeWidth = 2;
};
closed = 0;
nodes = (
(452,657,l),
(452,42,l)
);
},
{
attr = {
strokeWidth = 2;
};
closed = 0;
nodes = (
(480,58,l),
(480,641,l)
);
},
{
attr = {
strokeWidth = 2;
};
closed = 0;
nodes = (
(509,620,l),
(509,79,l)
);
},
{
attr = {
strokeWidth = 2;
};
closed = 0;
nodes = (
(538,592,l),
(538,107,l)
);
},
{
attr = {
strokeWidth = 2;
};
closed = 0;
nodes = (
(567,143,l),
(567,556,l)
);
},
{
attr = {
strokeWidth = 2;
};
closed = 0;
nodes = (
(596,503,l),
(596,196,l)
);
},
{
attr = {
strokeWidth = 2;
};
closed = 0;
nodes = (
(624,400,l),
(624,301,l)
);
}
);
};
layerId = m01;
shapes = (
{
attr = {
strokeWidth = 2;
};
closed = 0;
nodes = (
(50,700,l),
(50,0,l)
);
},
{
attr = {
strokeWidth = 2;
};
closed = 0;
nodes = (
(79,700,l),
(79,0,l)
);
},
{
attr = {
strokeWidth = 2;
};
closed = 0;
nodes = (
(108,700,l),
(108,0,l)
);
},
{
attr = {
strokeWidth = 2;
};
closed = 0;
nodes = (
(137,700,l),
(137,0,l)
);
},
{
attr = {
strokeWidth = 2;
};
closed = 0;
nodes = (
(165,700,l),
(165,0,l)
);
},
{
attr = {
strokeWidth = 2;
};
closed = 0;
nodes = (
(194,700,l),
(194,0,l)
);
},
{
attr = {
strokeWidth = 2;
};
closed = 0;
nodes = (
(223,700,l),
(223,0,l)
);
},
{
attr = {
strokeWidth = 2;
};
closed = 0;
nodes = (
(252,700,l),
(252,552,l)
);
},
{
attr = {
strokeWidth = 2;
};
closed = 0;
nodes = (
(252,148,l),
(252,0,l)
);
},
{
attr = {
strokeWidth = 2;
};
closed = 0;
nodes = (
(280,149,l),
(280,0,l)
);
},
{
attr = {
strokeWidth = 2;
};
closed = 0;
nodes = (
(280,552,l),
(280,700,l)
);
},
{
attr = {
strokeWidth = 2;
};
closed = 0;
nodes = (
(309,699,l),
(309,547,l)
);
},
{
attr = {
strokeWidth = 2;
};
closed = 0;
nodes = (
(338,694,l),
(338,539,l)
);
},
{
attr = {
strokeWidth = 2;
};
closed = 0;
nodes = (
(367,689,l),
(367,524,l)
);
},
{
attr = {
strokeWidth = 2;
};
closed = 0;
nodes = (
(395,681,l),
(395,501,l)
);
},
{
attr = {
strokeWidth = 2;
};
closed = 0;
nodes = (
(309,153,l),
(309,2,l)
);
},
{
attr = {
strokeWidth = 2;
};
closed = 0;
nodes = (
(338,161,l),
(338,6,l)
);
},
{
attr = {
strokeWidth = 2;
};
closed = 0;
nodes = (
(367,176,l),
(367,11,l)
);
},
{
attr = {
strokeWidth = 2;
};
closed = 0;
nodes = (
(395,19,l),
(395,199,l)
);
},
{
attr = {
strokeWidth = 2;
};
closed = 0;
nodes = (
(424,29,l),
(424,239,l)
);
},
{
attr = {
strokeWidth = 2;
};
closed = 0;
nodes = (
(424,671,l),
(424,461,l)
);
},
{
attr = {
strokeWidth = 2;
};
closed = 0;
nodes = (
(453,658,l),
(453,42,l)
);
},
{
attr = {
strokeWidth = 2;
};
closed = 0;
nodes = (
(482,58,l),
(482,641,l)
);
},
{
attr = {
strokeWidth = 2;
};
closed = 0;
nodes = (
(510,621,l),
(510,79,l)
);
},
{
attr = {
strokeWidth = 2;
};
closed = 0;
nodes = (
(539,594,l),
(539,106,l)
);
},
{
attr = {
strokeWidth = 2;
};
closed = 0;
nodes = (
(568,142,l),
(568,558,l)
);
},
{
attr = {
strokeWidth = 2;
};
closed = 0;
nodes = (
(597,504,l),
(597,196,l)
);
},
{
attr = {
strokeWidth = 2;
};
closed = 0;
nodes = (
(625,401,l),
(625,301,l)
);
}
);
width = 676;
},
{
background = {
shapes = (
{
attr = {
strokeWidth = 10;
};
closed = 0;
nodes = (
(318,700,l),
(318,0,l)
);
},
{
attr = {
strokeWidth = 10;
};
closed = 0;
nodes = (
(347,700,l),
(347,0,l)
);
},
{
attr = {
strokeWidth = 10;
};
closed = 0;
nodes = (
(376,700,l),
(376,0,l)
);
},
{
attr = {
strokeWidth = 10;
};
closed = 0;
nodes = (
(405,700,l),
(405,0,l)
);
},
{
attr = {
strokeWidth = 10;
};
closed = 0;
nodes = (
(433,700,l),
(433,0,l)
);
},
{
attr = {
strokeWidth = 10;
};
closed = 0;
nodes = (
(462,700,l),
(462,0,l)
);
},
{
attr = {
strokeWidth = 10;
};
closed = 0;
nodes = (
(491,700,l),
(491,0,l)
);
},
{
attr = {
strokeWidth = 10;
};
closed = 0;
nodes = (
(520,700,l),
(520,551,l)
);
},
{
attr = {
strokeWidth = 10;
};
closed = 0;
nodes = (
(520,147,l),
(520,-1,l)
);
},
{
attr = {
strokeWidth = 10;
};
closed = 0;
nodes = (
(549,148,l),
(549,0,l)
);
},
{
attr = {
strokeWidth = 10;
};
closed = 0;
nodes = (
(549,552,l),
(549,700,l)
);
},
{
attr = {
strokeWidth = 10;
};
closed = 0;
nodes = (
(578,698,l),
(578,546,l)
);
},
{
attr = {
strokeWidth = 10;
};
closed = 0;
nodes = (
(605,693,l),
(605,538,l)
);
},
{
attr = {
strokeWidth = 10;
};
closed = 0;
nodes = (
(634,687,l),
(634,524,l)
);
},
{
attr = {
strokeWidth = 10;
};
closed = 0;
nodes = (
(663,680,l),
(663,501,l)
);
},
{
attr = {
strokeWidth = 10;
};
closed = 0;
nodes = (
(578,153,l),
(578,2,l)
);
},
{
attr = {
strokeWidth = 10;
};
closed = 0;
nodes = (
(605,161,l),
(605,6,l)
);
},
{
attr = {
strokeWidth = 10;
};
closed = 0;
nodes = (
(634,176,l),
(634,12,l)
);
},
{
attr = {
strokeWidth = 10;
};
closed = 0;
nodes = (
(663,19,l),
(663,198,l)
);
},
{
attr = {
strokeWidth = 10;
};
closed = 0;
nodes = (
(692,29,l),
(692,239,l)
);
},
{
attr = {
strokeWidth = 10;
};
closed = 0;
nodes = (
(692,670,l),
(692,460,l)
);
},
{
attr = {
strokeWidth = 10;
};
closed = 0;
nodes = (
(721,657,l),
(721,42,l)
);
},
{
attr = {
strokeWidth = 10;
};
closed = 0;
nodes = (
(749,58,l),
(749,641,l)
);
},
{
attr = {
strokeWidth = 10;
};
closed = 0;
nodes = (
(778,620,l),
(778,79,l)
);
},
{
attr = {
strokeWidth = 10;
};
closed = 0;
nodes = (
(807,592,l),
(807,107,l)
);
},
{
attr = {
strokeWidth = 10;
};
closed = 0;
nodes = (
(836,143,l),
(836,556,l)
);
},
{
attr = {
strokeWidth = 10;
};
closed = 0;
nodes = (
(865,503,l),
(865,196,l)
);
},
{
attr = {
strokeWidth = 10;
};
closed = 0;
nodes = (
(893,400,l),
(893,301,l)
);
}
);
};
layerId = "D0DEFB70-7D0D-4B44-B499-5072819829F5";
shapes = (
{
attr = {
strokeWidth = 2;
};
closed = 0;
nodes = (
(51,700,l),
(51,0,l)
);
},
{
attr = {
strokeWidth = 2;
};
closed = 0;
nodes = (
(92,700,l),
(92,0,l)
);
},
{
attr = {
strokeWidth = 2;
};
closed = 0;
nodes = (
(134,700,l),
(134,0,l)
);
},
{
attr = {
strokeWidth = 2;
};
closed = 0;
nodes = (
(175,700,l),
(175,0,l)
);
},
{
attr = {
strokeWidth = 2;
};
closed = 0;
nodes = (
(215,700,l),
(215,0,l)
);
},
{
attr = {
strokeWidth = 2;
};
closed = 0;
nodes = (
(257,700,l),
(257,0,l)
);
},
{
attr = {
strokeWidth = 2;
};
closed = 0;
nodes = (
(298,700,l),
(298,0,l)
);
},
{
attr = {
strokeWidth = 2;
};
closed = 0;
nodes = (
(339,700,l),
(339,552,l)
);
},
{
attr = {
strokeWidth = 2;
};
closed = 0;
nodes = (
(339,148,l),
(339,0,l)
);
},
{
attr = {
strokeWidth = 2;
};
closed = 0;
nodes = (
(379,149,l),
(379,0,l)
);
},
{
attr = {
strokeWidth = 2;
};
closed = 0;
nodes = (
(379,552,l),
(379,700,l)
);
},
{
attr = {
strokeWidth = 2;
};
closed = 0;
nodes = (
(421,699,l),
(421,547,l)
);
},
{
attr = {
strokeWidth = 2;
};
closed = 0;
nodes = (
(462,694,l),
(462,539,l)
);
},
{
attr = {
strokeWidth = 2;
};
closed = 0;
nodes = (
(504,689,l),
(504,524,l)
);
},
{
attr = {
strokeWidth = 2;
};
closed = 0;
nodes = (
(544,681,l),
(544,501,l)
);
},
{
attr = {
strokeWidth = 2;
};
closed = 0;
nodes = (
(421,153,l),
(421,2,l)
);
},
{
attr = {
strokeWidth = 2;
};
closed = 0;
nodes = (
(462,161,l),
(462,6,l)
);
},
{
attr = {
strokeWidth = 2;
};
closed = 0;
nodes = (
(504,176,l),
(504,11,l)
);
},
{
attr = {
strokeWidth = 2;
};
closed = 0;
nodes = (
(544,19,l),
(544,199,l)
);
},
{
attr = {
strokeWidth = 2;
};
closed = 0;
nodes = (
(585,29,l),
(585,239,l)
);
},
{
attr = {
strokeWidth = 2;
};
closed = 0;
nodes = (
(585,671,l),
(585,461,l)
);
},
{
attr = {
strokeWidth = 2;
};
closed = 0;
nodes = (
(627,658,l),
(627,42,l)
);
},
{
attr = {
strokeWidth = 2;
};
closed = 0;
nodes = (
(668,58,l),
(668,641,l)
);
},
{
attr = {
strokeWidth = 2;
};
closed = 0;
nodes = (
(708,621,l),
(708,79,l)
);
},
{
attr = {
strokeWidth = 2;
};
closed = 0;
nodes = (
(749,594,l),
(749,106,l)
);
},
{
attr = {
strokeWidth = 2;
};
closed = 0;
nodes = (
(791,142,l),
(791,558,l)
);
},
{
attr = {
strokeWidth = 2;
};
closed = 0;
nodes = (
(832,504,l),
(832,196,l)
);
},
{
attr = {
strokeWidth = 2;
};
closed = 0;
nodes = (
(872,401,l),
(872,301,l)
);
}
);
width = 923;
},
{
layerId = "8A987DE3-647B-4085-B6E8-CB46751612E3";
width = 600;
}
);
unicode = 68;
},
{
glyphname = E;
lastChange = "2022-04-19 19:11:18 +0000";
layers = (
{
layerId = m01;
shapes = (
{
attr = {
strokeWidth = 2;
};
closed = 0;
nodes = (
(51,700,l),
(51,0,l)
);
},
{
attr = {
strokeWidth = 2;
};
closed = 0;
nodes = (
(80,700,l),
(80,0,l)
);
},
{
attr = {
strokeWidth = 2;
};
closed = 0;
nodes = (
(110,700,l),
(110,0,l)
);
},
{
attr = {
strokeWidth = 2;
};
closed = 0;
nodes = (
(139,700,l),
(139,0,l)
);
},
{
attr = {
strokeWidth = 2;
};
closed = 0;
nodes = (
(169,700,l),
(169,0,l)
);
},
{
attr = {
strokeWidth = 2;
};
closed = 0;
nodes = (
(198,700,l),
(198,0,l)
);
},
{
attr = {
strokeWidth = 2;
};
closed = 0;
nodes = (
(228,700,l),
(228,549,l)
);
},
{
attr = {
strokeWidth = 2;
};
closed = 0;
nodes = (
(228,430,l),
(228,277,l)
);
},
{
attr = {
strokeWidth = 2;
};
closed = 0;
nodes = (
(228,152,l),
(228,0,l)
);
},
{
attr = {
strokeWidth = 2;
};
closed = 0;
nodes = (
(258,0,l),
(258,152,l)
);
},
{
attr = {
strokeWidth = 2;
};
closed = 0;
nodes = (
(258,277,l),
(258,430,l)
);
},
{
attr = {
strokeWidth = 2;
};
closed = 0;
nodes = (
(258,549,l),
(258,700,l)
);
},
{
attr = {
strokeWidth = 2;
};
closed = 0;
nodes = (
(287,700,l),
(287,549,l)
);
},
{
attr = {
strokeWidth = 2;
};
closed = 0;
nodes = (
(316,700,l),
(316,549,l)
);
},
{
attr = {
strokeWidth = 2;
};
closed = 0;
nodes = (
(343,700,l),
(343,549,l)
);
},
{
attr = {
strokeWidth = 2;
};
closed = 0;
nodes = (
(373,700,l),
(373,549,l)
);
},
{
attr = {
strokeWidth = 2;
};
closed = 0;
nodes = (
(402,700,l),
(402,549,l)
);
},
{
attr = {
strokeWidth = 2;
};
closed = 0;
nodes = (
(287,430,l),
(287,277,l)
);
},
{
attr = {
strokeWidth = 2;
};
closed = 0;
nodes = (
(316,430,l),
(316,277,l)
);
},
{
attr = {
strokeWidth = 2;
};
closed = 0;
nodes = (
(343,430,l),
(343,277,l)
);
},
{
attr = {
strokeWidth = 2;
};
closed = 0;
nodes = (
(373,430,l),
(373,277,l)
);
},
{
attr = {
strokeWidth = 2;
};
closed = 0;
nodes = (
(287,152,l),
(287,0,l)
);
},
{
attr = {
strokeWidth = 2;
};
closed = 0;
nodes = (
(316,152,l),
(316,0,l)
);
},
{
attr = {
strokeWidth = 2;
};
closed = 0;
nodes = (
(343,152,l),
(343,0,l)
);
},
{
attr = {
strokeWidth = 2;
};
closed = 0;
nodes = (
(373,152,l),
(373,0,l)
);
},
{
attr = {
strokeWidth = 2;
};
closed = 0;
nodes = (
(402,152,l),
(402,0,l)
);
},
{
attr = {
strokeWidth = 2;
};
closed = 0;
nodes = (
(432,152,l),
(432,0,l)
);
}
);
width = 483;
},
{
layerId = "D0DEFB70-7D0D-4B44-B499-5072819829F5";
shapes = (
{
attr = {
strokeWidth = 2;
};
closed = 0;
nodes = (
(51,698,l),
(51,0,l)
);
},
{
attr = {
strokeWidth = 2;
};
closed = 0;
nodes = (
(92,698,l),
(92,0,l)
);
},
{
attr = {
strokeWidth = 2;
};
closed = 0;
nodes = (
(135,698,l),
(135,0,l)
);
},
{
attr = {
strokeWidth = 2;
};
closed = 0;
nodes = (
(176,698,l),
(176,0,l)
);
},
{
attr = {
strokeWidth = 2;
};
closed = 0;
nodes = (
(219,698,l),
(219,0,l)
);
},
{
attr = {
strokeWidth = 2;
};
closed = 0;
nodes = (
(261,698,l),
(261,0,l)
);
},
{
attr = {
strokeWidth = 2;
};
closed = 0;
nodes = (
(302,698,l),
(302,547,l)
);
},
{
attr = {
strokeWidth = 2;
};
closed = 0;
nodes = (
(302,429,l),
(302,276,l)
);
},
{
attr = {
strokeWidth = 2;
};
closed = 0;
nodes = (
(302,152,l),
(302,0,l)
);
},
{
attr = {
strokeWidth = 2;
};
closed = 0;
nodes = (
(345,0,l),
(345,152,l)
);
},
{
attr = {
strokeWidth = 2;
};
closed = 0;
nodes = (
(345,276,l),
(345,429,l)
);
},
{
attr = {
strokeWidth = 2;
};
closed = 0;
nodes = (
(345,547,l),
(345,698,l)
);
},
{
attr = {
strokeWidth = 2;
};
closed = 0;
nodes = (
(386,698,l),
(386,547,l)
);
},
{
attr = {
strokeWidth = 2;
};
closed = 0;
nodes = (
(428,698,l),
(428,547,l)
);
},
{
attr = {
strokeWidth = 2;
};
closed = 0;
nodes = (
(466,698,l),
(466,547,l)
);
},
{
attr = {
strokeWidth = 2;
};
closed = 0;
nodes = (
(509,698,l),
(509,547,l)
);
},
{
attr = {
strokeWidth = 2;
};
closed = 0;
nodes = (
(551,698,l),
(551,547,l)
);
},
{
attr = {
strokeWidth = 2;
};
closed = 0;
nodes = (
(386,429,l),
(386,276,l)
);
},
{
attr = {
strokeWidth = 2;
};
closed = 0;
nodes = (
(428,429,l),
(428,276,l)
);
},
{
attr = {
strokeWidth = 2;
};
closed = 0;
nodes = (
(466,429,l),
(466,276,l)
);
},
{
attr = {
strokeWidth = 2;
};
closed = 0;
nodes = (
(509,429,l),
(509,276,l)
);
},
{
attr = {
strokeWidth = 2;
};
closed = 0;
nodes = (
(386,152,l),
(386,0,l)
);
},
{
attr = {
strokeWidth = 2;
};
closed = 0;
nodes = (
(428,152,l),
(428,0,l)
);
},
{
attr = {
strokeWidth = 2;
};
closed = 0;
nodes = (
(466,152,l),
(466,0,l)
);
},
{
attr = {
strokeWidth = 2;
};
closed = 0;
nodes = (
(509,152,l),
(509,0,l)
);
},
{
attr = {
strokeWidth = 2;
};
closed = 0;
nodes = (
(551,152,l),
(551,0,l)
);
},
{
attr = {
strokeWidth = 2;
};
closed = 0;
nodes = (
(593,152,l),
(593,0,l)
);
}
);
width = 644;
},
{
layerId = "8A987DE3-647B-4085-B6E8-CB46751612E3";
width = 600;
}
);
unicode = 69;
},
{
glyphname = F;
lastChange = "2022-04-19 19:11:18 +0000";
layers = (
{
layerId = m01;
shapes = (
{
attr = {
strokeWidth = 2;
};
closed = 0;
nodes = (
(51,700,l),
(51,0,l)
);
},
{
attr = {
strokeWidth = 2;
};
closed = 0;
nodes = (
(80,700,l),
(80,0,l)
);
},
{
attr = {
strokeWidth = 2;
};
closed = 0;
nodes = (
(107,700,l),
(107,0,l)
);
},
{
attr = {
strokeWidth = 2;
};
closed = 0;
nodes = (
(136,700,l),
(136,0,l)
);
},
{
attr = {
strokeWidth = 2;
};
closed = 0;
nodes = (
(166,700,l),
(166,0,l)
);
},
{
attr = {
strokeWidth = 2;
};
closed = 0;
nodes = (
(192,700,l),
(192,0,l)
);
},
{
attr = {
strokeWidth = 2;
};
closed = 0;
nodes = (
(222,700,l),
(222,0,l)
);
},
{
attr = {
strokeWidth = 2;
};
closed = 0;
nodes = (
(251,417,l),
(251,266,l)
);
},
{
attr = {
strokeWidth = 2;
};
closed = 0;
nodes = (
(251,700,l),
(251,544,l)
);
},
{
attr = {
strokeWidth = 2;
};
closed = 0;
nodes = (
(278,700,l),
(278,544,l)
);
},
{
attr = {
strokeWidth = 2;
};
closed = 0;
nodes = (
(307,700,l),
(307,544,l)
);
},
{
attr = {
strokeWidth = 2;
};
closed = 0;
nodes = (
(334,700,l),
(334,544,l)
);
},
{
attr = {
strokeWidth = 2;
};
closed = 0;
nodes = (
(363,700,l),
(363,544,l)
);
},
{
attr = {
strokeWidth = 2;
};
closed = 0;
nodes = (
(392,700,l),
(392,544,l)
);
},
{
attr = {
strokeWidth = 2;
};
closed = 0;
nodes = (
(419,700,l),
(419,544,l)
);
},
{
attr = {
strokeWidth = 2;
};
closed = 0;
nodes = (
(278,417,l),
(278,266,l)
);
},
{
attr = {
strokeWidth = 2;
};
closed = 0;
nodes = (
(307,417,l),
(307,266,l)
);
},
{
attr = {
strokeWidth = 2;
};
closed = 0;
nodes = (
(334,417,l),
(334,266,l)
);
},
{
attr = {
strokeWidth = 2;
};
closed = 0;
nodes = (
(363,417,l),
(363,266,l)
);
},
{
attr = {
strokeWidth = 2;
};
closed = 0;
nodes = (
(392,417,l),
(392,266,l)
);
}
);
width = 470;
},
{
layerId = "D0DEFB70-7D0D-4B44-B499-5072819829F5";
shapes = (
{
attr = {
strokeWidth = 2;
};
closed = 0;
nodes = (
(51,700,l),
(51,0,l)
);
},
{
attr = {
strokeWidth = 2;
};
closed = 0;
nodes = (
(93,700,l),
(93,0,l)
);
},
{
attr = {
strokeWidth = 2;
};
closed = 0;
nodes = (
(131,700,l),
(131,0,l)
);
},
{
attr = {
strokeWidth = 2;
};
closed = 0;
nodes = (
(173,700,l),
(173,0,l)
);
},
{
attr = {
strokeWidth = 2;
};
closed = 0;
nodes = (
(215,700,l),
(215,0,l)
);
},
{
attr = {
strokeWidth = 2;
};
closed = 0;
nodes = (
(253,700,l),
(253,0,l)
);
},
{
attr = {
strokeWidth = 2;
};
closed = 0;
nodes = (
(295,700,l),
(295,0,l)
);
},
{
attr = {
strokeWidth = 2;
};
closed = 0;
nodes = (
(337,417,l),
(337,266,l)
);
},
{
attr = {
strokeWidth = 2;
};
closed = 0;
nodes = (
(337,700,l),
(337,544,l)
);
},
{
attr = {
strokeWidth = 2;
};
closed = 0;
nodes = (
(375,700,l),
(375,544,l)
);
},
{
attr = {
strokeWidth = 2;
};
closed = 0;
nodes = (
(417,700,l),
(417,544,l)
);
},
{
attr = {
strokeWidth = 2;
};
closed = 0;
nodes = (
(455,700,l),
(455,544,l)
);
},
{
attr = {
strokeWidth = 2;
};
closed = 0;
nodes = (
(497,700,l),
(497,544,l)
);
},
{
attr = {
strokeWidth = 2;
};
closed = 0;
nodes = (
(538,700,l),
(538,544,l)
);
},
{
attr = {
strokeWidth = 2;
};
closed = 0;
nodes = (
(577,700,l),
(577,544,l)
);
},
{
attr = {
strokeWidth = 2;
};
closed = 0;
nodes = (
(375,417,l),
(375,266,l)
);
},
{
attr = {
strokeWidth = 2;
};
closed = 0;
nodes = (
(417,417,l),
(417,266,l)
);
},
{
attr = {
strokeWidth = 2;
};
closed = 0;
nodes = (
(455,417,l),
(455,266,l)
);
},
{
attr = {
strokeWidth = 2;
};
closed = 0;
nodes = (
(497,417,l),
(497,266,l)
);
},
{
attr = {
strokeWidth = 2;
};
closed = 0;
nodes = (
(538,417,l),
(538,266,l)
);
}
);
width = 628;
},
{
layerId = "8A987DE3-647B-4085-B6E8-CB46751612E3";
width = 600;
}
);
unicode = 70;
},
{
glyphname = G;
lastChange = "2022-04-19 19:11:18 +0000";
layers = (
{
layerId = m01;
shapes = (
{
attr = {
strokeWidth = 2;
};
closed = 0;
nodes = (
(51,394,l),
(51,319,l)
);
},
{
attr = {
strokeWidth = 2;
};
closed = 0;
nodes = (
(77,207,l),
(77,498,l)
);
},
{
attr = {
strokeWidth = 2;
};
closed = 0;
nodes = (
(106,553,l),
(106,151,l)
);
},
{
attr = {
strokeWidth = 2;
};
closed = 0;
nodes = (
(133,114,l),
(133,591,l)
);
},
{
attr = {
strokeWidth = 2;
};
closed = 0;
nodes = (
(163,620,l),
(163,84,l)
);
},
{
attr = {
strokeWidth = 2;
};
closed = 0;
nodes = (
(189,645,l),
(189,60,l)
);
},
{
attr = {
strokeWidth = 2;
};
closed = 0;
nodes = (
(219,43,l),
(219,661,l)
);
},
{
attr = {
strokeWidth = 2;
};
closed = 0;
nodes = (
(247,677,l),
(247,454,l)
);
},
{
attr = {
strokeWidth = 2;
};
closed = 0;
nodes = (
(247,258,l),
(247,29,l)
);
},
{
attr = {
strokeWidth = 2;
};
closed = 0;
nodes = (
(275,214,l),
(275,17,l)
);
},
{
attr = {
strokeWidth = 2;
};
closed = 0;
nodes = (
(303,187,l),
(303,7,l)
);
},
{
attr = {
strokeWidth = 2;
};
closed = 0;
nodes = (
(331,-1,l),
(331,170,l)
);
},
{
attr = {
strokeWidth = 2;
};
closed = 0;
nodes = (
(360,158,l),
(360,-6,l)
);
},
{
attr = {
strokeWidth = 2;
};
closed = 0;
nodes = (
(389,153,l),
(389,-8,l)
);
},
{
attr = {
strokeWidth = 2;
};
closed = 0;
nodes = (
(416,-8,l),
(416,151,l)
);
},
{
attr = {
strokeWidth = 2;
};
closed = 0;
nodes = (
(445,151,l),
(445,-8,l)
);
},
{
attr = {
strokeWidth = 2;
};
closed = 0;
nodes = (
(471,-6,l),
(471,153,l)
);
},
{
attr = {
strokeWidth = 2;
};
closed = 0;
nodes = (
(501,160,l),
(501,-1,l)
);
},
{
attr = {
strokeWidth = 2;
};
closed = 0;
nodes = (
(531,5,l),
(531,167,l)
);
},
{
attr = {
strokeWidth = 2;
};
closed = 0;
nodes = (
(557,183,l),
(557,11,l)
);
},
{
attr = {
strokeWidth = 2;
};
closed = 0;
nodes = (
(275,498,l),
(275,688,l)
);
},
{
attr = {
strokeWidth = 2;
};
closed = 0;
nodes = (
(303,699,l),
(303,523,l)
);
},
{
attr = {
strokeWidth = 2;
};
closed = 0;
nodes = (
(331,538,l),
(331,707,l)
);
},
{
attr = {
strokeWidth = 2;
};
closed = 0;
nodes = (
(360,711,l),
(360,550,l)
);
},
{
attr = {
strokeWidth = 2;
};
closed = 0;
nodes = (
(389,555,l),
(389,714,l)
);
},
{
attr = {
strokeWidth = 2;
};
closed = 0;
nodes = (
(416,714,l),
(416,557,l)
);
},
{
attr = {
strokeWidth = 2;
};
closed = 0;
nodes = (
(445,555,l),
(445,714,l)
);
},
{
attr = {
strokeWidth = 2;
};
closed = 0;
nodes = (
(471,711,l),
(471,550,l)
);
},
{
attr = {
strokeWidth = 2;
};
closed = 0;
nodes = (
(501,543,l),
(501,707,l)
);
},
{
attr = {
strokeWidth = 2;
};
closed = 0;
nodes = (
(531,699,l),
(531,530,l)
);
},
{
attr = {
strokeWidth = 2;
};
closed = 0;
nodes = (
(557,511,l),
(557,691,l)
);
},
{
attr = {
strokeWidth = 2;
};
closed = 0;
nodes = (
(587,679,l),
(587,486,l)
);
},
{
attr = {
strokeWidth = 2;
};
closed = 0;
nodes = (
(614,507,l),
(614,665,l)
);
},
{
attr = {
strokeWidth = 2;
};
closed = 0;
nodes = (
(642,645,l),
(642,535,l)
);
},
{
attr = {
strokeWidth = 2;
};
closed = 0;
nodes = (
(669,620,l),
(669,564,l)
);
},
{
attr = {
strokeWidth = 2;
};
closed = 0;
nodes = (
(728,396,l),
(728,103,l)
);
},
{
attr = {
strokeWidth = 2;
};
closed = 0;
nodes = (
(698,80,l),
(698,396,l)
);
},
{
attr = {
strokeWidth = 2;
};
closed = 0;
nodes = (
(669,396,l),
(669,60,l)
);
},
{
attr = {
strokeWidth = 2;
};
closed = 0;
nodes = (
(642,46,l),
(642,396,l)
);
},
{
attr = {
strokeWidth = 2;
};
closed = 0;
nodes = (
(614,396,l),
(614,31,l)
);
},
{
attr = {
strokeWidth = 2;
};
closed = 0;
nodes = (
(587,19,l),
(587,396,l)
);
},
{
attr = {
strokeWidth = 2;
};
closed = 0;
nodes = (
(557,396,l),
(557,252,l)
);
},
{
attr = {
strokeWidth = 2;
};
closed = 0;
nodes = (
(531,396,l),
(531,252,l)
);
},
{
attr = {
strokeWidth = 2;
};
closed = 0;
nodes = (
(501,396,l),
(501,252,l)
);
},
{
attr = {
strokeWidth = 2;
};
closed = 0;
nodes = (
(471,396,l),
(471,252,l)
);
}
);
width = 779;
},
{
layerId = "D0DEFB70-7D0D-4B44-B499-5072819829F5";
shapes = (
{
attr = {
strokeWidth = 2;
};
closed = 0;
nodes = (
(51,394,l),
(51,319,l)
);
},
{
attr = {
strokeWidth = 2;
};
closed = 0;
nodes = (
(88,207,l),
(88,498,l)
);
},
{
attr = {
strokeWidth = 2;
};
closed = 0;
nodes = (
(130,553,l),
(130,151,l)
);
},
{
attr = {
strokeWidth = 2;
};
closed = 0;
nodes = (
(168,114,l),
(168,591,l)
);
},
{
attr = {
strokeWidth = 2;
};
closed = 0;
nodes = (
(211,620,l),
(211,84,l)
);
},
{
attr = {
strokeWidth = 2;
};
closed = 0;
nodes = (
(248,645,l),
(248,60,l)
);
},
{
attr = {
strokeWidth = 2;
};
closed = 0;
nodes = (
(291,43,l),
(291,661,l)
);
},
{
attr = {
strokeWidth = 2;
};
closed = 0;
nodes = (
(331,677,l),
(331,454,l)
);
},
{
attr = {
strokeWidth = 2;
};
closed = 0;
nodes = (
(331,258,l),
(331,29,l)
);
},
{
attr = {
strokeWidth = 2;
};
closed = 0;
nodes = (
(371,214,l),
(371,17,l)
);
},
{
attr = {
strokeWidth = 2;
};
closed = 0;
nodes = (
(411,187,l),
(411,7,l)
);
},
{
attr = {
strokeWidth = 2;
};
closed = 0;
nodes = (
(451,-1,l),
(451,170,l)
);
},
{
attr = {
strokeWidth = 2;
};
closed = 0;
nodes = (
(492,158,l),
(492,-6,l)
);
},
{
attr = {
strokeWidth = 2;
};
closed = 0;
nodes = (
(534,153,l),
(534,-8,l)
);
},
{
attr = {
strokeWidth = 2;
};
closed = 0;
nodes = (
(572,-8,l),
(572,151,l)
);
},
{
attr = {
strokeWidth = 2;
};
closed = 0;
nodes = (
(614,151,l),
(614,-8,l)
);
},
{
attr = {
strokeWidth = 2;
};
closed = 0;
nodes = (
(651,-6,l),
(651,153,l)
);
},
{
attr = {
strokeWidth = 2;
};
closed = 0;
nodes = (
(694,160,l),
(694,-1,l)
);
},
{
attr = {
strokeWidth = 2;
};
closed = 0;
nodes = (
(737,5,l),
(737,167,l)
);
},
{
attr = {
strokeWidth = 2;
};
closed = 0;
nodes = (
(774,183,l),
(774,11,l)
);
},
{
attr = {
strokeWidth = 2;
};
closed = 0;
nodes = (
(371,498,l),
(371,688,l)
);
},
{
attr = {
strokeWidth = 2;
};
closed = 0;
nodes = (
(411,699,l),
(411,523,l)
);
},
{
attr = {
strokeWidth = 2;
};
closed = 0;
nodes = (
(451,538,l),
(451,707,l)
);
},
{
attr = {
strokeWidth = 2;
};
closed = 0;
nodes = (
(492,711,l),
(492,550,l)
);
},
{
attr = {
strokeWidth = 2;
};
closed = 0;
nodes = (
(534,555,l),
(534,714,l)
);
},
{
attr = {
strokeWidth = 2;
};
closed = 0;
nodes = (
(572,714,l),
(572,557,l)
);
},
{
attr = {
strokeWidth = 2;
};
closed = 0;
nodes = (
(614,555,l),
(614,714,l)
);
},
{
attr = {
strokeWidth = 2;
};
closed = 0;
nodes = (
(651,711,l),
(651,550,l)
);
},
{
attr = {
strokeWidth = 2;
};
closed = 0;
nodes = (
(694,543,l),
(694,707,l)
);
},
{
attr = {
strokeWidth = 2;
};
closed = 0;
nodes = (
(737,699,l),
(737,530,l)
);
},
{
attr = {
strokeWidth = 2;
};
closed = 0;
nodes = (
(774,511,l),
(774,691,l)
);
},
{
attr = {
strokeWidth = 2;
};
closed = 0;
nodes = (
(817,679,l),
(817,486,l)
);
},
{
attr = {
strokeWidth = 2;
};
closed = 0;
nodes = (
(855,507,l),
(855,665,l)
);
},
{
attr = {
strokeWidth = 2;
};
closed = 0;
nodes = (
(895,645,l),
(895,535,l)
);
},
{
attr = {
strokeWidth = 2;
};
closed = 0;
nodes = (
(934,620,l),
(934,564,l)
);
},
{
attr = {
strokeWidth = 2;
};
closed = 0;
nodes = (
(1018,396,l),
(1018,103,l)
);
},
{
attr = {
strokeWidth = 2;
};
closed = 0;
nodes = (
(975,80,l),
(975,396,l)
);
},
{
attr = {
strokeWidth = 2;
};
closed = 0;
nodes = (
(934,396,l),
(934,60,l)
);
},
{
attr = {
strokeWidth = 2;
};
closed = 0;
nodes = (
(895,46,l),
(895,396,l)
);
},
{
attr = {
strokeWidth = 2;
};
closed = 0;
nodes = (
(855,396,l),
(855,31,l)
);
},
{
attr = {
strokeWidth = 2;
};
closed = 0;
nodes = (
(817,19,l),
(817,396,l)
);
},
{
attr = {
strokeWidth = 2;
};
closed = 0;
nodes = (
(774,396,l),
(774,252,l)
);
},
{
attr = {
strokeWidth = 2;
};
closed = 0;
nodes = (
(737,396,l),
(737,252,l)
);
},
{
attr = {
strokeWidth = 2;
};
closed = 0;
nodes = (
(694,396,l),
(694,252,l)
);
},
{
attr = {
strokeWidth = 2;
};
closed = 0;
nodes = (
(651,396,l),
(651,252,l)
);
}
);
width = 1069;
},
{
layerId = "8A987DE3-647B-4085-B6E8-CB46751612E3";
width = 600;
}
);
unicode = 71;
},
{
glyphname = H;
lastChange = "2022-04-19 19:11:18 +0000";
layers = (
{
layerId = m01;
shapes = (
{
attr = {
strokeWidth = 2;
};
closed = 0;
nodes = (
(51,700,l),
(51,0,l)
);
},
{
attr = {
strokeWidth = 2;
};
closed = 0;
nodes = (
(80,0,l),
(80,700,l)
);
},
{
attr = {
strokeWidth = 2;
};
closed = 0;
nodes = (
(110,700,l),
(110,0,l)
);
},
{
attr = {
strokeWidth = 2;
};
closed = 0;
nodes = (
(137,700,l),
(137,0,l)
);
},
{
attr = {
strokeWidth = 2;
};
closed = 0;
nodes = (
(166,0,l),
(166,700,l)
);
},
{
attr = {
strokeWidth = 2;
};
closed = 0;
nodes = (
(195,700,l),
(195,0,l)
);
},
{
attr = {
strokeWidth = 2;
};
closed = 0;
nodes = (
(222,0,l),
(222,700,l)
);
},
{
attr = {
strokeWidth = 2;
};
closed = 0;
nodes = (
(472,700,l),
(472,0,l)
);
},
{
attr = {
strokeWidth = 2;
};
closed = 0;
nodes = (
(501,0,l),
(501,700,l)
);
},
{
attr = {
strokeWidth = 2;
};
closed = 0;
nodes = (
(531,700,l),
(531,0,l)
);
},
{
attr = {
strokeWidth = 2;
};
closed = 0;
nodes = (
(558,700,l),
(558,0,l)
);
},
{
attr = {
strokeWidth = 2;
};
closed = 0;
nodes = (
(587,0,l),
(587,700,l)
);
},
{
attr = {
strokeWidth = 2;
};
closed = 0;
nodes = (
(614,700,l),
(614,0,l)
);
},
{
attr = {
strokeWidth = 2;
};
closed = 0;
nodes = (
(643,0,l),
(643,700,l)
);
},
{
attr = {
strokeWidth = 2;
};
closed = 0;
nodes = (
(252,426,l),
(252,274,l)
);
},
{
attr = {
strokeWidth = 2;
};
closed = 0;
nodes = (
(286,274,l),
(286,426,l)
);
},
{
attr = {
strokeWidth = 2;
};
closed = 0;
nodes = (
(315,426,l),
(315,274,l)
);
},
{
attr = {
strokeWidth = 2;
};
closed = 0;
nodes = (
(347,274,l),
(347,426,l)
);
},
{
attr = {
strokeWidth = 2;
};
closed = 0;
nodes = (
(379,426,l),
(379,274,l)
);
},
{
attr = {
strokeWidth = 2;
};
closed = 0;
nodes = (
(411,426,l),
(411,274,l)
);
},
{
attr = {
strokeWidth = 2;
};
closed = 0;
nodes = (
(443,426,l),
(443,274,l)
);
}
);
width = 694;
},
{
layerId = "D0DEFB70-7D0D-4B44-B499-5072819829F5";
shapes = (
{
attr = {
strokeWidth = 2;
};
closed = 0;
nodes = (
(51,700,l),
(51,0,l)
);
},
{
attr = {
strokeWidth = 2;
};
closed = 0;
nodes = (
(93,0,l),
(93,700,l)
);
},
{
attr = {
strokeWidth = 2;
};
closed = 0;
nodes = (
(135,700,l),
(135,0,l)
);
},
{
attr = {
strokeWidth = 2;
};
closed = 0;
nodes = (
(174,700,l),
(174,0,l)
);
},
{
attr = {
strokeWidth = 2;
};
closed = 0;
nodes = (
(215,0,l),
(215,700,l)
);
},
{
attr = {
strokeWidth = 2;
};
closed = 0;
nodes = (
(257,700,l),
(257,0,l)
);
},
{
attr = {
strokeWidth = 2;
};
closed = 0;
nodes = (
(295,0,l),
(295,700,l)
);
},
{
attr = {
strokeWidth = 2;
};
closed = 0;
nodes = (
(653,700,l),
(653,0,l)
);
},
{
attr = {
strokeWidth = 2;
};
closed = 0;
nodes = (
(694,0,l),
(694,700,l)
);
},
{
attr = {
strokeWidth = 2;
};
closed = 0;
nodes = (
(737,700,l),
(737,0,l)
);
},
{
attr = {
strokeWidth = 2;
};
closed = 0;
nodes = (
(775,700,l),
(775,0,l)
);
},
{
attr = {
strokeWidth = 2;
};
closed = 0;
nodes = (
(817,0,l),
(817,700,l)
);
},
{
attr = {
strokeWidth = 2;
};
closed = 0;
nodes = (
(855,700,l),
(855,0,l)
);
},
{
attr = {
strokeWidth = 2;
};
closed = 0;
nodes = (
(897,0,l),
(897,700,l)
);
},
{
attr = {
strokeWidth = 2;
};
closed = 0;
nodes = (
(338,426,l),
(338,274,l)
);
},
{
attr = {
strokeWidth = 2;
};
closed = 0;
nodes = (
(387,274,l),
(387,426,l)
);
},
{
attr = {
strokeWidth = 2;
};
closed = 0;
nodes = (
(428,426,l),
(428,274,l)
);
},
{
attr = {
strokeWidth = 2;
};
closed = 0;
nodes = (
(474,274,l),
(474,426,l)
);
},
{
attr = {
strokeWidth = 2;
};
closed = 0;
nodes = (
(520,426,l),
(520,274,l)
);
},
{
attr = {
strokeWidth = 2;
};
closed = 0;
nodes = (
(565,426,l),
(565,274,l)
);
},
{
attr = {
strokeWidth = 2;
};
closed = 0;
nodes = (
(611,426,l),
(611,274,l)
);
}
);
width = 948;
},
{
layerId = "8A987DE3-647B-4085-B6E8-CB46751612E3";
width = 600;
}
);
unicode = 72;
},
{
glyphname = I;
lastChange = "2022-04-19 19:11:18 +0000";
layers = (
{
layerId = m01;
shapes = (
{
attr = {
strokeWidth = 2;
};
closed = 0;
nodes = (
(51,700,l),
(51,0,l)
);
},
{
attr = {
strokeWidth = 2;
};
closed = 0;
nodes = (
(78,700,l),
(78,0,l)
);
},
{
attr = {
strokeWidth = 2;
};
closed = 0;
nodes = (
(107,700,l),
(107,0,l)
);
},
{
attr = {
strokeWidth = 2;
};
closed = 0;
nodes = (
(136,700,l),
(136,0,l)
);
},
{
attr = {
strokeWidth = 2;
};
closed = 0;
nodes = (
(164,700,l),
(164,0,l)
);
},
{
attr = {
strokeWidth = 2;
};
closed = 0;
nodes = (
(193,700,l),
(193,0,l)
);
},
{
attr = {
strokeWidth = 2;
};
closed = 0;
nodes = (
(220,700,l),
(220,0,l)
);
}
);
width = 271;
},
{
layerId = "D0DEFB70-7D0D-4B44-B499-5072819829F5";
shapes = (
{
attr = {
strokeWidth = 2;
};
closed = 0;
nodes = (
(51,700,l),
(51,0,l)
);
},
{
attr = {
strokeWidth = 2;
};
closed = 0;
nodes = (
(89,700,l),
(89,0,l)
);
},
{
attr = {
strokeWidth = 2;
};
closed = 0;
nodes = (
(131,700,l),
(131,0,l)
);
},
{
attr = {
strokeWidth = 2;
};
closed = 0;
nodes = (
(172,700,l),
(172,0,l)
);
},
{
attr = {
strokeWidth = 2;
};
closed = 0;
nodes = (
(212,700,l),
(212,0,l)
);
},
{
attr = {
strokeWidth = 2;
};
closed = 0;
nodes = (
(254,700,l),
(254,0,l)
);
},
{
attr = {
strokeWidth = 2;
};
closed = 0;
nodes = (
(292,700,l),
(292,0,l)
);
}
);
width = 343;
},
{
layerId = "8A987DE3-647B-4085-B6E8-CB46751612E3";
width = 600;
}
);
unicode = 73;
},
{
glyphname = J;
lastChange = "2022-04-19 19:11:18 +0000";
layers = (
{
layerId = m01;
shapes = (
{
attr = {
strokeWidth = 2;
};
closed = 0;
nodes = (
(326,700,l),
(326,146,l)
);
},
{
attr = {
strokeWidth = 2;
};
closed = 0;
nodes = (
(299,73,l),
(299,700,l)
);
},
{
attr = {
strokeWidth = 2;
};
closed = 0;
nodes = (
(270,700,l),
(270,41,l)
);
},
{
attr = {
strokeWidth = 2;
};
closed = 0;
nodes = (
(244,21,l),
(244,700,l)
);
},
{
attr = {
strokeWidth = 2;
};
closed = 0;
nodes = (
(217,700,l),
(217,9,l)
);
},
{
attr = {
strokeWidth = 2;
};
closed = 0;
nodes = (
(187,2,l),
(187,700,l)
);
},
{
attr = {
strokeWidth = 2;
};
closed = 0;
nodes = (
(160,700,l),
(160,-3,l)
);
},
{
attr = {
strokeWidth = 2;
};
closed = 0;
nodes = (
(131,-5,l),
(131,161,l)
);
},
{
attr = {
strokeWidth = 2;
};
closed = 0;
nodes = (
(104,151,l),
(104,-5,l)
);
},
{
attr = {
strokeWidth = 2;
};
closed = 0;
nodes = (
(75,-5,l),
(75,151,l)
);
},
{
attr = {
strokeWidth = 2;
};
closed = 0;
nodes = (
(48,154,l),
(48,0,l)
);
},
{
attr = {
strokeWidth = 2;
};
closed = 0;
nodes = (
(21,161,l),
(21,5,l)
);
}
);
width = 347;
},
{
layerId = "D0DEFB70-7D0D-4B44-B499-5072819829F5";
shapes = (
{
attr = {
strokeWidth = 2;
};
closed = 0;
nodes = (
(486,700,l),
(486,146,l)
);
},
{
attr = {
strokeWidth = 2;
};
closed = 0;
nodes = (
(448,73,l),
(448,700,l)
);
},
{
attr = {
strokeWidth = 2;
};
closed = 0;
nodes = (
(406,700,l),
(406,41,l)
);
},
{
attr = {
strokeWidth = 2;
};
closed = 0;
nodes = (
(369,21,l),
(369,700,l)
);
},
{
attr = {
strokeWidth = 2;
};
closed = 0;
nodes = (
(331,700,l),
(331,9,l)
);
},
{
attr = {
strokeWidth = 2;
};
closed = 0;
nodes = (
(288,2,l),
(288,700,l)
);
},
{
attr = {
strokeWidth = 2;
};
closed = 0;
nodes = (
(249,700,l),
(249,-3,l)
);
},
{
attr = {
strokeWidth = 2;
};
closed = 0;
nodes = (
(208,-5,l),
(208,161,l)
);
},
{
attr = {
strokeWidth = 2;
};
closed = 0;
nodes = (
(169,151,l),
(169,-5,l)
);
},
{
attr = {
strokeWidth = 2;
};
closed = 0;
nodes = (
(128,-5,l),
(128,151,l)
);
},
{
attr = {
strokeWidth = 2;
};
closed = 0;
nodes = (
(89,154,l),
(89,0,l)
);
},
{
attr = {
strokeWidth = 2;
};
closed = 0;
nodes = (
(51,161,l),
(51,5,l)
);
}
);
width = 537;
},
{
layerId = "8A987DE3-647B-4085-B6E8-CB46751612E3";
width = 600;
}
);
unicode = 74;
},
{
glyphname = K;
lastChange = "2022-04-19 19:11:18 +0000";
layers = (
{
layerId = m01;
shapes = (
{
attr = {
strokeWidth = 2;
};
closed = 0;
nodes = (
(51,700,l),
(51,0,l)
);
},
{
attr = {
strokeWidth = 2;
};
closed = 0;
nodes = (
(81,700,l),
(81,0,l)
);
},
{
attr = {
strokeWidth = 2;
};
closed = 0;
nodes = (
(110,700,l),
(110,0,l)
);
},
{
attr = {
strokeWidth = 2;
};
closed = 0;
nodes = (
(139,700,l),
(139,0,l)
);
},
{
attr = {
strokeWidth = 2;
};
closed = 0;
nodes = (
(166,700,l),
(166,0,l)
);
},
{
attr = {
strokeWidth = 2;
};
closed = 0;
nodes = (
(195,700,l),
(195,0,l)
);
},
{
attr = {
strokeWidth = 2;
};
closed = 0;
nodes = (
(225,700,l),
(225,0,l)
);
},
{
attr = {
strokeWidth = 2;
};
closed = 0;
nodes = (
(252,470,l),
(252,243,l)
);
},
{
attr = {
strokeWidth = 2;
};
closed = 0;
nodes = (
(281,203,l),
(281,507,l)
);
},
{
attr = {
strokeWidth = 2;
};
closed = 0;
nodes = (
(311,546,l),
(311,164,l)
);
},
{
attr = {
strokeWidth = 2;
};
closed = 0;
nodes = (
(338,125,l),
(338,583,l)
);
},
{
attr = {
strokeWidth = 2;
};
closed = 0;
nodes = (
(367,623,l),
(367,380,l)
);
},
{
attr = {
strokeWidth = 2;
};
closed = 0;
nodes = (
(367,353,l),
(367,85,l)
);
},
{
attr = {
strokeWidth = 2;
};
closed = 0;
nodes = (
(396,313,l),
(396,44,l)
);
},
{
attr = {
strokeWidth = 2;
};
closed = 0;
nodes = (
(423,5,l),
(423,275,l)
);
},
{
attr = {
strokeWidth = 2;
};
closed = 0;
nodes = (
(453,235,l),
(453,0,l)
);
},
{
attr = {
strokeWidth = 2;
};
closed = 0;
nodes = (
(481,0,l),
(481,196,l)
);
},
{
attr = {
strokeWidth = 2;
};
closed = 0;
nodes = (
(508,157,l),
(508,0,l)
);
},
{
attr = {
strokeWidth = 2;
};
closed = 0;
nodes = (
(538,0,l),
(538,117,l)
);
},
{
attr = {
strokeWidth = 2;
};
closed = 0;
nodes = (
(568,78,l),
(568,0,l)
);
},
{
attr = {
strokeWidth = 2;
};
closed = 0;
nodes = (
(595,39,l),
(595,0,l)
);
},
{
attr = {
strokeWidth = 2;
};
closed = 0;
nodes = (
(624,15,l),
(624,0,l)
);
},
{
attr = {
strokeWidth = 2;
};
closed = 0;
nodes = (
(396,417,l),
(396,660,l)
);
},
{
attr = {
strokeWidth = 2;
};
closed = 0;
nodes = (
(423,695,l),
(423,453,l)
);
},
{
attr = {
strokeWidth = 2;
};
closed = 0;
nodes = (
(453,490,l),
(453,700,l)
);
},
{
attr = {
strokeWidth = 2;
};
closed = 0;
nodes = (
(481,700,l),
(481,528,l)
);
},
{
attr = {
strokeWidth = 2;
};
closed = 0;
nodes = (
(508,563,l),
(508,700,l)
);
},
{
attr = {
strokeWidth = 2;
};
closed = 0;
nodes = (
(538,700,l),
(538,600,l)
);
},
{
attr = {
strokeWidth = 2;
};
closed = 0;
nodes = (
(568,635,l),
(568,700,l)
);
},
{
attr = {
strokeWidth = 2;
};
closed = 0;
nodes = (
(595,700,l),
(595,671,l)
);
}
);
width = 675;
},
{
layerId = "D0DEFB70-7D0D-4B44-B499-5072819829F5";
shapes = (
{
attr = {
strokeWidth = 2;
};
closed = 0;
nodes = (
(51,700,l),
(51,0,l)
);
},
{
attr = {
strokeWidth = 2;
};
closed = 0;
nodes = (
(94,700,l),
(94,0,l)
);
},
{
attr = {
strokeWidth = 2;
};
closed = 0;
nodes = (
(136,700,l),
(136,0,l)
);
},
{
attr = {
strokeWidth = 2;
};
closed = 0;
nodes = (
(177,700,l),
(177,0,l)
);
},
{
attr = {
strokeWidth = 2;
};
closed = 0;
nodes = (
(216,700,l),
(216,0,l)
);
},
{
attr = {
strokeWidth = 2;
};
closed = 0;
nodes = (
(257,700,l),
(257,0,l)
);
},
{
attr = {
strokeWidth = 2;
};
closed = 0;
nodes = (
(300,700,l),
(300,0,l)
);
},
{
attr = {
strokeWidth = 2;
};
closed = 0;
nodes = (
(338,470,l),
(338,243,l)
);
},
{
attr = {
strokeWidth = 2;
};
closed = 0;
nodes = (
(380,203,l),
(380,507,l)
);
},
{
attr = {
strokeWidth = 2;
};
closed = 0;
nodes = (
(423,546,l),
(423,164,l)
);
},
{
attr = {
strokeWidth = 2;
};
closed = 0;
nodes = (
(461,125,l),
(461,583,l)
);
},
{
attr = {
strokeWidth = 2;
};
closed = 0;
nodes = (
(503,623,l),
(503,380,l)
);
},
{
attr = {
strokeWidth = 2;
};
closed = 0;
nodes = (
(503,353,l),
(503,85,l)
);
},
{
attr = {
strokeWidth = 2;
};
closed = 0;
nodes = (
(544,313,l),
(544,44,l)
);
},
{
attr = {
strokeWidth = 2;
};
closed = 0;
nodes = (
(583,5,l),
(583,275,l)
);
},
{
attr = {
strokeWidth = 2;
};
closed = 0;
nodes = (
(626,235,l),
(626,0,l)
);
},
{
attr = {
strokeWidth = 2;
};
closed = 0;
nodes = (
(666,0,l),
(666,196,l)
);
},
{
attr = {
strokeWidth = 2;
};
closed = 0;
nodes = (
(704,157,l),
(704,0,l)
);
},
{
attr = {
strokeWidth = 2;
};
closed = 0;
nodes = (
(747,0,l),
(747,117,l)
);
},
{
attr = {
strokeWidth = 2;
};
closed = 0;
nodes = (
(790,78,l),
(790,0,l)
);
},
{
attr = {
strokeWidth = 2;
};
closed = 0;
nodes = (
(828,39,l),
(828,0,l)
);
},
{
attr = {
strokeWidth = 2;
};
closed = 0;
nodes = (
(870,15,l),
(870,0,l)
);
},
{
attr = {
strokeWidth = 2;
};
closed = 0;
nodes = (
(544,417,l),
(544,660,l)
);
},
{
attr = {
strokeWidth = 2;
};
closed = 0;
nodes = (
(583,695,l),
(583,453,l)
);
},
{
attr = {
strokeWidth = 2;
};
closed = 0;
nodes = (
(626,490,l),
(626,700,l)
);
},
{
attr = {
strokeWidth = 2;
};
closed = 0;
nodes = (
(666,700,l),
(666,528,l)
);
},
{
attr = {
strokeWidth = 2;
};
closed = 0;
nodes = (
(704,563,l),
(704,700,l)
);
},
{
attr = {
strokeWidth = 2;
};
closed = 0;
nodes = (
(747,700,l),
(747,600,l)
);
},
{
attr = {
strokeWidth = 2;
};
closed = 0;
nodes = (
(790,635,l),
(790,700,l)
);
},
{
attr = {
strokeWidth = 2;
};
closed = 0;
nodes = (
(828,700,l),
(828,671,l)
);
}
);
width = 921;
},
{
layerId = "8A987DE3-647B-4085-B6E8-CB46751612E3";
width = 600;
}
);
unicode = 75;
},
{
glyphname = L;
lastChange = "2022-04-19 19:11:18 +0000";
layers = (
{
layerId = m01;
shapes = (
{
attr = {
strokeWidth = 2;
};
closed = 0;
nodes = (
(51,700,l),
(51,0,l)
);
},
{
attr = {
strokeWidth = 2;
};
closed = 0;
nodes = (
(80,700,l),
(80,0,l)
);
},
{
attr = {
strokeWidth = 2;
};
closed = 0;
nodes = (
(110,700,l),
(110,0,l)
);
},
{
attr = {
strokeWidth = 2;
};
closed = 0;
nodes = (
(139,700,l),
(139,0,l)
);
},
{
attr = {
strokeWidth = 2;
};
closed = 0;
nodes = (
(169,700,l),
(169,0,l)
);
},
{
attr = {
strokeWidth = 2;
};
closed = 0;
nodes = (
(198,700,l),
(198,0,l)
);
},
{
attr = {
strokeWidth = 2;
};
closed = 0;
nodes = (
(227,700,l),
(227,0,l)
);
},
{
attr = {
strokeWidth = 2;
};
closed = 0;
nodes = (
(257,152,l),
(257,0,l)
);
},
{
attr = {
strokeWidth = 2;
};
closed = 0;
nodes = (
(286,152,l),
(286,0,l)
);
},
{
attr = {
strokeWidth = 2;
};
closed = 0;
nodes = (
(315,152,l),
(315,0,l)
);
},
{
attr = {
strokeWidth = 2;
};
closed = 0;
nodes = (
(345,152,l),
(345,0,l)
);
},
{
attr = {
strokeWidth = 2;
};
closed = 0;
nodes = (
(374,152,l),
(374,0,l)
);
},
{
attr = {
strokeWidth = 2;
};
closed = 0;
nodes = (
(404,152,l),
(404,0,l)
);
},
{
attr = {
strokeWidth = 2;
};
closed = 0;
nodes = (
(433,152,l),
(433,0,l)
);
}
);
width = 484;
},
{
layerId = "D0DEFB70-7D0D-4B44-B499-5072819829F5";
shapes = (
{
attr = {
strokeWidth = 2;
};
closed = 0;
nodes = (
(51,700,l),
(51,0,l)
);
},
{
attr = {
strokeWidth = 2;
};
closed = 0;
nodes = (
(93,700,l),
(93,0,l)
);
},
{
attr = {
strokeWidth = 2;
};
closed = 0;
nodes = (
(135,700,l),
(135,0,l)
);
},
{
attr = {
strokeWidth = 2;
};
closed = 0;
nodes = (
(177,700,l),
(177,0,l)
);
},
{
attr = {
strokeWidth = 2;
};
closed = 0;
nodes = (
(220,700,l),
(220,0,l)
);
},
{
attr = {
strokeWidth = 2;
};
closed = 0;
nodes = (
(261,700,l),
(261,0,l)
);
},
{
attr = {
strokeWidth = 2;
};
closed = 0;
nodes = (
(303,700,l),
(303,0,l)
);
},
{
attr = {
strokeWidth = 2;
};
closed = 0;
nodes = (
(345,152,l),
(345,0,l)
);
},
{
attr = {
strokeWidth = 2;
};
closed = 0;
nodes = (
(387,152,l),
(387,0,l)
);
},
{
attr = {
strokeWidth = 2;
};
closed = 0;
nodes = (
(428,152,l),
(428,0,l)
);
},
{
attr = {
strokeWidth = 2;
};
closed = 0;
nodes = (
(471,152,l),
(471,0,l)
);
},
{
attr = {
strokeWidth = 2;
};
closed = 0;
nodes = (
(513,152,l),
(513,0,l)
);
},
{
attr = {
strokeWidth = 2;
};
closed = 0;
nodes = (
(555,152,l),
(555,0,l)
);
},
{
attr = {
strokeWidth = 2;
};
closed = 0;
nodes = (
(597,152,l),
(597,0,l)
);
}
);
width = 648;
},
{
layerId = "8A987DE3-647B-4085-B6E8-CB46751612E3";
width = 600;
}
);
unicode = 76;
},
{
glyphname = M;
lastChange = "2022-04-19 19:11:18 +0000";
layers = (
{
layerId = m01;
shapes = (
{
attr = {
strokeWidth = 2;
};
closed = 0;
nodes = (
(51,700,l),
(51,0,l)
);
},
{
attr = {
strokeWidth = 2;
};
closed = 0;
nodes = (
(80,700,l),
(80,0,l)
);
},
{
attr = {
strokeWidth = 2;
};
closed = 0;
nodes = (
(107,700,l),
(107,0,l)
);
},
{
attr = {
strokeWidth = 2;
};
closed = 0;
nodes = (
(137,700,l),
(137,0,l)
);
},
{
attr = {
strokeWidth = 2;
};
closed = 0;
nodes = (
(164,700,l),
(164,0,l)
);
},
{
attr = {
strokeWidth = 2;
};
closed = 0;
nodes = (
(702,700,l),
(702,0,l)
);
},
{
attr = {
strokeWidth = 2;
};
closed = 0;
nodes = (
(729,700,l),
(729,0,l)
);
},
{
attr = {
strokeWidth = 2;
};
closed = 0;
nodes = (
(758,700,l),
(758,0,l)
);
},
{
attr = {
strokeWidth = 2;
};
closed = 0;
nodes = (
(785,700,l),
(785,0,l)
);
},
{
attr = {
strokeWidth = 2;
};
closed = 0;
nodes = (
(814,700,l),
(814,0,l)
);
},
{
attr = {
strokeWidth = 2;
};
closed = 0;
nodes = (
(844,700,l),
(844,0,l)
);
},
{
attr = {
strokeWidth = 2;
};
closed = 0;
nodes = (
(193,700,l),
(193,0,l)
);
},
{
attr = {
strokeWidth = 2;
};
closed = 0;
nodes = (
(672,700,l),
(672,440,l)
);
},
{
attr = {
strokeWidth = 2;
};
closed = 0;
nodes = (
(220,700,l),
(220,445,l)
);
},
{
attr = {
strokeWidth = 2;
};
closed = 0;
nodes = (
(249,700,l),
(249,372,l)
);
},
{
attr = {
strokeWidth = 2;
};
closed = 0;
nodes = (
(645,700,l),
(645,372,l)
);
},
{
attr = {
strokeWidth = 2;
};
closed = 0;
nodes = (
(276,692,l),
(276,298,l)
);
},
{
attr = {
strokeWidth = 2;
};
closed = 0;
nodes = (
(616,685,l),
(616,294,l)
);
},
{
attr = {
strokeWidth = 2;
};
closed = 0;
nodes = (
(305,619,l),
(305,225,l)
);
},
{
attr = {
strokeWidth = 2;
};
closed = 0;
nodes = (
(589,614,l),
(589,220,l)
);
},
{
attr = {
strokeWidth = 2;
};
closed = 0;
nodes = (
(335,546,l),
(335,149,l)
);
},
{
attr = {
strokeWidth = 2;
};
closed = 0;
nodes = (
(560,543,l),
(560,147,l)
);
},
{
attr = {
strokeWidth = 2;
};
closed = 0;
nodes = (
(362,76,l),
(362,475,l)
);
},
{
attr = {
strokeWidth = 2;
};
closed = 0;
nodes = (
(530,73,l),
(530,472,l)
);
},
{
attr = {
strokeWidth = 2;
};
closed = 0;
nodes = (
(391,401,l),
(391,59,l)
);
},
{
attr = {
strokeWidth = 2;
};
closed = 0;
nodes = (
(504,399,l),
(504,56,l)
);
},
{
attr = {
strokeWidth = 2;
};
closed = 0;
nodes = (
(418,59,l),
(418,330,l)
);
},
{
attr = {
strokeWidth = 2;
};
closed = 0;
nodes = (
(474,59,l),
(474,330,l)
);
},
{
attr = {
strokeWidth = 2;
};
closed = 0;
nodes = (
(447,257,l),
(447,59,l)
);
}
);
width = 895;
},
{
layerId = "D0DEFB70-7D0D-4B44-B499-5072819829F5";
shapes = (
{
attr = {
strokeWidth = 2;
};
closed = 0;
nodes = (
(51,700,l),
(51,0,l)
);
},
{
attr = {
strokeWidth = 2;
};
closed = 0;
nodes = (
(93,700,l),
(93,0,l)
);
},
{
attr = {
strokeWidth = 2;
};
closed = 0;
nodes = (
(131,700,l),
(131,0,l)
);
},
{
attr = {
strokeWidth = 2;
};
closed = 0;
nodes = (
(174,700,l),
(174,0,l)
);
},
{
attr = {
strokeWidth = 2;
};
closed = 0;
nodes = (
(213,700,l),
(213,0,l)
);
},
{
attr = {
strokeWidth = 2;
};
closed = 0;
nodes = (
(981,700,l),
(981,0,l)
);
},
{
attr = {
strokeWidth = 2;
};
closed = 0;
nodes = (
(1020,700,l),
(1020,0,l)
);
},
{
attr = {
strokeWidth = 2;
};
closed = 0;
nodes = (
(1061,700,l),
(1061,0,l)
);
},
{
attr = {
strokeWidth = 2;
};
closed = 0;
nodes = (
(1100,700,l),
(1100,0,l)
);
},
{
attr = {
strokeWidth = 2;
};
closed = 0;
nodes = (
(1141,700,l),
(1141,0,l)
);
},
{
attr = {
strokeWidth = 2;
};
closed = 0;
nodes = (
(1184,700,l),
(1184,0,l)
);
},
{
attr = {
strokeWidth = 2;
};
closed = 0;
nodes = (
(254,700,l),
(254,0,l)
);
},
{
attr = {
strokeWidth = 2;
};
closed = 0;
nodes = (
(938,700,l),
(938,440,l)
);
},
{
attr = {
strokeWidth = 2;
};
closed = 0;
nodes = (
(293,700,l),
(293,445,l)
);
},
{
attr = {
strokeWidth = 2;
};
closed = 0;
nodes = (
(334,700,l),
(334,372,l)
);
},
{
attr = {
strokeWidth = 2;
};
closed = 0;
nodes = (
(900,700,l),
(900,372,l)
);
},
{
attr = {
strokeWidth = 2;
};
closed = 0;
nodes = (
(373,692,l),
(373,298,l)
);
},
{
attr = {
strokeWidth = 2;
};
closed = 0;
nodes = (
(858,685,l),
(858,294,l)
);
},
{
attr = {
strokeWidth = 2;
};
closed = 0;
nodes = (
(414,619,l),
(414,225,l)
);
},
{
attr = {
strokeWidth = 2;
};
closed = 0;
nodes = (
(820,614,l),
(820,220,l)
);
},
{
attr = {
strokeWidth = 2;
};
closed = 0;
nodes = (
(457,546,l),
(457,149,l)
);
},
{
attr = {
strokeWidth = 2;
};
closed = 0;
nodes = (
(778,543,l),
(778,147,l)
);
},
{
attr = {
strokeWidth = 2;
};
closed = 0;
nodes = (
(495,76,l),
(495,475,l)
);
},
{
attr = {
strokeWidth = 2;
};
closed = 0;
nodes = (
(735,73,l),
(735,472,l)
);
},
{
attr = {
strokeWidth = 2;
};
closed = 0;
nodes = (
(537,401,l),
(537,59,l)
);
},
{
attr = {
strokeWidth = 2;
};
closed = 0;
nodes = (
(698,399,l),
(698,56,l)
);
},
{
attr = {
strokeWidth = 2;
};
closed = 0;
nodes = (
(575,59,l),
(575,330,l)
);
},
{
attr = {
strokeWidth = 2;
};
closed = 0;
nodes = (
(655,59,l),
(655,330,l)
);
},
{
attr = {
strokeWidth = 2;
};
closed = 0;
nodes = (
(617,257,l),
(617,59,l)
);
}
);
width = 1235;
},
{
layerId = "8A987DE3-647B-4085-B6E8-CB46751612E3";
width = 600;
}
);
unicode = 77;
},
{
glyphname = N;
lastChange = "2022-04-19 19:11:18 +0000";
layers = (
{
layerId = m01;
shapes = (
{
attr = {
strokeWidth = 2;
};
closed = 0;
nodes = (
(51,700,l),
(51,0,l)
);
},
{
attr = {
strokeWidth = 2;
};
closed = 0;
nodes = (
(78,700,l),
(78,0,l)
);
},
{
attr = {
strokeWidth = 2;
};
closed = 0;
nodes = (
(107,700,l),
(107,0,l)
);
},
{
attr = {
strokeWidth = 2;
};
closed = 0;
nodes = (
(134,700,l),
(134,0,l)
);
},
{
attr = {
strokeWidth = 2;
};
closed = 0;
nodes = (
(164,700,l),
(164,0,l)
);
},
{
attr = {
strokeWidth = 2;
};
closed = 0;
nodes = (
(193,700,l),
(193,0,l)
);
},
{
attr = {
strokeWidth = 2;
};
closed = 0;
nodes = (
(649,700,l),
(649,0,l)
);
},
{
attr = {
strokeWidth = 2;
};
closed = 0;
nodes = (
(619,700,l),
(619,0,l)
);
},
{
attr = {
strokeWidth = 2;
};
closed = 0;
nodes = (
(590,700,l),
(590,0,l)
);
},
{
attr = {
strokeWidth = 2;
};
closed = 0;
nodes = (
(563,700,l),
(563,0,l)
);
},
{
attr = {
strokeWidth = 2;
};
closed = 0;
nodes = (
(533,700,l),
(533,0,l)
);
},
{
attr = {
strokeWidth = 2;
};
closed = 0;
nodes = (
(506,700,l),
(506,0,l)
);
},
{
attr = {
strokeWidth = 2;
};
closed = 0;
nodes = (
(220,700,l),
(220,423,l)
);
},
{
attr = {
strokeWidth = 2;
};
closed = 0;
nodes = (
(477,272,l),
(477,0,l)
);
},
{
attr = {
strokeWidth = 2;
};
closed = 0;
nodes = (
(250,657,l),
(250,377,l)
);
},
{
attr = {
strokeWidth = 2;
};
closed = 0;
nodes = (
(279,331,l),
(279,608,l)
);
},
{
attr = {
strokeWidth = 2;
};
closed = 0;
nodes = (
(306,560,l),
(306,283,l)
);
},
{
attr = {
strokeWidth = 2;
};
closed = 0;
nodes = (
(334,235,l),
(334,512,l)
);
},
{
attr = {
strokeWidth = 2;
};
closed = 0;
nodes = (
(361,463,l),
(361,188,l)
);
},
{
attr = {
strokeWidth = 2;
};
closed = 0;
nodes = (
(391,417,l),
(391,142,l)
);
},
{
attr = {
strokeWidth = 2;
};
closed = 0;
nodes = (
(420,367,l),
(420,95,l)
);
},
{
attr = {
strokeWidth = 2;
};
closed = 0;
nodes = (
(447,318,l),
(447,49,l)
);
}
);
width = 700;
},
{
layerId = "D0DEFB70-7D0D-4B44-B499-5072819829F5";
shapes = (
{
attr = {
strokeWidth = 2;
};
closed = 0;
nodes = (
(51,700,l),
(51,0,l)
);
},
{
attr = {
strokeWidth = 2;
};
closed = 0;
nodes = (
(89,700,l),
(89,0,l)
);
},
{
attr = {
strokeWidth = 2;
};
closed = 0;
nodes = (
(131,700,l),
(131,0,l)
);
},
{
attr = {
strokeWidth = 2;
};
closed = 0;
nodes = (
(169,700,l),
(169,0,l)
);
},
{
attr = {
strokeWidth = 2;
};
closed = 0;
nodes = (
(212,700,l),
(212,0,l)
);
},
{
attr = {
strokeWidth = 2;
};
closed = 0;
nodes = (
(254,700,l),
(254,0,l)
);
},
{
attr = {
strokeWidth = 2;
};
closed = 0;
nodes = (
(905,700,l),
(905,0,l)
);
},
{
attr = {
strokeWidth = 2;
};
closed = 0;
nodes = (
(862,700,l),
(862,0,l)
);
},
{
attr = {
strokeWidth = 2;
};
closed = 0;
nodes = (
(821,700,l),
(821,0,l)
);
},
{
attr = {
strokeWidth = 2;
};
closed = 0;
nodes = (
(782,700,l),
(782,0,l)
);
},
{
attr = {
strokeWidth = 2;
};
closed = 0;
nodes = (
(739,700,l),
(739,0,l)
);
},
{
attr = {
strokeWidth = 2;
};
closed = 0;
nodes = (
(701,700,l),
(701,0,l)
);
},
{
attr = {
strokeWidth = 2;
};
closed = 0;
nodes = (
(292,700,l),
(292,423,l)
);
},
{
attr = {
strokeWidth = 2;
};
closed = 0;
nodes = (
(659,272,l),
(659,0,l)
);
},
{
attr = {
strokeWidth = 2;
};
closed = 0;
nodes = (
(335,657,l),
(335,377,l)
);
},
{
attr = {
strokeWidth = 2;
};
closed = 0;
nodes = (
(377,331,l),
(377,608,l)
);
},
{
attr = {
strokeWidth = 2;
};
closed = 0;
nodes = (
(415,560,l),
(415,283,l)
);
},
{
attr = {
strokeWidth = 2;
};
closed = 0;
nodes = (
(455,235,l),
(455,512,l)
);
},
{
attr = {
strokeWidth = 2;
};
closed = 0;
nodes = (
(494,463,l),
(494,188,l)
);
},
{
attr = {
strokeWidth = 2;
};
closed = 0;
nodes = (
(537,417,l),
(537,142,l)
);
},
{
attr = {
strokeWidth = 2;
};
closed = 0;
nodes = (
(578,367,l),
(578,95,l)
);
},
{
attr = {
strokeWidth = 2;
};
closed = 0;
nodes = (
(617,318,l),
(617,49,l)
);
}
);
width = 956;
},
{
layerId = "8A987DE3-647B-4085-B6E8-CB46751612E3";
width = 600;
}
);
unicode = 78;
},
{
glyphname = O;
lastChange = "2022-04-19 19:11:18 +0000";
layers = (
{
layerId = m01;
shapes = (
{
attr = {
strokeWidth = 2;
};
closed = 0;
nodes = (
(51,398,l),
(51,308,l)
);
},
{
attr = {
strokeWidth = 2;
};
closed = 0;
nodes = (
(760,398,l),
(760,308,l)
);
},
{
attr = {
strokeWidth = 2;
};
closed = 0;
nodes = (
(78,494,l),
(78,204,l)
);
},
{
attr = {
strokeWidth = 2;
};
closed = 0;
nodes = (
(107,150,l),
(107,548,l)
);
},
{
attr = {
strokeWidth = 2;
};
closed = 0;
nodes = (
(135,585,l),
(135,112,l)
);
},
{
attr = {
strokeWidth = 2;
};
closed = 0;
nodes = (
(164,84,l),
(164,614,l)
);
},
{
attr = {
strokeWidth = 2;
};
closed = 0;
nodes = (
(192,637,l),
(192,61,l)
);
},
{
attr = {
strokeWidth = 2;
};
closed = 0;
nodes = (
(220,44,l),
(220,654,l)
);
},
{
attr = {
strokeWidth = 2;
};
closed = 0;
nodes = (
(249,669,l),
(249,455,l)
);
},
{
attr = {
strokeWidth = 2;
};
closed = 0;
nodes = (
(277,680,l),
(277,494,l)
);
},
{
attr = {
strokeWidth = 2;
};
closed = 0;
nodes = (
(306,688,l),
(306,517,l)
);
},
{
attr = {
strokeWidth = 2;
};
closed = 0;
nodes = (
(334,694,l),
(334,532,l)
);
},
{
attr = {
strokeWidth = 2;
};
closed = 0;
nodes = (
(362,540,l),
(362,700,l)
);
},
{
attr = {
strokeWidth = 2;
};
closed = 0;
nodes = (
(391,700,l),
(391,545,l)
);
},
{
attr = {
strokeWidth = 2;
};
closed = 0;
nodes = (
(420,700,l),
(420,545,l)
);
},
{
attr = {
strokeWidth = 2;
};
closed = 0;
nodes = (
(449,700,l),
(449,540,l)
);
},
{
attr = {
strokeWidth = 2;
};
closed = 0;
nodes = (
(477,694,l),
(477,532,l)
);
},
{
attr = {
strokeWidth = 2;
};
closed = 0;
nodes = (
(505,688,l),
(505,517,l)
);
},
{
attr = {
strokeWidth = 2;
};
closed = 0;
nodes = (
(534,680,l),
(534,495,l)
);
},
{
attr = {
strokeWidth = 2;
};
closed = 0;
nodes = (
(562,669,l),
(562,457,l)
);
},
{
attr = {
strokeWidth = 2;
};
closed = 0;
nodes = (
(591,655,l),
(591,43,l)
);
},
{
attr = {
strokeWidth = 2;
};
closed = 0;
nodes = (
(618,61,l),
(618,637,l)
);
},
{
attr = {
strokeWidth = 2;
};
closed = 0;
nodes = (
(646,615,l),
(646,83,l)
);
},
{
attr = {
strokeWidth = 2;
};
closed = 0;
nodes = (
(675,112,l),
(675,586,l)
);
},
{
attr = {
strokeWidth = 2;
};
closed = 0;
nodes = (
(703,549,l),
(703,148,l)
);
},
{
attr = {
strokeWidth = 2;
};
closed = 0;
nodes = (
(732,202,l),
(732,496,l)
);
},
{
attr = {
strokeWidth = 2;
};
closed = 0;
nodes = (
(249,29,l),
(249,243,l)
);
},
{
attr = {
strokeWidth = 2;
};
closed = 0;
nodes = (
(277,205,l),
(277,18,l)
);
},
{
attr = {
strokeWidth = 2;
};
closed = 0;
nodes = (
(306,181,l),
(306,10,l)
);
},
{
attr = {
strokeWidth = 2;
};
closed = 0;
nodes = (
(334,167,l),
(334,3,l)
);
},
{
attr = {
strokeWidth = 2;
};
closed = 0;
nodes = (
(362,157,l),
(362,-2,l)
);
},
{
attr = {
strokeWidth = 2;
};
closed = 0;
nodes = (
(391,153,l),
(391,-2,l)
);
},
{
attr = {
strokeWidth = 2;
};
closed = 0;
nodes = (
(420,153,l),
(420,-2,l)
);
},
{
attr = {
strokeWidth = 2;
};
closed = 0;
nodes = (
(449,156,l),
(449,-2,l)
);
},
{
attr = {
strokeWidth = 2;
};
closed = 0;
nodes = (
(477,167,l),
(477,3,l)
);
},
{
attr = {
strokeWidth = 2;
};
closed = 0;
nodes = (
(505,180,l),
(505,10,l)
);
},
{
attr = {
strokeWidth = 2;
};
closed = 0;
nodes = (
(562,241,l),
(562,29,l)
);
},
{
attr = {
strokeWidth = 2;
};
closed = 0;
nodes = (
(534,203,l),
(534,18,l)
);
}
);
width = 811;
},
{
layerId = "D0DEFB70-7D0D-4B44-B499-5072819829F5";
shapes = (
{
attr = {
strokeWidth = 2;
};
closed = 0;
nodes = (
(51,398,l),
(51,308,l)
);
},
{
attr = {
strokeWidth = 2;
};
closed = 0;
nodes = (
(1064,398,l),
(1064,308,l)
);
},
{
attr = {
strokeWidth = 2;
};
closed = 0;
nodes = (
(90,494,l),
(90,204,l)
);
},
{
attr = {
strokeWidth = 2;
};
closed = 0;
nodes = (
(131,150,l),
(131,548,l)
);
},
{
attr = {
strokeWidth = 2;
};
closed = 0;
nodes = (
(171,585,l),
(171,112,l)
);
},
{
attr = {
strokeWidth = 2;
};
closed = 0;
nodes = (
(213,84,l),
(213,614,l)
);
},
{
attr = {
strokeWidth = 2;
};
closed = 0;
nodes = (
(253,637,l),
(253,61,l)
);
},
{
attr = {
strokeWidth = 2;
};
closed = 0;
nodes = (
(293,44,l),
(293,654,l)
);
},
{
attr = {
strokeWidth = 2;
};
closed = 0;
nodes = (
(334,669,l),
(334,455,l)
);
},
{
attr = {
strokeWidth = 2;
};
closed = 0;
nodes = (
(374,680,l),
(374,494,l)
);
},
{
attr = {
strokeWidth = 2;
};
closed = 0;
nodes = (
(415,688,l),
(415,517,l)
);
},
{
attr = {
strokeWidth = 2;
};
closed = 0;
nodes = (
(455,694,l),
(455,532,l)
);
},
{
attr = {
strokeWidth = 2;
};
closed = 0;
nodes = (
(495,540,l),
(495,700,l)
);
},
{
attr = {
strokeWidth = 2;
};
closed = 0;
nodes = (
(537,700,l),
(537,545,l)
);
},
{
attr = {
strokeWidth = 2;
};
closed = 0;
nodes = (
(578,700,l),
(578,545,l)
);
},
{
attr = {
strokeWidth = 2;
};
closed = 0;
nodes = (
(620,700,l),
(620,540,l)
);
},
{
attr = {
strokeWidth = 2;
};
closed = 0;
nodes = (
(660,694,l),
(660,532,l)
);
},
{
attr = {
strokeWidth = 2;
};
closed = 0;
nodes = (
(700,688,l),
(700,517,l)
);
},
{
attr = {
strokeWidth = 2;
};
closed = 0;
nodes = (
(741,680,l),
(741,495,l)
);
},
{
attr = {
strokeWidth = 2;
};
closed = 0;
nodes = (
(781,669,l),
(781,457,l)
);
},
{
attr = {
strokeWidth = 2;
};
closed = 0;
nodes = (
(823,655,l),
(823,43,l)
);
},
{
attr = {
strokeWidth = 2;
};
closed = 0;
nodes = (
(861,61,l),
(861,637,l)
);
},
{
attr = {
strokeWidth = 2;
};
closed = 0;
nodes = (
(901,615,l),
(901,83,l)
);
},
{
attr = {
strokeWidth = 2;
};
closed = 0;
nodes = (
(942,112,l),
(942,586,l)
);
},
{
attr = {
strokeWidth = 2;
};
closed = 0;
nodes = (
(982,549,l),
(982,148,l)
);
},
{
attr = {
strokeWidth = 2;
};
closed = 0;
nodes = (
(1024,202,l),
(1024,496,l)
);
},
{
attr = {
strokeWidth = 2;
};
closed = 0;
nodes = (
(334,29,l),
(334,243,l)
);
},
{
attr = {
strokeWidth = 2;
};
closed = 0;
nodes = (
(374,205,l),
(374,18,l)
);
},
{
attr = {
strokeWidth = 2;
};
closed = 0;
nodes = (
(415,181,l),
(415,10,l)
);
},
{
attr = {
strokeWidth = 2;
};
closed = 0;
nodes = (
(455,167,l),
(455,3,l)
);
},
{
attr = {
strokeWidth = 2;
};
closed = 0;
nodes = (
(495,157,l),
(495,-2,l)
);
},
{
attr = {
strokeWidth = 2;
};
closed = 0;
nodes = (
(537,153,l),
(537,-2,l)
);
},
{
attr = {
strokeWidth = 2;
};
closed = 0;
nodes = (
(578,153,l),
(578,-2,l)
);
},
{
attr = {
strokeWidth = 2;
};
closed = 0;
nodes = (
(620,156,l),
(620,-2,l)
);
},
{
attr = {
strokeWidth = 2;
};
closed = 0;
nodes = (
(660,167,l),
(660,3,l)
);
},
{
attr = {
strokeWidth = 2;
};
closed = 0;
nodes = (
(700,180,l),
(700,10,l)
);
},
{
attr = {
strokeWidth = 2;
};
closed = 0;
nodes = (
(781,241,l),
(781,29,l)
);
},
{
attr = {
strokeWidth = 2;
};
closed = 0;
nodes = (
(741,203,l),
(741,18,l)
);
}
);
width = 1115;
},
{
layerId = "8A987DE3-647B-4085-B6E8-CB46751612E3";
width = 600;
}
);
unicode = 79;
},
{
glyphname = P;
lastChange = "2022-04-19 19:11:18 +0000";
layers = (
{
layerId = m01;
shapes = (
{
attr = {
strokeWidth = 2;
};
closed = 0;
nodes = (
(51,700,l),
(51,0,l)
);
},
{
attr = {
strokeWidth = 2;
};
closed = 0;
nodes = (
(80,700,l),
(80,0,l)
);
},
{
attr = {
strokeWidth = 2;
};
closed = 0;
nodes = (
(107,700,l),
(107,0,l)
);
},
{
attr = {
strokeWidth = 2;
};
closed = 0;
nodes = (
(137,700,l),
(137,0,l)
);
},
{
attr = {
strokeWidth = 2;
};
closed = 0;
nodes = (
(164,700,l),
(164,0,l)
);
},
{
attr = {
strokeWidth = 2;
};
closed = 0;
nodes = (
(193,700,l),
(193,0,l)
);
},
{
attr = {
strokeWidth = 2;
};
closed = 0;
nodes = (
(221,700,l),
(221,0,l)
);
},
{
attr = {
strokeWidth = 2;
};
closed = 0;
nodes = (
(249,700,l),
(249,552,l)
);
},
{
attr = {
strokeWidth = 2;
};
closed = 0;
nodes = (
(277,552,l),
(277,700,l)
);
},
{
attr = {
strokeWidth = 2;
};
closed = 0;
nodes = (
(305,700,l),
(305,549,l)
);
},
{
attr = {
strokeWidth = 2;
};
closed = 0;
nodes = (
(334,535,l),
(334,700,l)
);
},
{
attr = {
strokeWidth = 2;
};
closed = 0;
nodes = (
(364,696,l),
(364,251,l)
);
},
{
attr = {
strokeWidth = 2;
};
closed = 0;
nodes = (
(334,246,l),
(334,412,l)
);
},
{
attr = {
strokeWidth = 2;
};
closed = 0;
nodes = (
(305,246,l),
(305,396,l)
);
},
{
attr = {
strokeWidth = 2;
};
closed = 0;
nodes = (
(277,394,l),
(277,246,l)
);
},
{
attr = {
strokeWidth = 2;
};
closed = 0;
nodes = (
(249,246,l),
(249,394,l)
);
},
{
attr = {
strokeWidth = 2;
};
closed = 0;
nodes = (
(390,688,l),
(390,257,l)
);
},
{
attr = {
strokeWidth = 2;
};
closed = 0;
nodes = (
(417,270,l),
(417,679,l)
);
},
{
attr = {
strokeWidth = 2;
};
closed = 0;
nodes = (
(447,661,l),
(447,291,l)
);
},
{
attr = {
strokeWidth = 2;
};
closed = 0;
nodes = (
(473,314,l),
(473,637,l)
);
},
{
attr = {
strokeWidth = 2;
};
closed = 0;
nodes = (
(503,597,l),
(503,353,l)
);
},
{
attr = {
strokeWidth = 2;
};
closed = 0;
nodes = (
(530,438,l),
(530,514,l)
);
}
);
width = 581;
},
{
layerId = "D0DEFB70-7D0D-4B44-B499-5072819829F5";
shapes = (
{
attr = {
strokeWidth = 2;
};
closed = 0;
nodes = (
(51,700,l),
(51,0,l)
);
},
{
attr = {
strokeWidth = 2;
};
closed = 0;
nodes = (
(93,700,l),
(93,0,l)
);
},
{
attr = {
strokeWidth = 2;
};
closed = 0;
nodes = (
(131,700,l),
(131,0,l)
);
},
{
attr = {
strokeWidth = 2;
};
closed = 0;
nodes = (
(174,700,l),
(174,0,l)
);
},
{
attr = {
strokeWidth = 2;
};
closed = 0;
nodes = (
(213,700,l),
(213,0,l)
);
},
{
attr = {
strokeWidth = 2;
};
closed = 0;
nodes = (
(254,700,l),
(254,0,l)
);
},
{
attr = {
strokeWidth = 2;
};
closed = 0;
nodes = (
(294,700,l),
(294,0,l)
);
},
{
attr = {
strokeWidth = 2;
};
closed = 0;
nodes = (
(334,700,l),
(334,552,l)
);
},
{
attr = {
strokeWidth = 2;
};
closed = 0;
nodes = (
(374,552,l),
(374,700,l)
);
},
{
attr = {
strokeWidth = 2;
};
closed = 0;
nodes = (
(414,700,l),
(414,549,l)
);
},
{
attr = {
strokeWidth = 2;
};
closed = 0;
nodes = (
(456,535,l),
(456,700,l)
);
},
{
attr = {
strokeWidth = 2;
};
closed = 0;
nodes = (
(498,696,l),
(498,251,l)
);
},
{
attr = {
strokeWidth = 2;
};
closed = 0;
nodes = (
(456,246,l),
(456,412,l)
);
},
{
attr = {
strokeWidth = 2;
};
closed = 0;
nodes = (
(414,246,l),
(414,396,l)
);
},
{
attr = {
strokeWidth = 2;
};
closed = 0;
nodes = (
(374,394,l),
(374,246,l)
);
},
{
attr = {
strokeWidth = 2;
};
closed = 0;
nodes = (
(334,246,l),
(334,394,l)
);
},
{
attr = {
strokeWidth = 2;
};
closed = 0;
nodes = (
(536,688,l),
(536,257,l)
);
},
{
attr = {
strokeWidth = 2;
};
closed = 0;
nodes = (
(574,270,l),
(574,679,l)
);
},
{
attr = {
strokeWidth = 2;
};
closed = 0;
nodes = (
(617,661,l),
(617,291,l)
);
},
{
attr = {
strokeWidth = 2;
};
closed = 0;
nodes = (
(654,314,l),
(654,637,l)
);
},
{
attr = {
strokeWidth = 2;
};
closed = 0;
nodes = (
(697,597,l),
(697,353,l)
);
},
{
attr = {
strokeWidth = 2;
};
closed = 0;
nodes = (
(736,438,l),
(736,514,l)
);
}
);
width = 787;
},
{
layerId = "8A987DE3-647B-4085-B6E8-CB46751612E3";
width = 600;
}
);
unicode = 80;
},
{
glyphname = Q;
lastChange = "2022-04-19 19:11:18 +0000";
layers = (
{
layerId = m01;
shapes = (
{
attr = {
strokeWidth = 2;
};
closed = 0;
nodes = (
(51,395,l),
(51,305,l)
);
},
{
attr = {
strokeWidth = 2;
};
closed = 0;
nodes = (
(80,496,l),
(80,203,l)
);
},
{
attr = {
strokeWidth = 2;
};
closed = 0;
nodes = (
(107,550,l),
(107,147,l)
);
},
{
attr = {
strokeWidth = 2;
};
closed = 0;
nodes = (
(136,109,l),
(136,588,l)
);
},
{
attr = {
strokeWidth = 2;
};
closed = 0;
nodes = (
(165,618,l),
(165,80,l)
);
},
{
attr = {
strokeWidth = 2;
};
closed = 0;
nodes = (
(192,58,l),
(192,639,l)
);
},
{
attr = {
strokeWidth = 2;
};
closed = 0;
nodes = (
(221,659,l),
(221,38,l)
);
},
{
attr = {
strokeWidth = 2;
};
closed = 0;
nodes = (
(250,24,l),
(250,249,l)
);
},
{
attr = {
strokeWidth = 2;
};
closed = 0;
nodes = (
(279,208,l),
(279,14,l)
);
},
{
attr = {
strokeWidth = 2;
};
closed = 0;
nodes = (
(305,181,l),
(305,5,l)
);
},
{
attr = {
strokeWidth = 2;
};
closed = 0;
nodes = (
(334,164,l),
(334,-3,l)
);
},
{
attr = {
strokeWidth = 2;
};
closed = 0;
nodes = (
(364,-8,l),
(364,155,l)
);
},
{
attr = {
strokeWidth = 2;
};
closed = 0;
nodes = (
(390,150,l),
(390,-10,l)
);
},
{
attr = {
strokeWidth = 2;
};
closed = 0;
nodes = (
(419,-10,l),
(419,147,l)
);
},
{
attr = {
strokeWidth = 2;
};
closed = 0;
nodes = (
(448,152,l),
(448,-8,l)
);
},
{
attr = {
strokeWidth = 2;
};
closed = 0;
nodes = (
(475,-5,l),
(475,157,l)
);
},
{
attr = {
strokeWidth = 2;
};
closed = 0;
nodes = (
(475,174,l),
(475,266,l)
);
},
{
attr = {
strokeWidth = 2;
};
closed = 0;
nodes = (
(504,300,l),
(504,0,l)
);
},
{
attr = {
strokeWidth = 2;
};
closed = 0;
nodes = (
(533,7,l),
(533,324,l)
);
},
{
attr = {
strokeWidth = 2;
};
closed = 0;
nodes = (
(560,300,l),
(560,17,l)
);
},
{
attr = {
strokeWidth = 2;
};
closed = 0;
nodes = (
(589,276,l),
(589,29,l)
);
},
{
attr = {
strokeWidth = 2;
};
closed = 0;
nodes = (
(618,46,l),
(618,651,l)
);
},
{
attr = {
strokeWidth = 2;
};
closed = 0;
nodes = (
(589,668,l),
(589,424,l)
);
},
{
attr = {
strokeWidth = 2;
};
closed = 0;
nodes = (
(560,681,l),
(560,479,l)
);
},
{
attr = {
strokeWidth = 2;
};
closed = 0;
nodes = (
(533,509,l),
(533,690,l)
);
},
{
attr = {
strokeWidth = 2;
};
closed = 0;
nodes = (
(504,698,l),
(504,528,l)
);
},
{
attr = {
strokeWidth = 2;
};
closed = 0;
nodes = (
(475,540,l),
(475,705,l)
);
},
{
attr = {
strokeWidth = 2;
};
closed = 0;
nodes = (
(448,707,l),
(448,547,l)
);
},
{
attr = {
strokeWidth = 2;
};
closed = 0;
nodes = (
(419,550,l),
(419,707,l)
);
},
{
attr = {
strokeWidth = 2;
};
closed = 0;
nodes = (
(390,707,l),
(390,550,l)
);
},
{
attr = {
strokeWidth = 2;
};
closed = 0;
nodes = (
(364,542,l),
(364,705,l)
);
},
{
attr = {
strokeWidth = 2;
};
closed = 0;
nodes = (
(334,700,l),
(334,533,l)
);
},
{
attr = {
strokeWidth = 2;
};
closed = 0;
nodes = (
(305,516,l),
(305,695,l)
);
},
{
attr = {
strokeWidth = 2;
};
closed = 0;
nodes = (
(279,685,l),
(279,492,l)
);
},
{
attr = {
strokeWidth = 2;
};
closed = 0;
nodes = (
(250,673,l),
(250,450,l)
);
},
{
attr = {
strokeWidth = 2;
};
closed = 0;
nodes = (
(448,198,l),
(448,232,l)
);
},
{
attr = {
strokeWidth = 2;
};
closed = 0;
nodes = (
(645,24,l),
(645,632,l)
);
},
{
attr = {
strokeWidth = 2;
};
closed = 0;
nodes = (
(674,608,l),
(674,0,l)
);
},
{
attr = {
strokeWidth = 2;
};
closed = 0;
nodes = (
(703,5,l),
(703,576,l)
);
},
{
attr = {
strokeWidth = 2;
};
closed = 0;
nodes = (
(729,533,l),
(729,164,l)
);
},
{
attr = {
strokeWidth = 2;
};
closed = 0;
nodes = (
(729,152,l),
(729,38,l)
);
},
{
attr = {
strokeWidth = 2;
};
closed = 0;
nodes = (
(759,70,l),
(759,128,l)
);
},
{
attr = {
strokeWidth = 2;
};
closed = 0;
nodes = (
(788,87,l),
(788,116,l)
);
},
{
attr = {
strokeWidth = 2;
};
closed = 0;
nodes = (
(759,467,l),
(759,232,l)
);
}
);
width = 839;
},
{
layerId = "D0DEFB70-7D0D-4B44-B499-5072819829F5";
shapes = (
{
attr = {
strokeWidth = 2;
};
closed = 0;
nodes = (
(51,395,l),
(51,305,l)
);
},
{
attr = {
strokeWidth = 2;
};
closed = 0;
nodes = (
(93,496,l),
(93,203,l)
);
},
{
attr = {
strokeWidth = 2;
};
closed = 0;
nodes = (
(131,550,l),
(131,147,l)
);
},
{
attr = {
strokeWidth = 2;
};
closed = 0;
nodes = (
(173,109,l),
(173,588,l)
);
},
{
attr = {
strokeWidth = 2;
};
closed = 0;
nodes = (
(214,618,l),
(214,80,l)
);
},
{
attr = {
strokeWidth = 2;
};
closed = 0;
nodes = (
(253,58,l),
(253,639,l)
);
},
{
attr = {
strokeWidth = 2;
};
closed = 0;
nodes = (
(294,659,l),
(294,38,l)
);
},
{
attr = {
strokeWidth = 2;
};
closed = 0;
nodes = (
(335,24,l),
(335,249,l)
);
},
{
attr = {
strokeWidth = 2;
};
closed = 0;
nodes = (
(377,208,l),
(377,14,l)
);
},
{
attr = {
strokeWidth = 2;
};
closed = 0;
nodes = (
(414,181,l),
(414,5,l)
);
},
{
attr = {
strokeWidth = 2;
};
closed = 0;
nodes = (
(455,164,l),
(455,-3,l)
);
},
{
attr = {
strokeWidth = 2;
};
closed = 0;
nodes = (
(498,-8,l),
(498,155,l)
);
},
{
attr = {
strokeWidth = 2;
};
closed = 0;
nodes = (
(535,150,l),
(535,-10,l)
);
},
{
attr = {
strokeWidth = 2;
};
closed = 0;
nodes = (
(577,-10,l),
(577,147,l)
);
},
{
attr = {
strokeWidth = 2;
};
closed = 0;
nodes = (
(618,152,l),
(618,-8,l)
);
},
{
attr = {
strokeWidth = 2;
};
closed = 0;
nodes = (
(657,-5,l),
(657,157,l)
);
},
{
attr = {
strokeWidth = 2;
};
closed = 0;
nodes = (
(657,174,l),
(657,266,l)
);
},
{
attr = {
strokeWidth = 2;
};
closed = 0;
nodes = (
(698,300,l),
(698,0,l)
);
},
{
attr = {
strokeWidth = 2;
};
closed = 0;
nodes = (
(740,7,l),
(740,324,l)
);
},
{
attr = {
strokeWidth = 2;
};
closed = 0;
nodes = (
(778,300,l),
(778,17,l)
);
},
{
attr = {
strokeWidth = 2;
};
closed = 0;
nodes = (
(820,276,l),
(820,29,l)
);
},
{
attr = {
strokeWidth = 2;
};
closed = 0;
nodes = (
(861,46,l),
(861,651,l)
);
},
{
attr = {
strokeWidth = 2;
};
closed = 0;
nodes = (
(820,668,l),
(820,424,l)
);
},
{
attr = {
strokeWidth = 2;
};
closed = 0;
nodes = (
(778,681,l),
(778,479,l)
);
},
{
attr = {
strokeWidth = 2;
};
closed = 0;
nodes = (
(740,509,l),
(740,690,l)
);
},
{
attr = {
strokeWidth = 2;
};
closed = 0;
nodes = (
(698,698,l),
(698,528,l)
);
},
{
attr = {
strokeWidth = 2;
};
closed = 0;
nodes = (
(657,540,l),
(657,705,l)
);
},
{
attr = {
strokeWidth = 2;
};
closed = 0;
nodes = (
(618,707,l),
(618,547,l)
);
},
{
attr = {
strokeWidth = 2;
};
closed = 0;
nodes = (
(577,550,l),
(577,707,l)
);
},
{
attr = {
strokeWidth = 2;
};
closed = 0;
nodes = (
(535,707,l),
(535,550,l)
);
},
{
attr = {
strokeWidth = 2;
};
closed = 0;
nodes = (
(498,542,l),
(498,705,l)
);
},
{
attr = {
strokeWidth = 2;
};
closed = 0;
nodes = (
(455,700,l),
(455,533,l)
);
},
{
attr = {
strokeWidth = 2;
};
closed = 0;
nodes = (
(414,516,l),
(414,695,l)
);
},
{
attr = {
strokeWidth = 2;
};
closed = 0;
nodes = (
(377,685,l),
(377,492,l)
);
},
{
attr = {
strokeWidth = 2;
};
closed = 0;
nodes = (
(335,673,l),
(335,450,l)
);
},
{
attr = {
strokeWidth = 2;
};
closed = 0;
nodes = (
(618,198,l),
(618,232,l)
);
},
{
attr = {
strokeWidth = 2;
};
closed = 0;
nodes = (
(900,24,l),
(900,632,l)
);
},
{
attr = {
strokeWidth = 2;
};
closed = 0;
nodes = (
(941,608,l),
(941,0,l)
);
},
{
attr = {
strokeWidth = 2;
};
closed = 0;
nodes = (
(982,5,l),
(982,576,l)
);
},
{
attr = {
strokeWidth = 2;
};
closed = 0;
nodes = (
(1020,533,l),
(1020,164,l)
);
},
{
attr = {
strokeWidth = 2;
};
closed = 0;
nodes = (
(1020,152,l),
(1020,38,l)
);
},
{
attr = {
strokeWidth = 2;
};
closed = 0;
nodes = (
(1063,70,l),
(1063,128,l)
);
},
{
attr = {
strokeWidth = 2;
};
closed = 0;
nodes = (
(1104,87,l),
(1104,116,l)
);
},
{
attr = {
strokeWidth = 2;
};
closed = 0;
nodes = (
(1063,467,l),
(1063,232,l)
);
}
);
width = 1155;
},
{
layerId = "8A987DE3-647B-4085-B6E8-CB46751612E3";
width = 600;
}
);
unicode = 81;
},
{
glyphname = R;
lastChange = "2022-04-19 19:11:18 +0000";
layers = (
{
layerId = m01;
shapes = (
{
attr = {
strokeWidth = 2;
};
closed = 0;
nodes = (
(51,700,l),
(51,0,l)
);
},
{
attr = {
strokeWidth = 2;
};
closed = 0;
nodes = (
(80,700,l),
(80,0,l)
);
},
{
attr = {
strokeWidth = 2;
};
closed = 0;
nodes = (
(107,700,l),
(107,0,l)
);
},
{
attr = {
strokeWidth = 2;
};
closed = 0;
nodes = (
(137,700,l),
(137,0,l)
);
},
{
attr = {
strokeWidth = 2;
};
closed = 0;
nodes = (
(164,700,l),
(164,0,l)
);
},
{
attr = {
strokeWidth = 2;
};
closed = 0;
nodes = (
(193,700,l),
(193,0,l)
);
},
{
attr = {
strokeWidth = 2;
};
closed = 0;
nodes = (
(220,700,l),
(220,0,l)
);
},
{
attr = {
strokeWidth = 2;
};
closed = 0;
nodes = (
(249,700,l),
(249,553,l)
);
},
{
attr = {
strokeWidth = 2;
};
closed = 0;
nodes = (
(276,553,l),
(276,700,l)
);
},
{
attr = {
strokeWidth = 2;
};
closed = 0;
nodes = (
(306,700,l),
(306,548,l)
);
},
{
attr = {
strokeWidth = 2;
};
closed = 0;
nodes = (
(335,529,l),
(335,698,l)
);
},
{
attr = {
strokeWidth = 2;
};
closed = 0;
nodes = (
(362,693,l),
(362,76,l)
);
},
{
attr = {
strokeWidth = 2;
};
closed = 0;
nodes = (
(249,401,l),
(249,259,l)
);
},
{
attr = {
strokeWidth = 2;
};
closed = 0;
nodes = (
(276,401,l),
(276,252,l)
);
},
{
attr = {
strokeWidth = 2;
};
closed = 0;
nodes = (
(306,409,l),
(306,193,l)
);
},
{
attr = {
strokeWidth = 2;
};
closed = 0;
nodes = (
(335,428,l),
(335,135,l)
);
},
{
attr = {
strokeWidth = 2;
};
closed = 0;
nodes = (
(391,685,l),
(391,17,l)
);
},
{
attr = {
strokeWidth = 2;
};
closed = 0;
nodes = (
(418,0,l),
(418,673,l)
);
},
{
attr = {
strokeWidth = 2;
};
closed = 0;
nodes = (
(448,656,l),
(448,313,l)
);
},
{
attr = {
strokeWidth = 2;
};
closed = 0;
nodes = (
(448,262,l),
(448,0,l)
);
},
{
attr = {
strokeWidth = 2;
};
closed = 0;
nodes = (
(474,632,l),
(474,340,l)
);
},
{
attr = {
strokeWidth = 2;
};
closed = 0;
nodes = (
(504,387,l),
(504,590,l)
);
},
{
attr = {
strokeWidth = 2;
};
closed = 0;
nodes = (
(474,211,l),
(474,0,l)
);
},
{
attr = {
strokeWidth = 2;
};
closed = 0;
nodes = (
(504,0,l),
(504,157,l)
);
},
{
attr = {
strokeWidth = 2;
};
closed = 0;
nodes = (
(531,105,l),
(531,0,l)
);
},
{
attr = {
strokeWidth = 2;
};
closed = 0;
nodes = (
(560,51,l),
(560,0,l)
);
},
{
attr = {
strokeWidth = 2;
};
closed = 0;
nodes = (
(587,17,l),
(587,0,l)
);
}
);
width = 638;
},
{
layerId = "D0DEFB70-7D0D-4B44-B499-5072819829F5";
shapes = (
{
attr = {
strokeWidth = 2;
};
closed = 0;
nodes = (
(51,700,l),
(51,0,l)
);
},
{
attr = {
strokeWidth = 2;
};
closed = 0;
nodes = (
(93,700,l),
(93,0,l)
);
},
{
attr = {
strokeWidth = 2;
};
closed = 0;
nodes = (
(131,700,l),
(131,0,l)
);
},
{
attr = {
strokeWidth = 2;
};
closed = 0;
nodes = (
(174,700,l),
(174,0,l)
);
},
{
attr = {
strokeWidth = 2;
};
closed = 0;
nodes = (
(213,700,l),
(213,0,l)
);
},
{
attr = {
strokeWidth = 2;
};
closed = 0;
nodes = (
(254,700,l),
(254,0,l)
);
},
{
attr = {
strokeWidth = 2;
};
closed = 0;
nodes = (
(293,700,l),
(293,0,l)
);
},
{
attr = {
strokeWidth = 2;
};
closed = 0;
nodes = (
(334,700,l),
(334,553,l)
);
},
{
attr = {
strokeWidth = 2;
};
closed = 0;
nodes = (
(373,553,l),
(373,700,l)
);
},
{
attr = {
strokeWidth = 2;
};
closed = 0;
nodes = (
(415,700,l),
(415,548,l)
);
},
{
attr = {
strokeWidth = 2;
};
closed = 0;
nodes = (
(457,529,l),
(457,698,l)
);
},
{
attr = {
strokeWidth = 2;
};
closed = 0;
nodes = (
(495,693,l),
(495,76,l)
);
},
{
attr = {
strokeWidth = 2;
};
closed = 0;
nodes = (
(334,401,l),
(334,259,l)
);
},
{
attr = {
strokeWidth = 2;
};
closed = 0;
nodes = (
(373,401,l),
(373,252,l)
);
},
{
attr = {
strokeWidth = 2;
};
closed = 0;
nodes = (
(415,409,l),
(415,193,l)
);
},
{
attr = {
strokeWidth = 2;
};
closed = 0;
nodes = (
(457,428,l),
(457,135,l)
);
},
{
attr = {
strokeWidth = 2;
};
closed = 0;
nodes = (
(537,685,l),
(537,17,l)
);
},
{
attr = {
strokeWidth = 2;
};
closed = 0;
nodes = (
(575,0,l),
(575,673,l)
);
},
{
attr = {
strokeWidth = 2;
};
closed = 0;
nodes = (
(618,656,l),
(618,313,l)
);
},
{
attr = {
strokeWidth = 2;
};
closed = 0;
nodes = (
(618,262,l),
(618,0,l)
);
},
{
attr = {
strokeWidth = 2;
};
closed = 0;
nodes = (
(655,632,l),
(655,340,l)
);
},
{
attr = {
strokeWidth = 2;
};
closed = 0;
nodes = (
(698,387,l),
(698,590,l)
);
},
{
attr = {
strokeWidth = 2;
};
closed = 0;
nodes = (
(655,211,l),
(655,0,l)
);
},
{
attr = {
strokeWidth = 2;
};
closed = 0;
nodes = (
(698,0,l),
(698,157,l)
);
},
{
attr = {
strokeWidth = 2;
};
closed = 0;
nodes = (
(737,105,l),
(737,0,l)
);
},
{
attr = {
strokeWidth = 2;
};
closed = 0;
nodes = (
(778,51,l),
(778,0,l)
);
},
{
attr = {
strokeWidth = 2;
};
closed = 0;
nodes = (
(817,17,l),
(817,0,l)
);
}
);
width = 868;
},
{
layerId = "8A987DE3-647B-4085-B6E8-CB46751612E3";
width = 600;
}
);
unicode = 82;
},
{
glyphname = S;
lastChange = "2022-04-19 19:11:18 +0000";
layers = (
{
layerId = m01;
shapes = (
{
attr = {
strokeWidth = 2;
};
closed = 0;
nodes = (
(79,570,l),
(79,442,l)
);
},
{
attr = {
strokeWidth = 2;
};
closed = 0;
nodes = (
(107,628,l),
(107,386,l)
);
},
{
attr = {
strokeWidth = 2;
};
closed = 0;
nodes = (
(136,659,l),
(136,355,l)
);
},
{
attr = {
strokeWidth = 2;
};
closed = 0;
nodes = (
(164,332,l),
(164,679,l)
);
},
{
attr = {
strokeWidth = 2;
};
closed = 0;
nodes = (
(192,693,l),
(192,314,l)
);
},
{
attr = {
strokeWidth = 2;
};
closed = 0;
nodes = (
(221,299,l),
(221,703,l)
);
},
{
attr = {
strokeWidth = 2;
};
closed = 0;
nodes = (
(249,709,l),
(249,535,l)
);
},
{
attr = {
strokeWidth = 2;
};
closed = 0;
nodes = (
(278,553,l),
(278,712,l)
);
},
{
attr = {
strokeWidth = 2;
};
closed = 0;
nodes = (
(306,713,l),
(306,555,l)
);
},
{
attr = {
strokeWidth = 2;
};
closed = 0;
nodes = (
(334,547,l),
(334,711,l)
);
},
{
attr = {
strokeWidth = 2;
};
closed = 0;
nodes = (
(363,706,l),
(363,523,l)
);
},
{
attr = {
strokeWidth = 2;
};
closed = 0;
nodes = (
(391,697,l),
(391,490,l)
);
},
{
attr = {
strokeWidth = 2;
};
closed = 0;
nodes = (
(419,503,l),
(419,684,l)
);
},
{
attr = {
strokeWidth = 2;
};
closed = 0;
nodes = (
(448,516,l),
(448,664,l)
);
},
{
attr = {
strokeWidth = 2;
};
closed = 0;
nodes = (
(476,637,l),
(476,529,l)
);
},
{
attr = {
strokeWidth = 2;
};
closed = 0;
nodes = (
(505,597,l),
(505,542,l)
);
},
{
attr = {
strokeWidth = 2;
};
closed = 0;
nodes = (
(249,482,l),
(249,285,l)
);
},
{
attr = {
strokeWidth = 2;
};
closed = 0;
nodes = (
(278,457,l),
(278,272,l)
);
},
{
attr = {
strokeWidth = 2;
};
closed = 0;
nodes = (
(306,258,l),
(306,441,l)
);
},
{
attr = {
strokeWidth = 2;
};
closed = 0;
nodes = (
(334,428,l),
(334,240,l)
);
},
{
attr = {
strokeWidth = 2;
};
closed = 0;
nodes = (
(363,415,l),
(363,-3,l)
);
},
{
attr = {
strokeWidth = 2;
};
closed = 0;
nodes = (
(391,401,l),
(391,5,l)
);
},
{
attr = {
strokeWidth = 2;
};
closed = 0;
nodes = (
(419,18,l),
(419,386,l)
);
},
{
attr = {
strokeWidth = 2;
};
closed = 0;
nodes = (
(448,368,l),
(448,35,l)
);
},
{
attr = {
strokeWidth = 2;
};
closed = 0;
nodes = (
(476,344,l),
(476,60,l)
);
},
{
attr = {
strokeWidth = 2;
};
closed = 0;
nodes = (
(505,310,l),
(505,99,l)
);
},
{
attr = {
strokeWidth = 2;
};
closed = 0;
nodes = (
(533,237,l),
(533,181,l)
);
},
{
attr = {
strokeWidth = 2;
};
closed = 0;
nodes = (
(334,154,l),
(334,-10,l)
);
},
{
attr = {
strokeWidth = 2;
};
closed = 0;
nodes = (
(306,147,l),
(306,-12,l)
);
},
{
attr = {
strokeWidth = 2;
};
closed = 0;
nodes = (
(278,149,l),
(278,-13,l)
);
},
{
attr = {
strokeWidth = 2;
};
closed = 0;
nodes = (
(249,-10,l),
(249,161,l)
);
},
{
attr = {
strokeWidth = 2;
};
closed = 0;
nodes = (
(221,184,l),
(221,-5,l)
);
},
{
attr = {
strokeWidth = 2;
};
closed = 0;
nodes = (
(192,224,l),
(192,4,l)
);
},
{
attr = {
strokeWidth = 2;
};
closed = 0;
nodes = (
(164,210,l),
(164,17,l)
);
},
{
attr = {
strokeWidth = 2;
};
closed = 0;
nodes = (
(136,35,l),
(136,196,l)
);
},
{
attr = {
strokeWidth = 2;
};
closed = 0;
nodes = (
(107,182,l),
(107,61,l)
);
},
{
attr = {
strokeWidth = 2;
};
closed = 0;
nodes = (
(79,168,l),
(79,97,l)
);
},
{
attr = {
strokeWidth = 2;
};
closed = 0;
nodes = (
(51,161,l),
(51,132,l)
);
}
);
width = 584;
},
{
layerId = "D0DEFB70-7D0D-4B44-B499-5072819829F5";
shapes = (
{
attr = {
strokeWidth = 2;
};
closed = 0;
nodes = (
(91,570,l),
(91,442,l)
);
},
{
attr = {
strokeWidth = 2;
};
closed = 0;
nodes = (
(131,628,l),
(131,386,l)
);
},
{
attr = {
strokeWidth = 2;
};
closed = 0;
nodes = (
(172,659,l),
(172,355,l)
);
},
{
attr = {
strokeWidth = 2;
};
closed = 0;
nodes = (
(212,332,l),
(212,679,l)
);
},
{
attr = {
strokeWidth = 2;
};
closed = 0;
nodes = (
(252,693,l),
(252,314,l)
);
},
{
attr = {
strokeWidth = 2;
};
closed = 0;
nodes = (
(294,299,l),
(294,703,l)
);
},
{
attr = {
strokeWidth = 2;
};
closed = 0;
nodes = (
(334,709,l),
(334,535,l)
);
},
{
attr = {
strokeWidth = 2;
};
closed = 0;
nodes = (
(375,553,l),
(375,712,l)
);
},
{
attr = {
strokeWidth = 2;
};
closed = 0;
nodes = (
(415,713,l),
(415,555,l)
);
},
{
attr = {
strokeWidth = 2;
};
closed = 0;
nodes = (
(455,547,l),
(455,711,l)
);
},
{
attr = {
strokeWidth = 2;
};
closed = 0;
nodes = (
(496,706,l),
(496,523,l)
);
},
{
attr = {
strokeWidth = 2;
};
closed = 0;
nodes = (
(536,697,l),
(536,490,l)
);
},
{
attr = {
strokeWidth = 2;
};
closed = 0;
nodes = (
(576,503,l),
(576,684,l)
);
},
{
attr = {
strokeWidth = 2;
};
closed = 0;
nodes = (
(618,516,l),
(618,664,l)
);
},
{
attr = {
strokeWidth = 2;
};
closed = 0;
nodes = (
(658,637,l),
(658,529,l)
);
},
{
attr = {
strokeWidth = 2;
};
closed = 0;
nodes = (
(699,597,l),
(699,542,l)
);
},
{
attr = {
strokeWidth = 2;
};
closed = 0;
nodes = (
(334,482,l),
(334,285,l)
);
},
{
attr = {
strokeWidth = 2;
};
closed = 0;
nodes = (
(375,457,l),
(375,272,l)
);
},
{
attr = {
strokeWidth = 2;
};
closed = 0;
nodes = (
(415,258,l),
(415,441,l)
);
},
{
attr = {
strokeWidth = 2;
};
closed = 0;
nodes = (
(455,428,l),
(455,240,l)
);
},
{
attr = {
strokeWidth = 2;
};
closed = 0;
nodes = (
(496,415,l),
(496,-3,l)
);
},
{
attr = {
strokeWidth = 2;
};
closed = 0;
nodes = (
(536,401,l),
(536,5,l)
);
},
{
attr = {
strokeWidth = 2;
};
closed = 0;
nodes = (
(576,18,l),
(576,386,l)
);
},
{
attr = {
strokeWidth = 2;
};
closed = 0;
nodes = (
(618,368,l),
(618,35,l)
);
},
{
attr = {
strokeWidth = 2;
};
closed = 0;
nodes = (
(658,344,l),
(658,60,l)
);
},
{
attr = {
strokeWidth = 2;
};
closed = 0;
nodes = (
(699,310,l),
(699,99,l)
);
},
{
attr = {
strokeWidth = 2;
};
closed = 0;
nodes = (
(739,237,l),
(739,181,l)
);
},
{
attr = {
strokeWidth = 2;
};
closed = 0;
nodes = (
(455,154,l),
(455,-10,l)
);
},
{
attr = {
strokeWidth = 2;
};
closed = 0;
nodes = (
(415,147,l),
(415,-12,l)
);
},
{
attr = {
strokeWidth = 2;
};
closed = 0;
nodes = (
(375,149,l),
(375,-13,l)
);
},
{
attr = {
strokeWidth = 2;
};
closed = 0;
nodes = (
(334,-10,l),
(334,161,l)
);
},
{
attr = {
strokeWidth = 2;
};
closed = 0;
nodes = (
(294,184,l),
(294,-5,l)
);
},
{
attr = {
strokeWidth = 2;
};
closed = 0;
nodes = (
(252,224,l),
(252,4,l)
);
},
{
attr = {
strokeWidth = 2;
};
closed = 0;
nodes = (
(212,210,l),
(212,17,l)
);
},
{
attr = {
strokeWidth = 2;
};
closed = 0;
nodes = (
(172,35,l),
(172,196,l)
);
},
{
attr = {
strokeWidth = 2;
};
closed = 0;
nodes = (
(131,182,l),
(131,61,l)
);
},
{
attr = {
strokeWidth = 2;
};
closed = 0;
nodes = (
(91,168,l),
(91,97,l)
);
},
{
attr = {
strokeWidth = 2;
};
closed = 0;
nodes = (
(51,161,l),
(51,132,l)
);
}
);
width = 790;
},
{
layerId = "8A987DE3-647B-4085-B6E8-CB46751612E3";
width = 600;
}
);
unicode = 83;
},
{
glyphname = T;
lastChange = "2022-04-19 19:11:18 +0000";
layers = (
{
layerId = m01;
shapes = (
{
attr = {
strokeWidth = 2;
};
closed = 0;
nodes = (
(218,700,l),
(218,0,l)
);
},
{
attr = {
strokeWidth = 2;
};
closed = 0;
nodes = (
(245,0,l),
(245,700,l)
);
},
{
attr = {
strokeWidth = 2;
};
closed = 0;
nodes = (
(273,0,l),
(273,700,l)
);
},
{
attr = {
strokeWidth = 2;
};
closed = 0;
nodes = (
(301,0,l),
(301,700,l)
);
},
{
attr = {
strokeWidth = 2;
};
closed = 0;
nodes = (
(329,0,l),
(329,700,l)
);
},
{
attr = {
strokeWidth = 2;
};
closed = 0;
nodes = (
(357,0,l),
(357,700,l)
);
},
{
attr = {
strokeWidth = 2;
};
closed = 0;
nodes = (
(384,700,l),
(384,546,l)
);
},
{
attr = {
strokeWidth = 2;
};
closed = 0;
nodes = (
(51,700,l),
(51,546,l)
);
},
{
attr = {
strokeWidth = 2;
};
closed = 0;
nodes = (
(79,700,l),
(79,546,l)
);
},
{
attr = {
strokeWidth = 2;
};
closed = 0;
nodes = (
(107,700,l),
(107,546,l)
);
},
{
attr = {
strokeWidth = 2;
};
closed = 0;
nodes = (
(134,700,l),
(134,546,l)
);
},
{
attr = {
strokeWidth = 2;
};
closed = 0;
nodes = (
(162,700,l),
(162,546,l)
);
},
{
attr = {
strokeWidth = 2;
};
closed = 0;
nodes = (
(190,700,l),
(190,546,l)
);
},
{
attr = {
strokeWidth = 2;
};
closed = 0;
nodes = (
(412,700,l),
(412,546,l)
);
},
{
attr = {
strokeWidth = 2;
};
closed = 0;
nodes = (
(440,700,l),
(440,546,l)
);
},
{
attr = {
strokeWidth = 2;
};
closed = 0;
nodes = (
(468,700,l),
(468,546,l)
);
},
{
attr = {
strokeWidth = 2;
};
closed = 0;
nodes = (
(495,700,l),
(495,546,l)
);
},
{
attr = {
strokeWidth = 2;
};
closed = 0;
nodes = (
(523,700,l),
(523,546,l)
);
}
);
width = 574;
},
{
layerId = "D0DEFB70-7D0D-4B44-B499-5072819829F5";
shapes = (
{
attr = {
strokeWidth = 2;
};
closed = 0;
nodes = (
(289,700,l),
(289,0,l)
);
},
{
attr = {
strokeWidth = 2;
};
closed = 0;
nodes = (
(328,0,l),
(328,700,l)
);
},
{
attr = {
strokeWidth = 2;
};
closed = 0;
nodes = (
(368,0,l),
(368,700,l)
);
},
{
attr = {
strokeWidth = 2;
};
closed = 0;
nodes = (
(408,0,l),
(408,700,l)
);
},
{
attr = {
strokeWidth = 2;
};
closed = 0;
nodes = (
(448,0,l),
(448,700,l)
);
},
{
attr = {
strokeWidth = 2;
};
closed = 0;
nodes = (
(488,0,l),
(488,700,l)
);
},
{
attr = {
strokeWidth = 2;
};
closed = 0;
nodes = (
(527,700,l),
(527,546,l)
);
},
{
attr = {
strokeWidth = 2;
};
closed = 0;
nodes = (
(51,700,l),
(51,546,l)
);
},
{
attr = {
strokeWidth = 2;
};
closed = 0;
nodes = (
(91,700,l),
(91,546,l)
);
},
{
attr = {
strokeWidth = 2;
};
closed = 0;
nodes = (
(131,700,l),
(131,546,l)
);
},
{
attr = {
strokeWidth = 2;
};
closed = 0;
nodes = (
(169,700,l),
(169,546,l)
);
},
{
attr = {
strokeWidth = 2;
};
closed = 0;
nodes = (
(209,700,l),
(209,546,l)
);
},
{
attr = {
strokeWidth = 2;
};
closed = 0;
nodes = (
(249,700,l),
(249,546,l)
);
},
{
attr = {
strokeWidth = 2;
};
closed = 0;
nodes = (
(567,700,l),
(567,546,l)
);
},
{
attr = {
strokeWidth = 2;
};
closed = 0;
nodes = (
(607,700,l),
(607,546,l)
);
},
{
attr = {
strokeWidth = 2;
};
closed = 0;
nodes = (
(647,700,l),
(647,546,l)
);
},
{
attr = {
strokeWidth = 2;
};
closed = 0;
nodes = (
(685,700,l),
(685,546,l)
);
},
{
attr = {
strokeWidth = 2;
};
closed = 0;
nodes = (
(725,700,l),
(725,546,l)
);
}
);
width = 776;
},
{
layerId = "8A987DE3-647B-4085-B6E8-CB46751612E3";
width = 600;
}
);
unicode = 84;
},
{
glyphname = U;
lastChange = "2022-04-19 19:11:18 +0000";
layers = (
{
layerId = m01;
shapes = (
{
attr = {
strokePos = 1;
strokeWidth = 2;
};
closed = 0;
nodes = (
(50,700,l),
(50,227,l)
);
},
{
attr = {
strokePos = 1;
strokeWidth = 2;
};
closed = 0;
nodes = (
(632,700,l),
(632,227,l)
);
},
{
attr = {
strokePos = 1;
strokeWidth = 2;
};
closed = 0;
nodes = (
(77,136,l),
(77,700,l)
);
},
{
attr = {
strokePos = 1;
strokeWidth = 2;
};
closed = 0;
nodes = (
(605,136,l),
(605,700,l)
);
},
{
attr = {
strokePos = 1;
strokeWidth = 2;
};
closed = 0;
nodes = (
(105,700,l),
(105,90,l)
);
},
{
attr = {
strokePos = 1;
strokeWidth = 2;
};
closed = 0;
nodes = (
(577,700,l),
(577,90,l)
);
},
{
attr = {
strokePos = 1;
strokeWidth = 2;
};
closed = 0;
nodes = (
(133,60,l),
(133,700,l)
);
},
{
attr = {
strokePos = 1;
strokeWidth = 2;
};
closed = 0;
nodes = (
(549,60,l),
(549,700,l)
);
},
{
attr = {
strokePos = 1;
strokeWidth = 2;
};
closed = 0;
nodes = (
(160,700,l),
(160,38,l)
);
},
{
attr = {
strokePos = 1;
strokeWidth = 2;
};
closed = 0;
nodes = (
(521,700,l),
(521,38,l)
);
},
{
attr = {
strokePos = 1;
strokeWidth = 2;
};
closed = 0;
nodes = (
(188,22,l),
(188,700,l)
);
},
{
attr = {
strokePos = 1;
strokeWidth = 2;
};
closed = 0;
nodes = (
(494,22,l),
(494,700,l)
);
},
{
attr = {
strokePos = 1;
strokeWidth = 2;
};
closed = 0;
nodes = (
(216,700,l),
(216,10,l)
);
},
{
attr = {
strokePos = 1;
strokeWidth = 2;
};
closed = 0;
nodes = (
(466,700,l),
(466,10,l)
);
},
{
attr = {
strokePos = 1;
strokeWidth = 2;
};
closed = 0;
nodes = (
(244,191,l),
(244,1,l)
);
},
{
attr = {
strokePos = 1;
strokeWidth = 2;
};
closed = 0;
nodes = (
(438,191,l),
(438,1,l)
);
},
{
attr = {
strokePos = 1;
strokeWidth = 2;
};
closed = 0;
nodes = (
(271,-5,l),
(271,165,l)
);
},
{
attr = {
strokePos = 1;
strokeWidth = 2;
};
closed = 0;
nodes = (
(410,-5,l),
(410,165,l)
);
},
{
attr = {
strokePos = 1;
strokeWidth = 2;
};
closed = 0;
nodes = (
(299,153,l),
(299,-8,l)
);
},
{
attr = {
strokePos = 1;
strokeWidth = 2;
};
closed = 0;
nodes = (
(327,-10,l),
(327,148,l)
);
},
{
attr = {
strokePos = 1;
strokeWidth = 2;
};
closed = 0;
nodes = (
(355,148,l),
(355,-10,l)
);
},
{
attr = {
strokePos = 1;
strokeWidth = 2;
};
closed = 0;
nodes = (
(382,-8,l),
(382,152,l)
);
}
);
width = 684;
},
{
layerId = "D0DEFB70-7D0D-4B44-B499-5072819829F5";
shapes = (
{
attr = {
strokePos = "1";
strokeWidth = 2;
};
closed = 0;
nodes = (
(50,700,l),
(50,227,l)
);
},
{
attr = {
strokePos = "1";
strokeWidth = 2;
};
closed = 0;
nodes = (
(882,700,l),
(882,227,l)
);
},
{
attr = {
strokePos = "1";
strokeWidth = 2;
};
closed = 0;
nodes = (
(89,136,l),
(89,700,l)
);
},
{
attr = {
strokePos = "1";
strokeWidth = 2;
};
closed = 0;
nodes = (
(843,136,l),
(843,700,l)
);
},
{
attr = {
strokePos = "1";
strokeWidth = 2;
};
closed = 0;
nodes = (
(129,700,l),
(129,90,l)
);
},
{
attr = {
strokePos = "1";
strokeWidth = 2;
};
closed = 0;
nodes = (
(803,700,l),
(803,90,l)
);
},
{
attr = {
strokePos = "1";
strokeWidth = 2;
};
closed = 0;
nodes = (
(169,60,l),
(169,700,l)
);
},
{
attr = {
strokePos = "1";
strokeWidth = 2;
};
closed = 0;
nodes = (
(763,60,l),
(763,700,l)
);
},
{
attr = {
strokePos = "1";
strokeWidth = 2;
};
closed = 0;
nodes = (
(207,700,l),
(207,38,l)
);
},
{
attr = {
strokePos = "1";
strokeWidth = 2;
};
closed = 0;
nodes = (
(723,700,l),
(723,38,l)
);
},
{
attr = {
strokePos = "1";
strokeWidth = 2;
};
closed = 0;
nodes = (
(247,22,l),
(247,700,l)
);
},
{
attr = {
strokePos = "1";
strokeWidth = 2;
};
closed = 0;
nodes = (
(685,22,l),
(685,700,l)
);
},
{
attr = {
strokePos = "1";
strokeWidth = 2;
};
closed = 0;
nodes = (
(287,700,l),
(287,10,l)
);
},
{
attr = {
strokePos = "1";
strokeWidth = 2;
};
closed = 0;
nodes = (
(645,700,l),
(645,10,l)
);
},
{
attr = {
strokePos = "1";
strokeWidth = 2;
};
closed = 0;
nodes = (
(327,191,l),
(327,1,l)
);
},
{
attr = {
strokePos = "1";
strokeWidth = 2;
};
closed = 0;
nodes = (
(605,191,l),
(605,1,l)
);
},
{
attr = {
strokePos = "1";
strokeWidth = 2;
};
closed = 0;
nodes = (
(366,-5,l),
(366,165,l)
);
},
{
attr = {
strokePos = "1";
strokeWidth = 2;
};
closed = 0;
nodes = (
(565,-5,l),
(565,165,l)
);
},
{
attr = {
strokePos = "1";
strokeWidth = 2;
};
closed = 0;
nodes = (
(406,153,l),
(406,-8,l)
);
},
{
attr = {
strokePos = "1";
strokeWidth = 2;
};
closed = 0;
nodes = (
(446,-10,l),
(446,148,l)
);
},
{
attr = {
strokePos = "1";
strokeWidth = 2;
};
closed = 0;
nodes = (
(486,148,l),
(486,-10,l)
);
},
{
attr = {
strokePos = "1";
strokeWidth = 2;
};
closed = 0;
nodes = (
(525,-8,l),
(525,152,l)
);
}
);
width = 934;
},
{
layerId = "8A987DE3-647B-4085-B6E8-CB46751612E3";
width = 600;
}
);
unicode = 85;
},
{
glyphname = V;
lastChange = "2022-04-19 19:11:18 +0000";
layers = (
{
layerId = m01;
shapes = (
{
attr = {
strokeWidth = 2;
};
closed = 0;
nodes = (
(80,622,l),
(80,700,l)
);
},
{
attr = {
strokeWidth = 2;
};
closed = 0;
nodes = (
(715,622,l),
(715,700,l)
);
},
{
attr = {
strokeWidth = 2;
};
closed = 0;
nodes = (
(108,700,l),
(108,542,l)
);
},
{
attr = {
strokeWidth = 2;
};
closed = 0;
nodes = (
(686,700,l),
(686,542,l)
);
},
{
attr = {
strokeWidth = 2;
};
closed = 0;
nodes = (
(137,700,l),
(137,462,l)
);
},
{
attr = {
strokeWidth = 2;
};
closed = 0;
nodes = (
(657,700,l),
(657,462,l)
);
},
{
attr = {
strokeWidth = 2;
};
closed = 0;
nodes = (
(166,700,l),
(166,382,l)
);
},
{
attr = {
strokeWidth = 2;
};
closed = 0;
nodes = (
(628,700,l),
(628,382,l)
);
},
{
attr = {
strokeWidth = 2;
};
closed = 0;
nodes = (
(195,700,l),
(195,302,l)
);
},
{
attr = {
strokeWidth = 2;
};
closed = 0;
nodes = (
(599,700,l),
(599,302,l)
);
},
{
attr = {
strokeWidth = 2;
};
closed = 0;
nodes = (
(224,222,l),
(224,700,l)
);
},
{
attr = {
strokeWidth = 2;
};
closed = 0;
nodes = (
(570,222,l),
(570,700,l)
);
},
{
attr = {
strokeWidth = 2;
};
closed = 0;
nodes = (
(252,657,l),
(252,142,l)
);
},
{
attr = {
strokeWidth = 2;
};
closed = 0;
nodes = (
(542,657,l),
(542,142,l)
);
},
{
attr = {
strokeWidth = 2;
};
closed = 0;
nodes = (
(281,566,l),
(281,62,l)
);
},
{
attr = {
strokeWidth = 2;
};
closed = 0;
nodes = (
(513,566,l),
(513,62,l)
);
},
{
attr = {
strokeWidth = 2;
};
closed = 0;
nodes = (
(310,475,l),
(310,0,l)
);
},
{
attr = {
strokeWidth = 2;
};
closed = 0;
nodes = (
(339,385,l),
(339,0,l)
);
},
{
attr = {
strokeWidth = 2;
};
closed = 0;
nodes = (
(368,0,l),
(368,293,l)
);
},
{
attr = {
strokeWidth = 2;
};
closed = 0;
nodes = (
(397,202,l),
(397,0,l)
);
},
{
attr = {
strokeWidth = 2;
};
closed = 0;
nodes = (
(426,293,l),
(426,0,l)
);
},
{
attr = {
strokeWidth = 2;
};
closed = 0;
nodes = (
(455,0,l),
(455,385,l)
);
},
{
attr = {
strokeWidth = 2;
};
closed = 0;
nodes = (
(484,475,l),
(484,0,l)
);
},
{
attr = {
strokeWidth = 2;
};
closed = 0;
nodes = (
(743,674,l),
(743,700,l)
);
},
{
attr = {
strokeWidth = 2;
};
closed = 0;
nodes = (
(51,674,l),
(51,700,l)
);
}
);
width = 794;
},
{
layerId = "D0DEFB70-7D0D-4B44-B499-5072819829F5";
shapes = (
{
attr = {
strokeWidth = 2;
};
closed = 0;
nodes = (
(92,622,l),
(92,700,l)
);
},
{
attr = {
strokeWidth = 2;
};
closed = 0;
nodes = (
(999,622,l),
(999,700,l)
);
},
{
attr = {
strokeWidth = 2;
};
closed = 0;
nodes = (
(132,700,l),
(132,542,l)
);
},
{
attr = {
strokeWidth = 2;
};
closed = 0;
nodes = (
(958,700,l),
(958,542,l)
);
},
{
attr = {
strokeWidth = 2;
};
closed = 0;
nodes = (
(174,700,l),
(174,462,l)
);
},
{
attr = {
strokeWidth = 2;
};
closed = 0;
nodes = (
(916,700,l),
(916,462,l)
);
},
{
attr = {
strokeWidth = 2;
};
closed = 0;
nodes = (
(215,700,l),
(215,382,l)
);
},
{
attr = {
strokeWidth = 2;
};
closed = 0;
nodes = (
(875,700,l),
(875,382,l)
);
},
{
attr = {
strokeWidth = 2;
};
closed = 0;
nodes = (
(256,700,l),
(256,302,l)
);
},
{
attr = {
strokeWidth = 2;
};
closed = 0;
nodes = (
(834,700,l),
(834,302,l)
);
},
{
attr = {
strokeWidth = 2;
};
closed = 0;
nodes = (
(298,222,l),
(298,700,l)
);
},
{
attr = {
strokeWidth = 2;
};
closed = 0;
nodes = (
(792,222,l),
(792,700,l)
);
},
{
attr = {
strokeWidth = 2;
};
closed = 0;
nodes = (
(338,657,l),
(338,142,l)
);
},
{
attr = {
strokeWidth = 2;
};
closed = 0;
nodes = (
(752,657,l),
(752,142,l)
);
},
{
attr = {
strokeWidth = 2;
};
closed = 0;
nodes = (
(379,566,l),
(379,62,l)
);
},
{
attr = {
strokeWidth = 2;
};
closed = 0;
nodes = (
(711,566,l),
(711,62,l)
);
},
{
attr = {
strokeWidth = 2;
};
closed = 0;
nodes = (
(421,475,l),
(421,0,l)
);
},
{
attr = {
strokeWidth = 2;
};
closed = 0;
nodes = (
(462,385,l),
(462,0,l)
);
},
{
attr = {
strokeWidth = 2;
};
closed = 0;
nodes = (
(504,0,l),
(504,293,l)
);
},
{
attr = {
strokeWidth = 2;
};
closed = 0;
nodes = (
(545,202,l),
(545,0,l)
);
},
{
attr = {
strokeWidth = 2;
};
closed = 0;
nodes = (
(586,293,l),
(586,0,l)
);
},
{
attr = {
strokeWidth = 2;
};
closed = 0;
nodes = (
(628,0,l),
(628,385,l)
);
},
{
attr = {
strokeWidth = 2;
};
closed = 0;
nodes = (
(669,475,l),
(669,0,l)
);
},
{
attr = {
strokeWidth = 2;
};
closed = 0;
nodes = (
(1039,674,l),
(1039,700,l)
);
},
{
attr = {
strokeWidth = 2;
};
closed = 0;
nodes = (
(51,674,l),
(51,700,l)
);
}
);
width = 1090;
},
{
layerId = "8A987DE3-647B-4085-B6E8-CB46751612E3";
width = 600;
}
);
unicode = 86;
},
{
glyphname = W;
lastChange = "2022-04-19 19:11:18 +0000";
layers = (
{
layerId = m01;
shapes = (
{
attr = {
strokeWidth = 2;
};
closed = 0;
nodes = (
(483,700,l),
(483,216,l)
);
},
{
attr = {
strokeWidth = 2;
};
closed = 0;
nodes = (
(599,700,l),
(599,216,l)
);
},
{
attr = {
strokeWidth = 2;
};
closed = 0;
nodes = (
(512,328,l),
(512,700,l)
);
},
{
attr = {
strokeWidth = 2;
};
closed = 0;
nodes = (
(454,663,l),
(454,103,l)
);
},
{
attr = {
strokeWidth = 2;
};
closed = 0;
nodes = (
(627,663,l),
(627,103,l)
);
},
{
attr = {
strokeWidth = 2;
};
closed = 0;
nodes = (
(425,548,l),
(425,0,l)
);
},
{
attr = {
strokeWidth = 2;
};
closed = 0;
nodes = (
(656,548,l),
(656,0,l)
);
},
{
attr = {
strokeWidth = 2;
};
closed = 0;
nodes = (
(397,0,l),
(397,432,l)
);
},
{
attr = {
strokeWidth = 2;
};
closed = 0;
nodes = (
(685,0,l),
(685,432,l)
);
},
{
attr = {
strokeWidth = 2;
};
closed = 0;
nodes = (
(368,317,l),
(368,0,l)
);
},
{
attr = {
strokeWidth = 2;
};
closed = 0;
nodes = (
(714,317,l),
(714,0,l)
);
},
{
attr = {
strokeWidth = 2;
};
closed = 0;
nodes = (
(339,0,l),
(339,216,l)
);
},
{
attr = {
strokeWidth = 2;
};
closed = 0;
nodes = (
(742,0,l),
(742,216,l)
);
},
{
attr = {
strokeWidth = 2;
};
closed = 0;
nodes = (
(310,348,l),
(310,0,l)
);
},
{
attr = {
strokeWidth = 2;
};
closed = 0;
nodes = (
(771,348,l),
(771,0,l)
);
},
{
attr = {
strokeWidth = 2;
};
closed = 0;
nodes = (
(282,0,l),
(282,482,l)
);
},
{
attr = {
strokeWidth = 2;
};
closed = 0;
nodes = (
(800,0,l),
(800,482,l)
);
},
{
attr = {
strokeWidth = 2;
};
closed = 0;
nodes = (
(253,616,l),
(253,0,l)
);
},
{
attr = {
strokeWidth = 2;
};
closed = 0;
nodes = (
(829,616,l),
(829,0,l)
);
},
{
attr = {
strokeWidth = 2;
};
closed = 0;
nodes = (
(223,37,l),
(223,700,l)
);
},
{
attr = {
strokeWidth = 2;
};
closed = 0;
nodes = (
(857,37,l),
(857,700,l)
);
},
{
attr = {
strokeWidth = 2;
};
closed = 0;
nodes = (
(195,700,l),
(195,147,l)
);
},
{
attr = {
strokeWidth = 2;
};
closed = 0;
nodes = (
(886,700,l),
(886,147,l)
);
},
{
attr = {
strokeWidth = 2;
};
closed = 0;
nodes = (
(166,259,l),
(166,700,l)
);
},
{
attr = {
strokeWidth = 2;
};
closed = 0;
nodes = (
(915,259,l),
(915,700,l)
);
},
{
attr = {
strokeWidth = 2;
};
closed = 0;
nodes = (
(137,700,l),
(137,369,l)
);
},
{
attr = {
strokeWidth = 2;
};
closed = 0;
nodes = (
(944,700,l),
(944,369,l)
);
},
{
attr = {
strokeWidth = 2;
};
closed = 0;
nodes = (
(108,480,l),
(108,700,l)
);
},
{
attr = {
strokeWidth = 2;
};
closed = 0;
nodes = (
(973,480,l),
(973,700,l)
);
},
{
attr = {
strokeWidth = 2;
};
closed = 0;
nodes = (
(80,700,l),
(80,591,l)
);
},
{
attr = {
strokeWidth = 2;
};
closed = 0;
nodes = (
(1002,700,l),
(1002,591,l)
);
},
{
attr = {
strokeWidth = 2;
};
closed = 0;
nodes = (
(51,669,l),
(51,700,l)
);
},
{
attr = {
strokeWidth = 2;
};
closed = 0;
nodes = (
(1031,669,l),
(1031,700,l)
);
},
{
attr = {
strokeWidth = 2;
};
closed = 0;
nodes = (
(540,438,l),
(540,700,l)
);
},
{
attr = {
strokeWidth = 2;
};
closed = 0;
nodes = (
(569,700,l),
(569,328,l)
);
}
);
width = 1082;
},
{
layerId = "D0DEFB70-7D0D-4B44-B499-5072819829F5";
shapes = (
{
attr = {
strokeWidth = 2;
};
closed = 0;
nodes = (
(668,700,l),
(668,216,l)
);
},
{
attr = {
strokeWidth = 2;
};
closed = 0;
nodes = (
(834,700,l),
(834,216,l)
);
},
{
attr = {
strokeWidth = 2;
};
closed = 0;
nodes = (
(710,328,l),
(710,700,l)
);
},
{
attr = {
strokeWidth = 2;
};
closed = 0;
nodes = (
(627,663,l),
(627,103,l)
);
},
{
attr = {
strokeWidth = 2;
};
closed = 0;
nodes = (
(874,663,l),
(874,103,l)
);
},
{
attr = {
strokeWidth = 2;
};
closed = 0;
nodes = (
(585,548,l),
(585,0,l)
);
},
{
attr = {
strokeWidth = 2;
};
closed = 0;
nodes = (
(915,548,l),
(915,0,l)
);
},
{
attr = {
strokeWidth = 2;
};
closed = 0;
nodes = (
(545,0,l),
(545,432,l)
);
},
{
attr = {
strokeWidth = 2;
};
closed = 0;
nodes = (
(957,0,l),
(957,432,l)
);
},
{
attr = {
strokeWidth = 2;
};
closed = 0;
nodes = (
(504,317,l),
(504,0,l)
);
},
{
attr = {
strokeWidth = 2;
};
closed = 0;
nodes = (
(998,317,l),
(998,0,l)
);
},
{
attr = {
strokeWidth = 2;
};
closed = 0;
nodes = (
(462,0,l),
(462,216,l)
);
},
{
attr = {
strokeWidth = 2;
};
closed = 0;
nodes = (
(1038,0,l),
(1038,216,l)
);
},
{
attr = {
strokeWidth = 2;
};
closed = 0;
nodes = (
(421,348,l),
(421,0,l)
);
},
{
attr = {
strokeWidth = 2;
};
closed = 0;
nodes = (
(1080,348,l),
(1080,0,l)
);
},
{
attr = {
strokeWidth = 2;
};
closed = 0;
nodes = (
(381,0,l),
(381,482,l)
);
},
{
attr = {
strokeWidth = 2;
};
closed = 0;
nodes = (
(1121,0,l),
(1121,482,l)
);
},
{
attr = {
strokeWidth = 2;
};
closed = 0;
nodes = (
(340,616,l),
(340,0,l)
);
},
{
attr = {
strokeWidth = 2;
};
closed = 0;
nodes = (
(1162,616,l),
(1162,0,l)
);
},
{
attr = {
strokeWidth = 2;
};
closed = 0;
nodes = (
(297,37,l),
(297,700,l)
);
},
{
attr = {
strokeWidth = 2;
};
closed = 0;
nodes = (
(1202,37,l),
(1202,700,l)
);
},
{
attr = {
strokeWidth = 2;
};
closed = 0;
nodes = (
(257,700,l),
(257,147,l)
);
},
{
attr = {
strokeWidth = 2;
};
closed = 0;
nodes = (
(1244,700,l),
(1244,147,l)
);
},
{
attr = {
strokeWidth = 2;
};
closed = 0;
nodes = (
(215,259,l),
(215,700,l)
);
},
{
attr = {
strokeWidth = 2;
};
closed = 0;
nodes = (
(1285,259,l),
(1285,700,l)
);
},
{
attr = {
strokeWidth = 2;
};
closed = 0;
nodes = (
(174,700,l),
(174,369,l)
);
},
{
attr = {
strokeWidth = 2;
};
closed = 0;
nodes = (
(1327,700,l),
(1327,369,l)
);
},
{
attr = {
strokeWidth = 2;
};
closed = 0;
nodes = (
(132,480,l),
(132,700,l)
);
},
{
attr = {
strokeWidth = 2;
};
closed = 0;
nodes = (
(1368,480,l),
(1368,700,l)
);
},
{
attr = {
strokeWidth = 2;
};
closed = 0;
nodes = (
(92,700,l),
(92,591,l)
);
},
{
attr = {
strokeWidth = 2;
};
closed = 0;
nodes = (
(1410,700,l),
(1410,591,l)
);
},
{
attr = {
strokeWidth = 2;
};
closed = 0;
nodes = (
(51,669,l),
(51,700,l)
);
},
{
attr = {
strokeWidth = 2;
};
closed = 0;
nodes = (
(1451,669,l),
(1451,700,l)
);
},
{
attr = {
strokeWidth = 2;
};
closed = 0;
nodes = (
(750,438,l),
(750,700,l)
);
},
{
attr = {
strokeWidth = 2;
};
closed = 0;
nodes = (
(791,700,l),
(791,328,l)
);
}
);
width = 1502;
},
{
layerId = "8A987DE3-647B-4085-B6E8-CB46751612E3";
width = 600;
}
);
unicode = 87;
},
{
glyphname = X;
lastChange = "2022-04-19 19:11:18 +0000";
layers = (
{
layerId = m01;
shapes = (
{
attr = {
strokeWidth = 2;
};
closed = 0;
nodes = (
(79,700,l),
(79,661,l)
);
},
{
attr = {
strokeWidth = 2;
};
closed = 0;
nodes = (
(669,700,l),
(669,661,l)
);
},
{
attr = {
strokeWidth = 2;
};
closed = 0;
nodes = (
(107,700,l),
(107,617,l)
);
},
{
attr = {
strokeWidth = 2;
};
closed = 0;
nodes = (
(641,700,l),
(641,617,l)
);
},
{
attr = {
strokeWidth = 2;
};
closed = 0;
nodes = (
(135,700,l),
(135,573,l)
);
},
{
attr = {
strokeWidth = 2;
};
closed = 0;
nodes = (
(613,700,l),
(613,573,l)
);
},
{
attr = {
strokeWidth = 2;
};
closed = 0;
nodes = (
(163,700,l),
(163,528,l)
);
},
{
attr = {
strokeWidth = 2;
};
closed = 0;
nodes = (
(584,700,l),
(584,528,l)
);
},
{
attr = {
strokeWidth = 2;
};
closed = 0;
nodes = (
(191,484,l),
(191,700,l)
);
},
{
attr = {
strokeWidth = 2;
};
closed = 0;
nodes = (
(556,484,l),
(556,700,l)
);
},
{
attr = {
strokeWidth = 2;
};
closed = 0;
nodes = (
(219,700,l),
(219,439,l)
);
},
{
attr = {
strokeWidth = 2;
};
closed = 0;
nodes = (
(528,700,l),
(528,439,l)
);
},
{
attr = {
strokeWidth = 2;
};
closed = 0;
nodes = (
(247,700,l),
(247,395,l)
);
},
{
attr = {
strokeWidth = 2;
};
closed = 0;
nodes = (
(500,700,l),
(500,395,l)
);
},
{
attr = {
strokeWidth = 2;
};
closed = 0;
nodes = (
(275,664,l),
(275,57,l)
);
},
{
attr = {
strokeWidth = 2;
};
closed = 0;
nodes = (
(472,664,l),
(472,57,l)
);
},
{
attr = {
strokeWidth = 2;
};
closed = 0;
nodes = (
(303,613,l),
(303,105,l)
);
},
{
attr = {
strokeWidth = 2;
};
closed = 0;
nodes = (
(444,613,l),
(444,105,l)
);
},
{
attr = {
strokeWidth = 2;
};
closed = 0;
nodes = (
(331,153,l),
(331,562,l)
);
},
{
attr = {
strokeWidth = 2;
};
closed = 0;
nodes = (
(359,511,l),
(359,201,l)
);
},
{
attr = {
strokeWidth = 2;
};
closed = 0;
nodes = (
(387,511,l),
(387,201,l)
);
},
{
attr = {
strokeWidth = 2;
};
closed = 0;
nodes = (
(416,562,l),
(416,153,l)
);
},
{
attr = {
strokeWidth = 2;
};
closed = 0;
nodes = (
(500,10,l),
(500,310,l)
);
},
{
attr = {
strokeWidth = 2;
};
closed = 0;
nodes = (
(247,10,l),
(247,310,l)
);
},
{
attr = {
strokeWidth = 2;
};
closed = 0;
nodes = (
(528,266,l),
(528,0,l)
);
},
{
attr = {
strokeWidth = 2;
};
closed = 0;
nodes = (
(219,266,l),
(219,0,l)
);
},
{
attr = {
strokeWidth = 2;
};
closed = 0;
nodes = (
(556,0,l),
(556,221,l)
);
},
{
attr = {
strokeWidth = 2;
};
closed = 0;
nodes = (
(191,0,l),
(191,221,l)
);
},
{
attr = {
strokeWidth = 2;
};
closed = 0;
nodes = (
(584,177,l),
(584,0,l)
);
},
{
attr = {
strokeWidth = 2;
};
closed = 0;
nodes = (
(163,177,l),
(163,0,l)
);
},
{
attr = {
strokeWidth = 2;
};
closed = 0;
nodes = (
(613,0,l),
(613,132,l)
);
},
{
attr = {
strokeWidth = 2;
};
closed = 0;
nodes = (
(135,0,l),
(135,132,l)
);
},
{
attr = {
strokeWidth = 2;
};
closed = 0;
nodes = (
(641,88,l),
(641,0,l)
);
},
{
attr = {
strokeWidth = 2;
};
closed = 0;
nodes = (
(107,88,l),
(107,0,l)
);
},
{
attr = {
strokeWidth = 2;
};
closed = 0;
nodes = (
(669,43,l),
(669,0,l)
);
},
{
attr = {
strokeWidth = 2;
};
closed = 0;
nodes = (
(79,43,l),
(79,0,l)
);
},
{
attr = {
strokeWidth = 2;
};
closed = 0;
nodes = (
(697,0,l),
(697,21,l)
);
},
{
attr = {
strokeWidth = 2;
};
closed = 0;
nodes = (
(51,0,l),
(51,21,l)
);
}
);
width = 748;
},
{
layerId = "D0DEFB70-7D0D-4B44-B499-5072819829F5";
shapes = (
{
attr = {
strokeWidth = 2;
};
closed = 0;
nodes = (
(91,700,l),
(91,661,l)
);
},
{
attr = {
strokeWidth = 2;
};
closed = 0;
nodes = (
(933,700,l),
(933,661,l)
);
},
{
attr = {
strokeWidth = 2;
};
closed = 0;
nodes = (
(131,700,l),
(131,617,l)
);
},
{
attr = {
strokeWidth = 2;
};
closed = 0;
nodes = (
(893,700,l),
(893,617,l)
);
},
{
attr = {
strokeWidth = 2;
};
closed = 0;
nodes = (
(171,700,l),
(171,573,l)
);
},
{
attr = {
strokeWidth = 2;
};
closed = 0;
nodes = (
(853,700,l),
(853,573,l)
);
},
{
attr = {
strokeWidth = 2;
};
closed = 0;
nodes = (
(211,700,l),
(211,528,l)
);
},
{
attr = {
strokeWidth = 2;
};
closed = 0;
nodes = (
(812,700,l),
(812,528,l)
);
},
{
attr = {
strokeWidth = 2;
};
closed = 0;
nodes = (
(251,484,l),
(251,700,l)
);
},
{
attr = {
strokeWidth = 2;
};
closed = 0;
nodes = (
(772,484,l),
(772,700,l)
);
},
{
attr = {
strokeWidth = 2;
};
closed = 0;
nodes = (
(291,700,l),
(291,439,l)
);
},
{
attr = {
strokeWidth = 2;
};
closed = 0;
nodes = (
(732,700,l),
(732,439,l)
);
},
{
attr = {
strokeWidth = 2;
};
closed = 0;
nodes = (
(331,700,l),
(331,395,l)
);
},
{
attr = {
strokeWidth = 2;
};
closed = 0;
nodes = (
(692,700,l),
(692,395,l)
);
},
{
attr = {
strokeWidth = 2;
};
closed = 0;
nodes = (
(371,664,l),
(371,57,l)
);
},
{
attr = {
strokeWidth = 2;
};
closed = 0;
nodes = (
(652,664,l),
(652,57,l)
);
},
{
attr = {
strokeWidth = 2;
};
closed = 0;
nodes = (
(411,613,l),
(411,105,l)
);
},
{
attr = {
strokeWidth = 2;
};
closed = 0;
nodes = (
(612,613,l),
(612,105,l)
);
},
{
attr = {
strokeWidth = 2;
};
closed = 0;
nodes = (
(451,153,l),
(451,562,l)
);
},
{
attr = {
strokeWidth = 2;
};
closed = 0;
nodes = (
(491,511,l),
(491,201,l)
);
},
{
attr = {
strokeWidth = 2;
};
closed = 0;
nodes = (
(531,511,l),
(531,201,l)
);
},
{
attr = {
strokeWidth = 2;
};
closed = 0;
nodes = (
(572,562,l),
(572,153,l)
);
},
{
attr = {
strokeWidth = 2;
};
closed = 0;
nodes = (
(692,10,l),
(692,310,l)
);
},
{
attr = {
strokeWidth = 2;
};
closed = 0;
nodes = (
(331,10,l),
(331,310,l)
);
},
{
attr = {
strokeWidth = 2;
};
closed = 0;
nodes = (
(732,266,l),
(732,0,l)
);
},
{
attr = {
strokeWidth = 2;
};
closed = 0;
nodes = (
(291,266,l),
(291,0,l)
);
},
{
attr = {
strokeWidth = 2;
};
closed = 0;
nodes = (
(772,0,l),
(772,221,l)
);
},
{
attr = {
strokeWidth = 2;
};
closed = 0;
nodes = (
(251,0,l),
(251,221,l)
);
},
{
attr = {
strokeWidth = 2;
};
closed = 0;
nodes = (
(812,177,l),
(812,0,l)
);
},
{
attr = {
strokeWidth = 2;
};
closed = 0;
nodes = (
(211,177,l),
(211,0,l)
);
},
{
attr = {
strokeWidth = 2;
};
closed = 0;
nodes = (
(853,0,l),
(853,132,l)
);
},
{
attr = {
strokeWidth = 2;
};
closed = 0;
nodes = (
(171,0,l),
(171,132,l)
);
},
{
attr = {
strokeWidth = 2;
};
closed = 0;
nodes = (
(893,88,l),
(893,0,l)
);
},
{
attr = {
strokeWidth = 2;
};
closed = 0;
nodes = (
(131,88,l),
(131,0,l)
);
},
{
attr = {
strokeWidth = 2;
};
closed = 0;
nodes = (
(933,43,l),
(933,0,l)
);
},
{
attr = {
strokeWidth = 2;
};
closed = 0;
nodes = (
(91,43,l),
(91,0,l)
);
},
{
attr = {
strokeWidth = 2;
};
closed = 0;
nodes = (
(973,0,l),
(973,21,l)
);
},
{
attr = {
strokeWidth = 2;
};
closed = 0;
nodes = (
(51,0,l),
(51,21,l)
);
}
);
width = 1024;
},
{
layerId = "8A987DE3-647B-4085-B6E8-CB46751612E3";
width = 600;
}
);
unicode = 88;
},
{
glyphname = Y;
lastChange = "2022-04-19 19:11:18 +0000";
layers = (
{
layerId = m01;
shapes = (
{
attr = {
strokeWidth = 2;
};
closed = 0;
nodes = (
(108,700,l),
(108,600,l)
);
},
{
attr = {
strokeWidth = 2;
};
closed = 0;
nodes = (
(79,651,l),
(79,700,l)
);
},
{
attr = {
strokeWidth = 2;
};
closed = 0;
nodes = (
(51,700,l),
(51,675,l)
);
},
{
attr = {
strokeWidth = 2;
};
closed = 0;
nodes = (
(136,700,l),
(136,549,l)
);
},
{
attr = {
strokeWidth = 2;
};
closed = 0;
nodes = (
(165,498,l),
(165,700,l)
);
},
{
attr = {
strokeWidth = 2;
};
closed = 0;
nodes = (
(193,700,l),
(193,447,l)
);
},
{
attr = {
strokeWidth = 2;
};
closed = 0;
nodes = (
(222,700,l),
(222,395,l)
);
},
{
attr = {
strokeWidth = 2;
};
closed = 0;
nodes = (
(250,686,l),
(250,343,l)
);
},
{
attr = {
strokeWidth = 2;
};
closed = 0;
nodes = (
(279,625,l),
(279,0,l)
);
},
{
attr = {
strokeWidth = 2;
};
closed = 0;
nodes = (
(307,0,l),
(307,564,l)
);
},
{
attr = {
strokeWidth = 2;
};
closed = 0;
nodes = (
(336,503,l),
(336,0,l)
);
},
{
attr = {
strokeWidth = 2;
};
closed = 0;
nodes = (
(364,0,l),
(364,499,l)
);
},
{
attr = {
strokeWidth = 2;
};
closed = 0;
nodes = (
(393,559,l),
(393,0,l)
);
},
{
attr = {
strokeWidth = 2;
};
closed = 0;
nodes = (
(422,0,l),
(422,618,l)
);
},
{
attr = {
strokeWidth = 2;
};
closed = 0;
nodes = (
(451,341,l),
(451,677,l)
);
},
{
attr = {
strokeWidth = 2;
};
closed = 0;
nodes = (
(479,700,l),
(479,393,l)
);
},
{
attr = {
strokeWidth = 2;
};
closed = 0;
nodes = (
(508,700,l),
(508,444,l)
);
},
{
attr = {
strokeWidth = 2;
};
closed = 0;
nodes = (
(536,495,l),
(536,700,l)
);
},
{
attr = {
strokeWidth = 2;
};
closed = 0;
nodes = (
(565,700,l),
(565,546,l)
);
},
{
attr = {
strokeWidth = 2;
};
closed = 0;
nodes = (
(593,597,l),
(593,700,l)
);
},
{
attr = {
strokeWidth = 2;
};
closed = 0;
nodes = (
(622,700,l),
(622,649,l)
);
},
{
attr = {
strokeWidth = 2;
};
closed = 0;
nodes = (
(650,700,l),
(650,674,l)
);
}
);
width = 701;
},
{
layerId = "D0DEFB70-7D0D-4B44-B499-5072819829F5";
shapes = (
{
attr = {
strokeWidth = 2;
};
closed = 0;
nodes = (
(132,700,l),
(132,600,l)
);
},
{
attr = {
strokeWidth = 2;
};
closed = 0;
nodes = (
(91,651,l),
(91,700,l)
);
},
{
attr = {
strokeWidth = 2;
};
closed = 0;
nodes = (
(51,700,l),
(51,675,l)
);
},
{
attr = {
strokeWidth = 2;
};
closed = 0;
nodes = (
(172,700,l),
(172,549,l)
);
},
{
attr = {
strokeWidth = 2;
};
closed = 0;
nodes = (
(214,498,l),
(214,700,l)
);
},
{
attr = {
strokeWidth = 2;
};
closed = 0;
nodes = (
(254,700,l),
(254,447,l)
);
},
{
attr = {
strokeWidth = 2;
};
closed = 0;
nodes = (
(295,700,l),
(295,395,l)
);
},
{
attr = {
strokeWidth = 2;
};
closed = 0;
nodes = (
(335,686,l),
(335,343,l)
);
},
{
attr = {
strokeWidth = 2;
};
closed = 0;
nodes = (
(376,625,l),
(376,0,l)
);
},
{
attr = {
strokeWidth = 2;
};
closed = 0;
nodes = (
(416,0,l),
(416,564,l)
);
},
{
attr = {
strokeWidth = 2;
};
closed = 0;
nodes = (
(458,503,l),
(458,0,l)
);
},
{
attr = {
strokeWidth = 2;
};
closed = 0;
nodes = (
(498,0,l),
(498,499,l)
);
},
{
attr = {
strokeWidth = 2;
};
closed = 0;
nodes = (
(539,559,l),
(539,0,l)
);
},
{
attr = {
strokeWidth = 2;
};
closed = 0;
nodes = (
(581,0,l),
(581,618,l)
);
},
{
attr = {
strokeWidth = 2;
};
closed = 0;
nodes = (
(622,341,l),
(622,677,l)
);
},
{
attr = {
strokeWidth = 2;
};
closed = 0;
nodes = (
(662,700,l),
(662,393,l)
);
},
{
attr = {
strokeWidth = 2;
};
closed = 0;
nodes = (
(704,700,l),
(704,444,l)
);
},
{
attr = {
strokeWidth = 2;
};
closed = 0;
nodes = (
(744,495,l),
(744,700,l)
);
},
{
attr = {
strokeWidth = 2;
};
closed = 0;
nodes = (
(785,700,l),
(785,546,l)
);
},
{
attr = {
strokeWidth = 2;
};
closed = 0;
nodes = (
(825,597,l),
(825,700,l)
);
},
{
attr = {
strokeWidth = 2;
};
closed = 0;
nodes = (
(866,700,l),
(866,649,l)
);
},
{
attr = {
strokeWidth = 2;
};
closed = 0;
nodes = (
(906,700,l),
(906,674,l)
);
}
);
width = 957;
},
{
layerId = "8A987DE3-647B-4085-B6E8-CB46751612E3";
width = 600;
}
);
unicode = 89;
},
{
glyphname = Z;
lastChange = "2022-04-19 19:11:18 +0000";
layers = (
{
layerId = m01;
shapes = (
{
attr = {
strokeWidth = 2;
};
closed = 0;
nodes = (
(80,700,l),
(80,549,l)
);
},
{
attr = {
strokeWidth = 2;
};
closed = 0;
nodes = (
(108,700,l),
(108,549,l)
);
},
{
attr = {
strokeWidth = 2;
};
closed = 0;
nodes = (
(137,700,l),
(137,549,l)
);
},
{
attr = {
strokeWidth = 2;
};
closed = 0;
nodes = (
(165,700,l),
(165,549,l)
);
},
{
attr = {
strokeWidth = 2;
};
closed = 0;
nodes = (
(194,700,l),
(194,549,l)
);
},
{
attr = {
strokeWidth = 2;
};
closed = 0;
nodes = (
(222,700,l),
(222,549,l)
);
},
{
attr = {
strokeWidth = 2;
};
closed = 0;
nodes = (
(252,700,l),
(252,549,l)
);
},
{
attr = {
strokeWidth = 2;
};
closed = 0;
nodes = (
(280,700,l),
(280,549,l)
);
},
{
attr = {
strokeWidth = 2;
};
closed = 0;
nodes = (
(309,700,l),
(309,549,l)
);
},
{
attr = {
strokeWidth = 2;
};
closed = 0;
nodes = (
(337,700,l),
(337,549,l)
);
},
{
attr = {
strokeWidth = 2;
};
closed = 0;
nodes = (
(337,151,l),
(337,0,l)
);
},
{
attr = {
strokeWidth = 2;
};
closed = 0;
nodes = (
(309,151,l),
(309,0,l)
);
},
{
attr = {
strokeWidth = 2;
};
closed = 0;
nodes = (
(280,434,l),
(280,0,l)
);
},
{
attr = {
strokeWidth = 2;
};
closed = 0;
nodes = (
(366,151,l),
(366,0,l)
);
},
{
attr = {
strokeWidth = 2;
};
closed = 0;
nodes = (
(394,151,l),
(394,0,l)
);
},
{
attr = {
strokeWidth = 2;
};
closed = 0;
nodes = (
(423,151,l),
(423,0,l)
);
},
{
attr = {
strokeWidth = 2;
};
closed = 0;
nodes = (
(451,151,l),
(451,0,l)
);
},
{
attr = {
strokeWidth = 2;
};
closed = 0;
nodes = (
(480,151,l),
(480,0,l)
);
},
{
attr = {
strokeWidth = 2;
};
closed = 0;
nodes = (
(508,151,l),
(508,0,l)
);
},
{
attr = {
strokeWidth = 2;
};
closed = 0;
nodes = (
(537,151,l),
(537,0,l)
);
},
{
attr = {
strokeWidth = 2;
};
closed = 0;
nodes = (
(565,151,l),
(565,0,l)
);
},
{
attr = {
strokeWidth = 2;
};
closed = 0;
nodes = (
(594,151,l),
(594,0,l)
);
},
{
attr = {
strokeWidth = 2;
};
closed = 0;
nodes = (
(366,700,l),
(366,274,l)
);
},
{
attr = {
strokeWidth = 2;
};
closed = 0;
nodes = (
(394,314,l),
(394,700,l)
);
},
{
attr = {
strokeWidth = 2;
};
closed = 0;
nodes = (
(423,700,l),
(423,355,l)
);
},
{
attr = {
strokeWidth = 2;
};
closed = 0;
nodes = (
(451,395,l),
(451,700,l)
);
},
{
attr = {
strokeWidth = 2;
};
closed = 0;
nodes = (
(480,700,l),
(480,435,l)
);
},
{
attr = {
strokeWidth = 2;
};
closed = 0;
nodes = (
(508,700,l),
(508,476,l)
);
},
{
attr = {
strokeWidth = 2;
};
closed = 0;
nodes = (
(537,516,l),
(537,700,l)
);
},
{
attr = {
strokeWidth = 2;
};
closed = 0;
nodes = (
(565,700,l),
(565,556,l)
);
},
{
attr = {
strokeWidth = 2;
};
closed = 0;
nodes = (
(337,515,l),
(337,233,l)
);
},
{
attr = {
strokeWidth = 2;
};
closed = 0;
nodes = (
(309,193,l),
(309,474,l)
);
},
{
attr = {
strokeWidth = 2;
};
closed = 0;
nodes = (
(252,393,l),
(252,0,l)
);
},
{
attr = {
strokeWidth = 2;
};
closed = 0;
nodes = (
(222,0,l),
(222,353,l)
);
},
{
attr = {
strokeWidth = 2;
};
closed = 0;
nodes = (
(194,311,l),
(194,0,l)
);
},
{
attr = {
strokeWidth = 2;
};
closed = 0;
nodes = (
(165,271,l),
(165,0,l)
);
},
{
attr = {
strokeWidth = 2;
};
closed = 0;
nodes = (
(137,0,l),
(137,230,l)
);
},
{
attr = {
strokeWidth = 2;
};
closed = 0;
nodes = (
(108,190,l),
(108,0,l)
);
},
{
attr = {
strokeWidth = 2;
};
closed = 0;
nodes = (
(80,0,l),
(80,149,l)
);
},
{
attr = {
strokeWidth = 2;
};
closed = 0;
nodes = (
(51,109,l),
(51,0,l)
);
}
);
width = 645;
},
{
layerId = "D0DEFB70-7D0D-4B44-B499-5072819829F5";
shapes = (
{
attr = {
strokeWidth = 2;
};
closed = 0;
nodes = (
(92,700,l),
(92,549,l)
);
},
{
attr = {
strokeWidth = 2;
};
closed = 0;
nodes = (
(132,700,l),
(132,549,l)
);
},
{
attr = {
strokeWidth = 2;
};
closed = 0;
nodes = (
(174,700,l),
(174,549,l)
);
},
{
attr = {
strokeWidth = 2;
};
closed = 0;
nodes = (
(214,700,l),
(214,549,l)
);
},
{
attr = {
strokeWidth = 2;
};
closed = 0;
nodes = (
(255,700,l),
(255,549,l)
);
},
{
attr = {
strokeWidth = 2;
};
closed = 0;
nodes = (
(295,700,l),
(295,549,l)
);
},
{
attr = {
strokeWidth = 2;
};
closed = 0;
nodes = (
(338,700,l),
(338,549,l)
);
},
{
attr = {
strokeWidth = 2;
};
closed = 0;
nodes = (
(378,700,l),
(378,549,l)
);
},
{
attr = {
strokeWidth = 2;
};
closed = 0;
nodes = (
(419,700,l),
(419,549,l)
);
},
{
attr = {
strokeWidth = 2;
};
closed = 0;
nodes = (
(459,700,l),
(459,549,l)
);
},
{
attr = {
strokeWidth = 2;
};
closed = 0;
nodes = (
(459,151,l),
(459,0,l)
);
},
{
attr = {
strokeWidth = 2;
};
closed = 0;
nodes = (
(419,151,l),
(419,0,l)
);
},
{
attr = {
strokeWidth = 2;
};
closed = 0;
nodes = (
(378,434,l),
(378,0,l)
);
},
{
attr = {
strokeWidth = 2;
};
closed = 0;
nodes = (
(501,151,l),
(501,0,l)
);
},
{
attr = {
strokeWidth = 2;
};
closed = 0;
nodes = (
(541,151,l),
(541,0,l)
);
},
{
attr = {
strokeWidth = 2;
};
closed = 0;
nodes = (
(582,151,l),
(582,0,l)
);
},
{
attr = {
strokeWidth = 2;
};
closed = 0;
nodes = (
(622,151,l),
(622,0,l)
);
},
{
attr = {
strokeWidth = 2;
};
closed = 0;
nodes = (
(664,151,l),
(664,0,l)
);
},
{
attr = {
strokeWidth = 2;
};
closed = 0;
nodes = (
(704,151,l),
(704,0,l)
);
},
{
attr = {
strokeWidth = 2;
};
closed = 0;
nodes = (
(745,151,l),
(745,0,l)
);
},
{
attr = {
strokeWidth = 2;
};
closed = 0;
nodes = (
(785,151,l),
(785,0,l)
);
},
{
attr = {
strokeWidth = 2;
};
closed = 0;
nodes = (
(826,151,l),
(826,0,l)
);
},
{
attr = {
strokeWidth = 2;
};
closed = 0;
nodes = (
(501,700,l),
(501,274,l)
);
},
{
attr = {
strokeWidth = 2;
};
closed = 0;
nodes = (
(541,314,l),
(541,700,l)
);
},
{
attr = {
strokeWidth = 2;
};
closed = 0;
nodes = (
(582,700,l),
(582,355,l)
);
},
{
attr = {
strokeWidth = 2;
};
closed = 0;
nodes = (
(622,395,l),
(622,700,l)
);
},
{
attr = {
strokeWidth = 2;
};
closed = 0;
nodes = (
(664,700,l),
(664,435,l)
);
},
{
attr = {
strokeWidth = 2;
};
closed = 0;
nodes = (
(704,700,l),
(704,476,l)
);
},
{
attr = {
strokeWidth = 2;
};
closed = 0;
nodes = (
(745,516,l),
(745,700,l)
);
},
{
attr = {
strokeWidth = 2;
};
closed = 0;
nodes = (
(785,700,l),
(785,556,l)
);
},
{
attr = {
strokeWidth = 2;
};
closed = 0;
nodes = (
(459,515,l),
(459,233,l)
);
},
{
attr = {
strokeWidth = 2;
};
closed = 0;
nodes = (
(419,193,l),
(419,474,l)
);
},
{
attr = {
strokeWidth = 2;
};
closed = 0;
nodes = (
(338,393,l),
(338,0,l)
);
},
{
attr = {
strokeWidth = 2;
};
closed = 0;
nodes = (
(295,0,l),
(295,353,l)
);
},
{
attr = {
strokeWidth = 2;
};
closed = 0;
nodes = (
(255,311,l),
(255,0,l)
);
},
{
attr = {
strokeWidth = 2;
};
closed = 0;
nodes = (
(214,271,l),
(214,0,l)
);
},
{
attr = {
strokeWidth = 2;
};
closed = 0;
nodes = (
(174,0,l),
(174,230,l)
);
},
{
attr = {
strokeWidth = 2;
};
closed = 0;
nodes = (
(132,190,l),
(132,0,l)
);
},
{
attr = {
strokeWidth = 2;
};
closed = 0;
nodes = (
(92,0,l),
(92,149,l)
);
},
{
attr = {
strokeWidth = 2;
};
closed = 0;
nodes = (
(51,109,l),
(51,0,l)
);
}
);
width = 877;
},
{
layerId = "8A987DE3-647B-4085-B6E8-CB46751612E3";
width = 600;
}
);
unicode = 90;
},
{
glyphname = a;
lastChange = "2022-04-19 19:10:09 +0000";
layers = (
{
layerId = m01;
shapes = (
{
attr = {
strokeWidth = 2;
};
closed = 0;
nodes = (
(106,487,l),
(106,428,l)
);
},
{
attr = {
strokeWidth = 2;
};
closed = 0;
nodes = (
(134,501,l),
(134,378,l)
);
},
{
attr = {
strokeWidth = 2;
};
closed = 0;
nodes = (
(162,368,l),
(162,513,l)
);
},
{
attr = {
strokeWidth = 2;
};
closed = 0;
nodes = (
(189,522,l),
(189,379,l)
);
},
{
attr = {
strokeWidth = 2;
};
closed = 0;
nodes = (
(217,386,l),
(217,529,l)
);
},
{
attr = {
strokeWidth = 2;
};
closed = 0;
nodes = (
(245,534,l),
(245,391,l)
);
},
{
attr = {
strokeWidth = 2;
};
closed = 0;
nodes = (
(272,393,l),
(272,536,l)
);
},
{
attr = {
strokeWidth = 2;
};
closed = 0;
nodes = (
(300,537,l),
(300,391,l)
);
},
{
attr = {
strokeWidth = 2;
};
closed = 0;
nodes = (
(328,382,l),
(328,536,l)
);
},
{
attr = {
strokeWidth = 2;
};
closed = 0;
nodes = (
(355,533,l),
(355,186,l)
);
},
{
attr = {
strokeWidth = 2;
};
closed = 0;
nodes = (
(355,152,l),
(355,21,l)
);
},
{
attr = {
strokeWidth = 2;
};
closed = 0;
nodes = (
(328,327,l),
(328,216,l)
);
},
{
attr = {
strokeWidth = 2;
};
closed = 0;
nodes = (
(300,333,l),
(300,224,l)
);
},
{
attr = {
strokeWidth = 2;
};
closed = 0;
nodes = (
(272,223,l),
(272,336,l)
);
},
{
attr = {
strokeWidth = 2;
};
closed = 0;
nodes = (
(245,336,l),
(245,214,l)
);
},
{
attr = {
strokeWidth = 2;
};
closed = 0;
nodes = (
(217,334,l),
(217,-11,l)
);
},
{
attr = {
strokeWidth = 2;
};
closed = 0;
nodes = (
(189,329,l),
(189,-7,l)
);
},
{
attr = {
strokeWidth = 2;
};
closed = 0;
nodes = (
(162,2,l),
(162,321,l)
);
},
{
attr = {
strokeWidth = 2;
};
closed = 0;
nodes = (
(134,308,l),
(134,15,l)
);
},
{
attr = {
strokeWidth = 2;
};
closed = 0;
nodes = (
(106,35,l),
(106,289,l)
);
},
{
attr = {
strokeWidth = 2;
};
closed = 0;
nodes = (
(78,258,l),
(78,66,l)
);
},
{
attr = {
strokeWidth = 2;
};
closed = 0;
nodes = (
(51,132,l),
(51,194,l)
);
},
{
attr = {
strokeWidth = 2;
};
closed = 0;
nodes = (
(245,125,l),
(245,-13,l)
);
},
{
attr = {
strokeWidth = 2;
};
closed = 0;
nodes = (
(272,-12,l),
(272,116,l)
);
},
{
attr = {
strokeWidth = 2;
};
closed = 0;
nodes = (
(300,115,l),
(300,-7,l)
);
},
{
attr = {
strokeWidth = 2;
};
closed = 0;
nodes = (
(328,3,l),
(328,123,l)
);
},
{
attr = {
strokeWidth = 2;
};
closed = 0;
nodes = (
(383,0,l),
(383,528,l)
);
},
{
attr = {
strokeWidth = 2;
};
closed = 0;
nodes = (
(411,519,l),
(411,0,l)
);
},
{
attr = {
strokeWidth = 2;
};
closed = 0;
nodes = (
(439,0,l),
(439,506,l)
);
},
{
attr = {
strokeWidth = 2;
};
closed = 0;
nodes = (
(466,486,l),
(466,0,l)
);
},
{
attr = {
strokeWidth = 2;
};
closed = 0;
nodes = (
(494,0,l),
(494,451,l)
);
},
{
attr = {
strokeWidth = 2;
};
closed = 0;
nodes = (
(522,368,l),
(522,0,l)
);
}
);
width = 573;
},
{
layerId = "D0DEFB70-7D0D-4B44-B499-5072819829F5";
shapes = (
{
attr = {
strokeWidth = 2;
};
closed = 0;
nodes = (
(130,487,l),
(130,428,l)
);
},
{
attr = {
strokeWidth = 2;
};
closed = 0;
nodes = (
(170,501,l),
(170,378,l)
);
},
{
attr = {
strokeWidth = 2;
};
closed = 0;
nodes = (
(210,368,l),
(210,513,l)
);
},
{
attr = {
strokeWidth = 2;
};
closed = 0;
nodes = (
(248,522,l),
(248,379,l)
);
},
{
attr = {
strokeWidth = 2;
};
closed = 0;
nodes = (
(288,386,l),
(288,529,l)
);
},
{
attr = {
strokeWidth = 2;
};
closed = 0;
nodes = (
(328,534,l),
(328,391,l)
);
},
{
attr = {
strokeWidth = 2;
};
closed = 0;
nodes = (
(367,393,l),
(367,536,l)
);
},
{
attr = {
strokeWidth = 2;
};
closed = 0;
nodes = (
(407,537,l),
(407,391,l)
);
},
{
attr = {
strokeWidth = 2;
};
closed = 0;
nodes = (
(447,382,l),
(447,536,l)
);
},
{
attr = {
strokeWidth = 2;
};
closed = 0;
nodes = (
(485,533,l),
(485,186,l)
);
},
{
attr = {
strokeWidth = 2;
};
closed = 0;
nodes = (
(485,152,l),
(485,21,l)
);
},
{
attr = {
strokeWidth = 2;
};
closed = 0;
nodes = (
(447,327,l),
(447,216,l)
);
},
{
attr = {
strokeWidth = 2;
};
closed = 0;
nodes = (
(407,333,l),
(407,224,l)
);
},
{
attr = {
strokeWidth = 2;
};
closed = 0;
nodes = (
(367,223,l),
(367,336,l)
);
},
{
attr = {
strokeWidth = 2;
};
closed = 0;
nodes = (
(328,336,l),
(328,214,l)
);
},
{
attr = {
strokeWidth = 2;
};
closed = 0;
nodes = (
(288,334,l),
(288,-11,l)
);
},
{
attr = {
strokeWidth = 2;
};
closed = 0;
nodes = (
(248,329,l),
(248,-7,l)
);
},
{
attr = {
strokeWidth = 2;
};
closed = 0;
nodes = (
(210,2,l),
(210,321,l)
);
},
{
attr = {
strokeWidth = 2;
};
closed = 0;
nodes = (
(170,308,l),
(170,15,l)
);
},
{
attr = {
strokeWidth = 2;
};
closed = 0;
nodes = (
(130,35,l),
(130,289,l)
);
},
{
attr = {
strokeWidth = 2;
};
closed = 0;
nodes = (
(90,258,l),
(90,66,l)
);
},
{
attr = {
strokeWidth = 2;
};
closed = 0;
nodes = (
(51,132,l),
(51,194,l)
);
},
{
attr = {
strokeWidth = 2;
};
closed = 0;
nodes = (
(328,125,l),
(328,-13,l)
);
},
{
attr = {
strokeWidth = 2;
};
closed = 0;
nodes = (
(367,-12,l),
(367,116,l)
);
},
{
attr = {
strokeWidth = 2;
};
closed = 0;
nodes = (
(407,115,l),
(407,-7,l)
);
},
{
attr = {
strokeWidth = 2;
};
closed = 0;
nodes = (
(447,3,l),
(447,123,l)
);
},
{
attr = {
strokeWidth = 2;
};
closed = 0;
nodes = (
(525,0,l),
(525,528,l)
);
},
{
attr = {
strokeWidth = 2;
};
closed = 0;
nodes = (
(565,519,l),
(565,0,l)
);
},
{
attr = {
strokeWidth = 2;
};
closed = 0;
nodes = (
(605,0,l),
(605,506,l)
);
},
{
attr = {
strokeWidth = 2;
};
closed = 0;
nodes = (
(644,486,l),
(644,0,l)
);
},
{
attr = {
strokeWidth = 2;
};
closed = 0;
nodes = (
(684,0,l),
(684,451,l)
);
},
{
attr = {
strokeWidth = 2;
};
closed = 0;
nodes = (
(724,368,l),
(724,0,l)
);
}
);
width = 775;
},
{
layerId = "8A987DE3-647B-4085-B6E8-CB46751612E3";
width = 600;
}
);
unicode = 97;
},
{
glyphname = b;
lastChange = "2022-04-19 19:11:18 +0000";
layers = (
{
layerId = m01;
shapes = (
{
attr = {
strokeWidth = 2;
};
closed = 0;
nodes = (
(51,722,l),
(51,0,l)
);
},
{
attr = {
strokeWidth = 2;
};
closed = 0;
nodes = (
(80,722,l),
(80,0,l)
);
},
{
attr = {
strokeWidth = 2;
};
closed = 0;
nodes = (
(109,722,l),
(109,0,l)
);
},
{
attr = {
strokeWidth = 2;
};
closed = 0;
nodes = (
(138,722,l),
(138,0,l)
);
},
{
attr = {
strokeWidth = 2;
};
closed = 0;
nodes = (
(167,722,l),
(167,0,l)
);
},
{
attr = {
strokeWidth = 2;
};
closed = 0;
nodes = (
(197,722,l),
(197,0,l)
);
},
{
attr = {
strokeWidth = 2;
};
closed = 0;
nodes = (
(226,492,l),
(226,328,l)
);
},
{
attr = {
strokeWidth = 2;
};
closed = 0;
nodes = (
(255,367,l),
(255,512,l)
);
},
{
attr = {
strokeWidth = 2;
};
closed = 0;
nodes = (
(284,525,l),
(284,384,l)
);
},
{
attr = {
strokeWidth = 2;
};
closed = 0;
nodes = (
(313,390,l),
(313,533,l)
);
},
{
attr = {
strokeWidth = 2;
};
closed = 0;
nodes = (
(342,537,l),
(342,389,l)
);
},
{
attr = {
strokeWidth = 2;
};
closed = 0;
nodes = (
(372,381,l),
(372,537,l)
);
},
{
attr = {
strokeWidth = 2;
};
closed = 0;
nodes = (
(401,534,l),
(401,361,l)
);
},
{
attr = {
strokeWidth = 2;
};
closed = 0;
nodes = (
(430,528,l),
(430,314,l)
);
},
{
attr = {
strokeWidth = 2;
};
closed = 0;
nodes = (
(459,518,l),
(459,11,l)
);
},
{
attr = {
strokeWidth = 2;
};
closed = 0;
nodes = (
(488,27,l),
(488,502,l)
);
},
{
attr = {
strokeWidth = 2;
};
closed = 0;
nodes = (
(517,481,l),
(517,49,l)
);
},
{
attr = {
strokeWidth = 2;
};
closed = 0;
nodes = (
(546,80,l),
(546,450,l)
);
},
{
attr = {
strokeWidth = 2;
};
closed = 0;
nodes = (
(576,403,l),
(576,127,l)
);
},
{
attr = {
strokeWidth = 2;
};
closed = 0;
nodes = (
(430,208,l),
(430,0,l)
);
},
{
attr = {
strokeWidth = 2;
};
closed = 0;
nodes = (
(401,-8,l),
(401,162,l)
);
},
{
attr = {
strokeWidth = 2;
};
closed = 0;
nodes = (
(372,142,l),
(372,-13,l)
);
},
{
attr = {
strokeWidth = 2;
};
closed = 0;
nodes = (
(342,-13,l),
(342,134,l)
);
},
{
attr = {
strokeWidth = 2;
};
closed = 0;
nodes = (
(313,134,l),
(313,-10,l)
);
},
{
attr = {
strokeWidth = 2;
};
closed = 0;
nodes = (
(284,-3,l),
(284,140,l)
);
},
{
attr = {
strokeWidth = 2;
};
closed = 0;
nodes = (
(255,158,l),
(255,8,l)
);
},
{
attr = {
strokeWidth = 2;
};
closed = 0;
nodes = (
(226,197,l),
(226,25,l)
);
},
{
attr = {
strokeWidth = 2;
};
closed = 0;
nodes = (
(605,305,l),
(605,220,l)
);
}
);
width = 656;
},
{
layerId = "D0DEFB70-7D0D-4B44-B499-5072819829F5";
shapes = (
{
attr = {
strokeWidth = 2;
};
closed = 0;
nodes = (
(51,722,l),
(51,0,l)
);
},
{
attr = {
strokeWidth = 2;
};
closed = 0;
nodes = (
(93,722,l),
(93,0,l)
);
},
{
attr = {
strokeWidth = 2;
};
closed = 0;
nodes = (
(134,722,l),
(134,0,l)
);
},
{
attr = {
strokeWidth = 2;
};
closed = 0;
nodes = (
(176,722,l),
(176,0,l)
);
},
{
attr = {
strokeWidth = 2;
};
closed = 0;
nodes = (
(217,722,l),
(217,0,l)
);
},
{
attr = {
strokeWidth = 2;
};
closed = 0;
nodes = (
(260,722,l),
(260,0,l)
);
},
{
attr = {
strokeWidth = 2;
};
closed = 0;
nodes = (
(301,492,l),
(301,328,l)
);
},
{
attr = {
strokeWidth = 2;
};
closed = 0;
nodes = (
(343,367,l),
(343,512,l)
);
},
{
attr = {
strokeWidth = 2;
};
closed = 0;
nodes = (
(384,525,l),
(384,384,l)
);
},
{
attr = {
strokeWidth = 2;
};
closed = 0;
nodes = (
(426,390,l),
(426,533,l)
);
},
{
attr = {
strokeWidth = 2;
};
closed = 0;
nodes = (
(467,537,l),
(467,389,l)
);
},
{
attr = {
strokeWidth = 2;
};
closed = 0;
nodes = (
(510,381,l),
(510,537,l)
);
},
{
attr = {
strokeWidth = 2;
};
closed = 0;
nodes = (
(551,534,l),
(551,361,l)
);
},
{
attr = {
strokeWidth = 2;
};
closed = 0;
nodes = (
(593,528,l),
(593,314,l)
);
},
{
attr = {
strokeWidth = 2;
};
closed = 0;
nodes = (
(634,518,l),
(634,11,l)
);
},
{
attr = {
strokeWidth = 2;
};
closed = 0;
nodes = (
(676,27,l),
(676,502,l)
);
},
{
attr = {
strokeWidth = 2;
};
closed = 0;
nodes = (
(717,481,l),
(717,49,l)
);
},
{
attr = {
strokeWidth = 2;
};
closed = 0;
nodes = (
(758,80,l),
(758,450,l)
);
},
{
attr = {
strokeWidth = 2;
};
closed = 0;
nodes = (
(801,403,l),
(801,127,l)
);
},
{
attr = {
strokeWidth = 2;
};
closed = 0;
nodes = (
(593,208,l),
(593,0,l)
);
},
{
attr = {
strokeWidth = 2;
};
closed = 0;
nodes = (
(551,-8,l),
(551,162,l)
);
},
{
attr = {
strokeWidth = 2;
};
closed = 0;
nodes = (
(510,142,l),
(510,-13,l)
);
},
{
attr = {
strokeWidth = 2;
};
closed = 0;
nodes = (
(467,-13,l),
(467,134,l)
);
},
{
attr = {
strokeWidth = 2;
};
closed = 0;
nodes = (
(426,134,l),
(426,-10,l)
);
},
{
attr = {
strokeWidth = 2;
};
closed = 0;
nodes = (
(384,-3,l),
(384,140,l)
);
},
{
attr = {
strokeWidth = 2;
};
closed = 0;
nodes = (
(343,158,l),
(343,8,l)
);
},
{
attr = {
strokeWidth = 2;
};
closed = 0;
nodes = (
(301,197,l),
(301,25,l)
);
},
{
attr = {
strokeWidth = 2;
};
closed = 0;
nodes = (
(843,305,l),
(843,220,l)
);
}
);
width = 894;
},
{
layerId = "8A987DE3-647B-4085-B6E8-CB46751612E3";
width = 600;
}
);
unicode = 98;
},
{
glyphname = c;
lastChange = "2022-04-19 19:11:18 +0000";
layers = (
{
layerId = m01;
shapes = (
{
attr = {
strokeWidth = 2;
};
closed = 0;
nodes = (
(80,385,l),
(80,131,l)
);
},
{
attr = {
strokeWidth = 2;
};
closed = 0;
nodes = (
(51,293,l),
(51,225,l)
);
},
{
attr = {
strokeWidth = 2;
};
closed = 0;
nodes = (
(109,431,l),
(109,85,l)
);
},
{
attr = {
strokeWidth = 2;
};
closed = 0;
nodes = (
(139,54,l),
(139,463,l)
);
},
{
attr = {
strokeWidth = 2;
};
closed = 0;
nodes = (
(168,485,l),
(168,32,l)
);
},
{
attr = {
strokeWidth = 2;
};
closed = 0;
nodes = (
(197,15,l),
(197,503,l)
);
},
{
attr = {
strokeWidth = 2;
};
closed = 0;
nodes = (
(227,515,l),
(227,310,l)
);
},
{
attr = {
strokeWidth = 2;
};
closed = 0;
nodes = (
(227,209,l),
(227,3,l)
);
},
{
attr = {
strokeWidth = 2;
};
closed = 0;
nodes = (
(256,-6,l),
(256,164,l)
);
},
{
attr = {
strokeWidth = 2;
};
closed = 0;
nodes = (
(285,144,l),
(285,-12,l)
);
},
{
attr = {
strokeWidth = 2;
};
closed = 0;
nodes = (
(315,-15,l),
(315,134,l)
);
},
{
attr = {
strokeWidth = 2;
};
closed = 0;
nodes = (
(344,131,l),
(344,-16,l)
);
},
{
attr = {
strokeWidth = 2;
};
closed = 0;
nodes = (
(373,-13,l),
(373,134,l)
);
},
{
attr = {
strokeWidth = 2;
};
closed = 0;
nodes = (
(402,142,l),
(402,-8,l)
);
},
{
attr = {
strokeWidth = 2;
};
closed = 0;
nodes = (
(432,1,l),
(432,158,l)
);
},
{
attr = {
strokeWidth = 2;
};
closed = 0;
nodes = (
(461,120,l),
(461,14,l)
);
},
{
attr = {
strokeWidth = 2;
};
closed = 0;
nodes = (
(256,525,l),
(256,354,l)
);
},
{
attr = {
strokeWidth = 2;
};
closed = 0;
nodes = (
(285,373,l),
(285,530,l)
);
},
{
attr = {
strokeWidth = 2;
};
closed = 0;
nodes = (
(315,533,l),
(315,382,l)
);
},
{
attr = {
strokeWidth = 2;
};
closed = 0;
nodes = (
(344,384,l),
(344,534,l)
);
},
{
attr = {
strokeWidth = 2;
};
closed = 0;
nodes = (
(373,532,l),
(373,381,l)
);
},
{
attr = {
strokeWidth = 2;
};
closed = 0;
nodes = (
(402,372,l),
(402,526,l)
);
},
{
attr = {
strokeWidth = 2;
};
closed = 0;
nodes = (
(432,517,l),
(432,356,l)
);
},
{
attr = {
strokeWidth = 2;
};
closed = 0;
nodes = (
(461,394,l),
(461,504,l)
);
},
{
attr = {
strokeWidth = 2;
};
closed = 0;
nodes = (
(490,495,l),
(490,475,l)
);
},
{
attr = {
strokeWidth = 2;
};
closed = 0;
nodes = (
(490,42,l),
(490,21,l)
);
}
);
width = 541;
},
{
layerId = "D0DEFB70-7D0D-4B44-B499-5072819829F5";
shapes = (
{
attr = {
strokeWidth = 2;
};
closed = 0;
nodes = (
(92,385,l),
(92,131,l)
);
},
{
attr = {
strokeWidth = 2;
};
closed = 0;
nodes = (
(51,293,l),
(51,225,l)
);
},
{
attr = {
strokeWidth = 2;
};
closed = 0;
nodes = (
(134,431,l),
(134,85,l)
);
},
{
attr = {
strokeWidth = 2;
};
closed = 0;
nodes = (
(177,54,l),
(177,463,l)
);
},
{
attr = {
strokeWidth = 2;
};
closed = 0;
nodes = (
(218,485,l),
(218,32,l)
);
},
{
attr = {
strokeWidth = 2;
};
closed = 0;
nodes = (
(260,15,l),
(260,503,l)
);
},
{
attr = {
strokeWidth = 2;
};
closed = 0;
nodes = (
(302,515,l),
(302,310,l)
);
},
{
attr = {
strokeWidth = 2;
};
closed = 0;
nodes = (
(302,209,l),
(302,3,l)
);
},
{
attr = {
strokeWidth = 2;
};
closed = 0;
nodes = (
(344,-6,l),
(344,164,l)
);
},
{
attr = {
strokeWidth = 2;
};
closed = 0;
nodes = (
(385,144,l),
(385,-12,l)
);
},
{
attr = {
strokeWidth = 2;
};
closed = 0;
nodes = (
(428,-15,l),
(428,134,l)
);
},
{
attr = {
strokeWidth = 2;
};
closed = 0;
nodes = (
(470,131,l),
(470,-16,l)
);
},
{
attr = {
strokeWidth = 2;
};
closed = 0;
nodes = (
(511,-13,l),
(511,134,l)
);
},
{
attr = {
strokeWidth = 2;
};
closed = 0;
nodes = (
(552,142,l),
(552,-8,l)
);
},
{
attr = {
strokeWidth = 2;
};
closed = 0;
nodes = (
(595,1,l),
(595,158,l)
);
},
{
attr = {
strokeWidth = 2;
};
closed = 0;
nodes = (
(637,120,l),
(637,14,l)
);
},
{
attr = {
strokeWidth = 2;
};
closed = 0;
nodes = (
(344,525,l),
(344,354,l)
);
},
{
attr = {
strokeWidth = 2;
};
closed = 0;
nodes = (
(385,373,l),
(385,530,l)
);
},
{
attr = {
strokeWidth = 2;
};
closed = 0;
nodes = (
(428,533,l),
(428,382,l)
);
},
{
attr = {
strokeWidth = 2;
};
closed = 0;
nodes = (
(470,384,l),
(470,534,l)
);
},
{
attr = {
strokeWidth = 2;
};
closed = 0;
nodes = (
(511,532,l),
(511,381,l)
);
},
{
attr = {
strokeWidth = 2;
};
closed = 0;
nodes = (
(552,372,l),
(552,526,l)
);
},
{
attr = {
strokeWidth = 2;
};
closed = 0;
nodes = (
(595,517,l),
(595,356,l)
);
},
{
attr = {
strokeWidth = 2;
};
closed = 0;
nodes = (
(637,394,l),
(637,504,l)
);
},
{
attr = {
strokeWidth = 2;
};
closed = 0;
nodes = (
(678,495,l),
(678,475,l)
);
},
{
attr = {
strokeWidth = 2;
};
closed = 0;
nodes = (
(678,42,l),
(678,21,l)
);
}
);
width = 729;
},
{
layerId = "8A987DE3-647B-4085-B6E8-CB46751612E3";
width = 600;
}
);
unicode = 99;
},
{
glyphname = d;
lastChange = "2022-04-19 19:11:18 +0000";
layers = (
{
layerId = m01;
shapes = (
{
attr = {
strokeWidth = 2;
};
closed = 0;
nodes = (
(51,306,l),
(51,220,l)
);
},
{
attr = {
strokeWidth = 2;
};
closed = 0;
nodes = (
(78,400,l),
(78,130,l)
);
},
{
attr = {
strokeWidth = 2;
};
closed = 0;
nodes = (
(106,84,l),
(106,446,l)
);
},
{
attr = {
strokeWidth = 2;
};
closed = 0;
nodes = (
(134,477,l),
(134,53,l)
);
},
{
attr = {
strokeWidth = 2;
};
closed = 0;
nodes = (
(162,31,l),
(162,499,l)
);
},
{
attr = {
strokeWidth = 2;
};
closed = 0;
nodes = (
(189,514,l),
(189,14,l)
);
},
{
attr = {
strokeWidth = 2;
};
closed = 0;
nodes = (
(217,2,l),
(217,525,l)
);
},
{
attr = {
strokeWidth = 2;
};
closed = 0;
nodes = (
(245,532,l),
(245,350,l)
);
},
{
attr = {
strokeWidth = 2;
};
closed = 0;
nodes = (
(272,375,l),
(272,536,l)
);
},
{
attr = {
strokeWidth = 2;
};
closed = 0;
nodes = (
(300,537,l),
(300,387,l)
);
},
{
attr = {
strokeWidth = 2;
};
closed = 0;
nodes = (
(328,390,l),
(328,535,l)
);
},
{
attr = {
strokeWidth = 2;
};
closed = 0;
nodes = (
(355,530,l),
(355,388,l)
);
},
{
attr = {
strokeWidth = 2;
};
closed = 0;
nodes = (
(383,378,l),
(383,521,l)
);
},
{
attr = {
strokeWidth = 2;
};
closed = 0;
nodes = (
(411,506,l),
(411,357,l)
);
},
{
attr = {
strokeWidth = 2;
};
closed = 0;
nodes = (
(438,722,l),
(438,302,l)
);
},
{
attr = {
strokeWidth = 2;
};
closed = 0;
nodes = (
(466,722,l),
(466,0,l)
);
},
{
attr = {
strokeWidth = 2;
};
closed = 0;
nodes = (
(494,0,l),
(494,722,l)
);
},
{
attr = {
strokeWidth = 2;
};
closed = 0;
nodes = (
(522,722,l),
(522,0,l)
);
},
{
attr = {
strokeWidth = 2;
};
closed = 0;
nodes = (
(549,722,l),
(549,0,l)
);
},
{
attr = {
strokeWidth = 2;
};
closed = 0;
nodes = (
(577,722,l),
(577,0,l)
);
},
{
attr = {
strokeWidth = 2;
};
closed = 0;
nodes = (
(605,722,l),
(605,0,l)
);
},
{
attr = {
strokeWidth = 2;
};
closed = 0;
nodes = (
(438,222,l),
(438,31,l)
);
},
{
attr = {
strokeWidth = 2;
};
closed = 0;
nodes = (
(411,13,l),
(411,167,l)
);
},
{
attr = {
strokeWidth = 2;
};
closed = 0;
nodes = (
(383,146,l),
(383,0,l)
);
},
{
attr = {
strokeWidth = 2;
};
closed = 0;
nodes = (
(355,-8,l),
(355,136,l)
);
},
{
attr = {
strokeWidth = 2;
};
closed = 0;
nodes = (
(328,133,l),
(328,-12,l)
);
},
{
attr = {
strokeWidth = 2;
};
closed = 0;
nodes = (
(300,-13,l),
(300,137,l)
);
},
{
attr = {
strokeWidth = 2;
};
closed = 0;
nodes = (
(272,148,l),
(272,-11,l)
);
},
{
attr = {
strokeWidth = 2;
};
closed = 0;
nodes = (
(245,-6,l),
(245,173,l)
);
}
);
width = 656;
},
{
layerId = "D0DEFB70-7D0D-4B44-B499-5072819829F5";
shapes = (
{
attr = {
strokeWidth = 2;
};
closed = 0;
nodes = (
(51,306,l),
(51,220,l)
);
},
{
attr = {
strokeWidth = 2;
};
closed = 0;
nodes = (
(90,400,l),
(90,130,l)
);
},
{
attr = {
strokeWidth = 2;
};
closed = 0;
nodes = (
(130,84,l),
(130,446,l)
);
},
{
attr = {
strokeWidth = 2;
};
closed = 0;
nodes = (
(170,477,l),
(170,53,l)
);
},
{
attr = {
strokeWidth = 2;
};
closed = 0;
nodes = (
(210,31,l),
(210,499,l)
);
},
{
attr = {
strokeWidth = 2;
};
closed = 0;
nodes = (
(248,514,l),
(248,14,l)
);
},
{
attr = {
strokeWidth = 2;
};
closed = 0;
nodes = (
(288,2,l),
(288,525,l)
);
},
{
attr = {
strokeWidth = 2;
};
closed = 0;
nodes = (
(328,532,l),
(328,350,l)
);
},
{
attr = {
strokeWidth = 2;
};
closed = 0;
nodes = (
(367,375,l),
(367,536,l)
);
},
{
attr = {
strokeWidth = 2;
};
closed = 0;
nodes = (
(407,537,l),
(407,387,l)
);
},
{
attr = {
strokeWidth = 2;
};
closed = 0;
nodes = (
(447,390,l),
(447,535,l)
);
},
{
attr = {
strokeWidth = 2;
};
closed = 0;
nodes = (
(486,530,l),
(486,388,l)
);
},
{
attr = {
strokeWidth = 2;
};
closed = 0;
nodes = (
(526,378,l),
(526,521,l)
);
},
{
attr = {
strokeWidth = 2;
};
closed = 0;
nodes = (
(566,506,l),
(566,357,l)
);
},
{
attr = {
strokeWidth = 2;
};
closed = 0;
nodes = (
(604,722,l),
(604,302,l)
);
},
{
attr = {
strokeWidth = 2;
};
closed = 0;
nodes = (
(644,722,l),
(644,0,l)
);
},
{
attr = {
strokeWidth = 2;
};
closed = 0;
nodes = (
(684,0,l),
(684,722,l)
);
},
{
attr = {
strokeWidth = 2;
};
closed = 0;
nodes = (
(724,722,l),
(724,0,l)
);
},
{
attr = {
strokeWidth = 2;
};
closed = 0;
nodes = (
(763,722,l),
(763,0,l)
);
},
{
attr = {
strokeWidth = 2;
};
closed = 0;
nodes = (
(803,722,l),
(803,0,l)
);
},
{
attr = {
strokeWidth = 2;
};
closed = 0;
nodes = (
(843,722,l),
(843,0,l)
);
},
{
attr = {
strokeWidth = 2;
};
closed = 0;
nodes = (
(604,222,l),
(604,31,l)
);
},
{
attr = {
strokeWidth = 2;
};
closed = 0;
nodes = (
(566,13,l),
(566,167,l)
);
},
{
attr = {
strokeWidth = 2;
};
closed = 0;
nodes = (
(526,146,l),
(526,0,l)
);
},
{
attr = {
strokeWidth = 2;
};
closed = 0;
nodes = (
(486,-8,l),
(486,136,l)
);
},
{
attr = {
strokeWidth = 2;
};
closed = 0;
nodes = (
(447,133,l),
(447,-12,l)
);
},
{
attr = {
strokeWidth = 2;
};
closed = 0;
nodes = (
(407,-13,l),
(407,137,l)
);
},
{
attr = {
strokeWidth = 2;
};
closed = 0;
nodes = (
(367,148,l),
(367,-11,l)
);
},
{
attr = {
strokeWidth = 2;
};
closed = 0;
nodes = (
(328,-6,l),
(328,173,l)
);
}
);
width = 894;
},
{
layerId = "8A987DE3-647B-4085-B6E8-CB46751612E3";
width = 600;
}
);
unicode = 100;
},
{
glyphname = e;
lastChange = "2022-04-19 19:11:18 +0000";
layers = (
{
layerId = m01;
shapes = (
{
attr = {
strokeWidth = 2;
};
closed = 0;
nodes = (
(51,299,l),
(51,218,l)
);
},
{
attr = {
strokeWidth = 2;
};
closed = 0;
nodes = (
(80,129,l),
(80,390,l)
);
},
{
attr = {
strokeWidth = 2;
};
closed = 0;
nodes = (
(108,437,l),
(108,83,l)
);
},
{
attr = {
strokeWidth = 2;
};
closed = 0;
nodes = (
(137,53,l),
(137,469,l)
);
},
{
attr = {
strokeWidth = 2;
};
closed = 0;
nodes = (
(166,492,l),
(166,31,l)
);
},
{
attr = {
strokeWidth = 2;
};
closed = 0;
nodes = (
(194,14,l),
(194,509,l)
);
},
{
attr = {
strokeWidth = 2;
};
closed = 0;
nodes = (
(223,521,l),
(223,216,l)
);
},
{
attr = {
strokeWidth = 2;
};
closed = 0;
nodes = (
(223,209,l),
(223,2,l)
);
},
{
attr = {
strokeWidth = 2;
};
closed = 0;
nodes = (
(251,-6,l),
(251,159,l)
);
},
{
attr = {
strokeWidth = 2;
};
closed = 0;
nodes = (
(251,216,l),
(251,322,l)
);
},
{
attr = {
strokeWidth = 2;
};
closed = 0;
nodes = (
(251,376,l),
(251,529,l)
);
},
{
attr = {
strokeWidth = 2;
};
closed = 0;
nodes = (
(280,533,l),
(280,395,l)
);
},
{
attr = {
strokeWidth = 2;
};
closed = 0;
nodes = (
(309,400,l),
(309,535,l)
);
},
{
attr = {
strokeWidth = 2;
};
closed = 0;
nodes = (
(337,534,l),
(337,397,l)
);
},
{
attr = {
strokeWidth = 2;
};
closed = 0;
nodes = (
(366,383,l),
(366,530,l)
);
},
{
attr = {
strokeWidth = 2;
};
closed = 0;
nodes = (
(394,524,l),
(394,337,l)
);
},
{
attr = {
strokeWidth = 2;
};
closed = 0;
nodes = (
(394,322,l),
(394,216,l)
);
},
{
attr = {
strokeWidth = 2;
};
closed = 0;
nodes = (
(423,514,l),
(423,216,l)
);
},
{
attr = {
strokeWidth = 2;
};
closed = 0;
nodes = (
(452,499,l),
(452,216,l)
);
},
{
attr = {
strokeWidth = 2;
};
closed = 0;
nodes = (
(480,216,l),
(480,478,l)
);
},
{
attr = {
strokeWidth = 2;
};
closed = 0;
nodes = (
(509,448,l),
(509,216,l)
);
},
{
attr = {
strokeWidth = 2;
};
closed = 0;
nodes = (
(537,216,l),
(537,400,l)
);
},
{
attr = {
strokeWidth = 2;
};
closed = 0;
nodes = (
(566,298,l),
(566,216,l)
);
},
{
attr = {
strokeWidth = 2;
};
closed = 0;
nodes = (
(280,322,l),
(280,216,l)
);
},
{
attr = {
strokeWidth = 2;
};
closed = 0;
nodes = (
(309,216,l),
(309,322,l)
);
},
{
attr = {
strokeWidth = 2;
};
closed = 0;
nodes = (
(337,216,l),
(337,322,l)
);
},
{
attr = {
strokeWidth = 2;
};
closed = 0;
nodes = (
(366,216,l),
(366,322,l)
);
},
{
attr = {
strokeWidth = 2;
};
closed = 0;
nodes = (
(280,140,l),
(280,-12,l)
);
},
{
attr = {
strokeWidth = 2;
};
closed = 0;
nodes = (
(309,-15,l),
(309,132,l)
);
},
{
attr = {
strokeWidth = 2;
};
closed = 0;
nodes = (
(337,130,l),
(337,-15,l)
);
},
{
attr = {
strokeWidth = 2;
};
closed = 0;
nodes = (
(366,-13,l),
(366,134,l)
);
},
{
attr = {
strokeWidth = 2;
};
closed = 0;
nodes = (
(394,144,l),
(394,-8,l)
);
},
{
attr = {
strokeWidth = 2;
};
closed = 0;
nodes = (
(423,0,l),
(423,164,l)
);
},
{
attr = {
strokeWidth = 2;
};
closed = 0;
nodes = (
(452,178,l),
(452,11,l)
);
},
{
attr = {
strokeWidth = 2;
};
closed = 0;
nodes = (
(480,27,l),
(480,156,l)
);
},
{
attr = {
strokeWidth = 2;
};
closed = 0;
nodes = (
(509,49,l),
(509,134,l)
);
},
{
attr = {
strokeWidth = 2;
};
closed = 0;
nodes = (
(537,112,l),
(537,78,l)
);
}
);
width = 617;
},
{
layerId = "D0DEFB70-7D0D-4B44-B499-5072819829F5";
shapes = (
{
attr = {
strokeWidth = 2;
};
closed = 0;
nodes = (
(51,299,l),
(51,218,l)
);
},
{
attr = {
strokeWidth = 2;
};
closed = 0;
nodes = (
(92,129,l),
(92,390,l)
);
},
{
attr = {
strokeWidth = 2;
};
closed = 0;
nodes = (
(132,437,l),
(132,83,l)
);
},
{
attr = {
strokeWidth = 2;
};
closed = 0;
nodes = (
(174,53,l),
(174,469,l)
);
},
{
attr = {
strokeWidth = 2;
};
closed = 0;
nodes = (
(215,492,l),
(215,31,l)
);
},
{
attr = {
strokeWidth = 2;
};
closed = 0;
nodes = (
(255,14,l),
(255,509,l)
);
},
{
attr = {
strokeWidth = 2;
};
closed = 0;
nodes = (
(296,521,l),
(296,216,l)
);
},
{
attr = {
strokeWidth = 2;
};
closed = 0;
nodes = (
(296,209,l),
(296,2,l)
);
},
{
attr = {
strokeWidth = 2;
};
closed = 0;
nodes = (
(336,-6,l),
(336,159,l)
);
},
{
attr = {
strokeWidth = 2;
};
closed = 0;
nodes = (
(336,216,l),
(336,322,l)
);
},
{
attr = {
strokeWidth = 2;
};
closed = 0;
nodes = (
(336,376,l),
(336,529,l)
);
},
{
attr = {
strokeWidth = 2;
};
closed = 0;
nodes = (
(378,533,l),
(378,395,l)
);
},
{
attr = {
strokeWidth = 2;
};
closed = 0;
nodes = (
(419,400,l),
(419,535,l)
);
},
{
attr = {
strokeWidth = 2;
};
closed = 0;
nodes = (
(459,534,l),
(459,397,l)
);
},
{
attr = {
strokeWidth = 2;
};
closed = 0;
nodes = (
(501,383,l),
(501,530,l)
);
},
{
attr = {
strokeWidth = 2;
};
closed = 0;
nodes = (
(541,524,l),
(541,337,l)
);
},
{
attr = {
strokeWidth = 2;
};
closed = 0;
nodes = (
(541,322,l),
(541,216,l)
);
},
{
attr = {
strokeWidth = 2;
};
closed = 0;
nodes = (
(582,514,l),
(582,216,l)
);
},
{
attr = {
strokeWidth = 2;
};
closed = 0;
nodes = (
(624,499,l),
(624,216,l)
);
},
{
attr = {
strokeWidth = 2;
};
closed = 0;
nodes = (
(664,216,l),
(664,478,l)
);
},
{
attr = {
strokeWidth = 2;
};
closed = 0;
nodes = (
(705,448,l),
(705,216,l)
);
},
{
attr = {
strokeWidth = 2;
};
closed = 0;
nodes = (
(745,216,l),
(745,400,l)
);
},
{
attr = {
strokeWidth = 2;
};
closed = 0;
nodes = (
(786,298,l),
(786,216,l)
);
},
{
attr = {
strokeWidth = 2;
};
closed = 0;
nodes = (
(378,322,l),
(378,216,l)
);
},
{
attr = {
strokeWidth = 2;
};
closed = 0;
nodes = (
(419,216,l),
(419,322,l)
);
},
{
attr = {
strokeWidth = 2;
};
closed = 0;
nodes = (
(459,216,l),
(459,322,l)
);
},
{
attr = {
strokeWidth = 2;
};
closed = 0;
nodes = (
(501,216,l),
(501,322,l)
);
},
{
attr = {
strokeWidth = 2;
};
closed = 0;
nodes = (
(378,140,l),
(378,-12,l)
);
},
{
attr = {
strokeWidth = 2;
};
closed = 0;
nodes = (
(419,-15,l),
(419,132,l)
);
},
{
attr = {
strokeWidth = 2;
};
closed = 0;
nodes = (
(459,130,l),
(459,-15,l)
);
},
{
attr = {
strokeWidth = 2;
};
closed = 0;
nodes = (
(501,-13,l),
(501,134,l)
);
},
{
attr = {
strokeWidth = 2;
};
closed = 0;
nodes = (
(541,144,l),
(541,-8,l)
);
},
{
attr = {
strokeWidth = 2;
};
closed = 0;
nodes = (
(582,0,l),
(582,164,l)
);
},
{
attr = {
strokeWidth = 2;
};
closed = 0;
nodes = (
(624,178,l),
(624,11,l)
);
},
{
attr = {
strokeWidth = 2;
};
closed = 0;
nodes = (
(664,27,l),
(664,156,l)
);
},
{
attr = {
strokeWidth = 2;
};
closed = 0;
nodes = (
(705,49,l),
(705,134,l)
);
},
{
attr = {
strokeWidth = 2;
};
closed = 0;
nodes = (
(745,112,l),
(745,78,l)
);
}
);
width = 837;
},
{
layerId = "8A987DE3-647B-4085-B6E8-CB46751612E3";
width = 600;
}
);
unicode = 101;
},
{
glyphname = f;
lastChange = "2022-04-19 19:11:18 +0000";
layers = (
{
layerId = m01;
shapes = (
{
attr = {
strokeWidth = 2;
};
closed = 0;
nodes = (
(364,722,l),
(364,580,l)
);
},
{
attr = {
strokeWidth = 2;
};
closed = 0;
nodes = (
(51,523,l),
(51,389,l)
);
},
{
attr = {
strokeWidth = 2;
};
closed = 0;
nodes = (
(79,389,l),
(79,523,l)
);
},
{
attr = {
strokeWidth = 2;
};
closed = 0;
nodes = (
(108,580,l),
(108,0,l)
);
},
{
attr = {
strokeWidth = 2;
};
closed = 0;
nodes = (
(136,0,l),
(136,649,l)
);
},
{
attr = {
strokeWidth = 2;
};
closed = 0;
nodes = (
(165,680,l),
(165,0,l)
);
},
{
attr = {
strokeWidth = 2;
};
closed = 0;
nodes = (
(193,698,l),
(193,0,l)
);
},
{
attr = {
strokeWidth = 2;
};
closed = 0;
nodes = (
(222,0,l),
(222,710,l)
);
},
{
attr = {
strokeWidth = 2;
};
closed = 0;
nodes = (
(250,717,l),
(250,0,l)
);
},
{
attr = {
strokeWidth = 2;
};
closed = 0;
nodes = (
(279,721,l),
(279,560,l)
);
},
{
attr = {
strokeWidth = 2;
};
closed = 0;
nodes = (
(307,580,l),
(307,723,l)
);
},
{
attr = {
strokeWidth = 2;
};
closed = 0;
nodes = (
(336,722,l),
(336,583,l)
);
},
{
attr = {
strokeWidth = 2;
};
closed = 0;
nodes = (
(279,523,l),
(279,389,l)
);
},
{
attr = {
strokeWidth = 2;
};
closed = 0;
nodes = (
(307,389,l),
(307,523,l)
);
},
{
attr = {
strokeWidth = 2;
};
closed = 0;
nodes = (
(336,523,l),
(336,389,l)
);
}
);
width = 415;
},
{
layerId = "D0DEFB70-7D0D-4B44-B499-5072819829F5";
shapes = (
{
attr = {
strokeWidth = 2;
};
closed = 0;
nodes = (
(498,722,l),
(498,580,l)
);
},
{
attr = {
strokeWidth = 2;
};
closed = 0;
nodes = (
(51,523,l),
(51,389,l)
);
},
{
attr = {
strokeWidth = 2;
};
closed = 0;
nodes = (
(91,389,l),
(91,523,l)
);
},
{
attr = {
strokeWidth = 2;
};
closed = 0;
nodes = (
(132,580,l),
(132,0,l)
);
},
{
attr = {
strokeWidth = 2;
};
closed = 0;
nodes = (
(172,0,l),
(172,649,l)
);
},
{
attr = {
strokeWidth = 2;
};
closed = 0;
nodes = (
(214,680,l),
(214,0,l)
);
},
{
attr = {
strokeWidth = 2;
};
closed = 0;
nodes = (
(254,698,l),
(254,0,l)
);
},
{
attr = {
strokeWidth = 2;
};
closed = 0;
nodes = (
(295,0,l),
(295,710,l)
);
},
{
attr = {
strokeWidth = 2;
};
closed = 0;
nodes = (
(335,717,l),
(335,0,l)
);
},
{
attr = {
strokeWidth = 2;
};
closed = 0;
nodes = (
(377,721,l),
(377,560,l)
);
},
{
attr = {
strokeWidth = 2;
};
closed = 0;
nodes = (
(417,580,l),
(417,723,l)
);
},
{
attr = {
strokeWidth = 2;
};
closed = 0;
nodes = (
(458,722,l),
(458,583,l)
);
},
{
attr = {
strokeWidth = 2;
};
closed = 0;
nodes = (
(377,523,l),
(377,389,l)
);
},
{
attr = {
strokeWidth = 2;
};
closed = 0;
nodes = (
(417,389,l),
(417,523,l)
);
},
{
attr = {
strokeWidth = 2;
};
closed = 0;
nodes = (
(458,523,l),
(458,389,l)
);
}
);
width = 549;
},
{
layerId = "8A987DE3-647B-4085-B6E8-CB46751612E3";
width = 600;
}
);
unicode = 102;
},
{
glyphname = g;
lastChange = "2022-04-19 19:11:18 +0000";
layers = (
{
layerId = m01;
shapes = (
{
attr = {
strokeWidth = 2;
};
closed = 0;
nodes = (
(51,301,l),
(51,223,l)
);
},
{
attr = {
strokeWidth = 2;
};
closed = 0;
nodes = (
(79,393,l),
(79,126,l)
);
},
{
attr = {
strokeWidth = 2;
};
closed = 0;
nodes = (
(106,78,l),
(106,439,l)
);
},
{
attr = {
strokeWidth = 2;
};
closed = 0;
nodes = (
(134,471,l),
(134,47,l)
);
},
{
attr = {
strokeWidth = 2;
};
closed = 0;
nodes = (
(162,26,l),
(162,493,l)
);
},
{
attr = {
strokeWidth = 2;
};
closed = 0;
nodes = (
(190,509,l),
(190,10,l)
);
},
{
attr = {
strokeWidth = 2;
};
closed = 0;
nodes = (
(217,-1,l),
(217,521,l)
);
},
{
attr = {
strokeWidth = 2;
};
closed = 0;
nodes = (
(245,530,l),
(245,351,l)
);
},
{
attr = {
strokeWidth = 2;
};
closed = 0;
nodes = (
(273,375,l),
(273,534,l)
);
},
{
attr = {
strokeWidth = 2;
};
closed = 0;
nodes = (
(300,537,l),
(300,386,l)
);
},
{
attr = {
strokeWidth = 2;
};
closed = 0;
nodes = (
(328,390,l),
(328,535,l)
);
},
{
attr = {
strokeWidth = 2;
};
closed = 0;
nodes = (
(356,532,l),
(356,387,l)
);
},
{
attr = {
strokeWidth = 2;
};
closed = 0;
nodes = (
(383,377,l),
(383,524,l)
);
},
{
attr = {
strokeWidth = 2;
};
closed = 0;
nodes = (
(411,512,l),
(411,356,l)
);
},
{
attr = {
strokeWidth = 2;
};
closed = 0;
nodes = (
(439,493,l),
(439,304,l)
);
},
{
attr = {
strokeWidth = 2;
};
closed = 0;
nodes = (
(466,524,l),
(466,-166,l)
);
},
{
attr = {
strokeWidth = 2;
};
closed = 0;
nodes = (
(439,-176,l),
(439,219,l)
);
},
{
attr = {
strokeWidth = 2;
};
closed = 0;
nodes = (
(411,166,l),
(411,17,l)
);
},
{
attr = {
strokeWidth = 2;
};
closed = 0;
nodes = (
(383,3,l),
(383,145,l)
);
},
{
attr = {
strokeWidth = 2;
};
closed = 0;
nodes = (
(356,136,l),
(356,-6,l)
);
},
{
attr = {
strokeWidth = 2;
};
closed = 0;
nodes = (
(328,-11,l),
(328,133,l)
);
},
{
attr = {
strokeWidth = 2;
};
closed = 0;
nodes = (
(300,137,l),
(300,-13,l)
);
},
{
attr = {
strokeWidth = 2;
};
closed = 0;
nodes = (
(273,-12,l),
(273,149,l)
);
},
{
attr = {
strokeWidth = 2;
};
closed = 0;
nodes = (
(245,175,l),
(245,-8,l)
);
},
{
attr = {
strokeWidth = 2;
};
closed = 0;
nodes = (
(134,-114,l),
(134,-153,l)
);
},
{
attr = {
strokeWidth = 2;
};
closed = 0;
nodes = (
(162,-164,l),
(162,-42,l)
);
},
{
attr = {
strokeWidth = 2;
};
closed = 0;
nodes = (
(190,-27,l),
(190,-173,l)
);
},
{
attr = {
strokeWidth = 2;
};
closed = 0;
nodes = (
(217,-181,l),
(217,-37,l)
);
},
{
attr = {
strokeWidth = 2;
};
closed = 0;
nodes = (
(245,-44,l),
(245,-186,l)
);
},
{
attr = {
strokeWidth = 2;
};
closed = 0;
nodes = (
(273,-190,l),
(273,-48,l)
);
},
{
attr = {
strokeWidth = 2;
};
closed = 0;
nodes = (
(300,-51,l),
(300,-192,l)
);
},
{
attr = {
strokeWidth = 2;
};
closed = 0;
nodes = (
(328,-192,l),
(328,-51,l)
);
},
{
attr = {
strokeWidth = 2;
};
closed = 0;
nodes = (
(356,-49,l),
(356,-190,l)
);
},
{
attr = {
strokeWidth = 2;
};
closed = 0;
nodes = (
(383,-188,l),
(383,-43,l)
);
},
{
attr = {
strokeWidth = 2;
};
closed = 0;
nodes = (
(411,-30,l),
(411,-183,l)
);
},
{
attr = {
strokeWidth = 2;
};
closed = 0;
nodes = (
(494,524,l),
(494,-153,l)
);
},
{
attr = {
strokeWidth = 2;
};
closed = 0;
nodes = (
(522,-135,l),
(522,524,l)
);
},
{
attr = {
strokeWidth = 2;
};
closed = 0;
nodes = (
(550,524,l),
(550,-109,l)
);
},
{
attr = {
strokeWidth = 2;
};
closed = 0;
nodes = (
(577,-69,l),
(577,524,l)
);
},
{
attr = {
strokeWidth = 2;
};
closed = 0;
nodes = (
(605,524,l),
(605,15,l)
);
}
);
width = 656;
},
{
layerId = "D0DEFB70-7D0D-4B44-B499-5072819829F5";
shapes = (
{
attr = {
strokeWidth = 2;
};
closed = 0;
nodes = (
(51,301,l),
(51,223,l)
);
},
{
attr = {
strokeWidth = 2;
};
closed = 0;
nodes = (
(91,393,l),
(91,126,l)
);
},
{
attr = {
strokeWidth = 2;
};
closed = 0;
nodes = (
(130,78,l),
(130,439,l)
);
},
{
attr = {
strokeWidth = 2;
};
closed = 0;
nodes = (
(170,471,l),
(170,47,l)
);
},
{
attr = {
strokeWidth = 2;
};
closed = 0;
nodes = (
(210,26,l),
(210,493,l)
);
},
{
attr = {
strokeWidth = 2;
};
closed = 0;
nodes = (
(250,509,l),
(250,10,l)
);
},
{
attr = {
strokeWidth = 2;
};
closed = 0;
nodes = (
(288,-1,l),
(288,521,l)
);
},
{
attr = {
strokeWidth = 2;
};
closed = 0;
nodes = (
(328,530,l),
(328,351,l)
);
},
{
attr = {
strokeWidth = 2;
};
closed = 0;
nodes = (
(368,375,l),
(368,534,l)
);
},
{
attr = {
strokeWidth = 2;
};
closed = 0;
nodes = (
(407,537,l),
(407,386,l)
);
},
{
attr = {
strokeWidth = 2;
};
closed = 0;
nodes = (
(447,390,l),
(447,535,l)
);
},
{
attr = {
strokeWidth = 2;
};
closed = 0;
nodes = (
(487,532,l),
(487,387,l)
);
},
{
attr = {
strokeWidth = 2;
};
closed = 0;
nodes = (
(526,377,l),
(526,524,l)
);
},
{
attr = {
strokeWidth = 2;
};
closed = 0;
nodes = (
(566,512,l),
(566,356,l)
);
},
{
attr = {
strokeWidth = 2;
};
closed = 0;
nodes = (
(606,493,l),
(606,304,l)
);
},
{
attr = {
strokeWidth = 2;
};
closed = 0;
nodes = (
(644,524,l),
(644,-166,l)
);
},
{
attr = {
strokeWidth = 2;
};
closed = 0;
nodes = (
(606,-176,l),
(606,219,l)
);
},
{
attr = {
strokeWidth = 2;
};
closed = 0;
nodes = (
(566,166,l),
(566,17,l)
);
},
{
attr = {
strokeWidth = 2;
};
closed = 0;
nodes = (
(526,3,l),
(526,145,l)
);
},
{
attr = {
strokeWidth = 2;
};
closed = 0;
nodes = (
(487,136,l),
(487,-6,l)
);
},
{
attr = {
strokeWidth = 2;
};
closed = 0;
nodes = (
(447,-11,l),
(447,133,l)
);
},
{
attr = {
strokeWidth = 2;
};
closed = 0;
nodes = (
(407,137,l),
(407,-13,l)
);
},
{
attr = {
strokeWidth = 2;
};
closed = 0;
nodes = (
(368,-12,l),
(368,149,l)
);
},
{
attr = {
strokeWidth = 2;
};
closed = 0;
nodes = (
(328,175,l),
(328,-8,l)
);
},
{
attr = {
strokeWidth = 2;
};
closed = 0;
nodes = (
(170,-114,l),
(170,-153,l)
);
},
{
attr = {
strokeWidth = 2;
};
closed = 0;
nodes = (
(210,-164,l),
(210,-42,l)
);
},
{
attr = {
strokeWidth = 2;
};
closed = 0;
nodes = (
(250,-27,l),
(250,-173,l)
);
},
{
attr = {
strokeWidth = 2;
};
closed = 0;
nodes = (
(288,-181,l),
(288,-37,l)
);
},
{
attr = {
strokeWidth = 2;
};
closed = 0;
nodes = (
(328,-44,l),
(328,-186,l)
);
},
{
attr = {
strokeWidth = 2;
};
closed = 0;
nodes = (
(368,-190,l),
(368,-48,l)
);
},
{
attr = {
strokeWidth = 2;
};
closed = 0;
nodes = (
(407,-51,l),
(407,-192,l)
);
},
{
attr = {
strokeWidth = 2;
};
closed = 0;
nodes = (
(447,-192,l),
(447,-51,l)
);
},
{
attr = {
strokeWidth = 2;
};
closed = 0;
nodes = (
(487,-49,l),
(487,-190,l)
);
},
{
attr = {
strokeWidth = 2;
};
closed = 0;
nodes = (
(526,-188,l),
(526,-43,l)
);
},
{
attr = {
strokeWidth = 2;
};
closed = 0;
nodes = (
(566,-30,l),
(566,-183,l)
);
},
{
attr = {
strokeWidth = 2;
};
closed = 0;
nodes = (
(684,524,l),
(684,-153,l)
);
},
{
attr = {
strokeWidth = 2;
};
closed = 0;
nodes = (
(724,-135,l),
(724,524,l)
);
},
{
attr = {
strokeWidth = 2;
};
closed = 0;
nodes = (
(764,524,l),
(764,-109,l)
);
},
{
attr = {
strokeWidth = 2;
};
closed = 0;
nodes = (
(803,-69,l),
(803,524,l)
);
},
{
attr = {
strokeWidth = 2;
};
closed = 0;
nodes = (
(843,524,l),
(843,15,l)
);
}
);
width = 894;
},
{
layerId = "8A987DE3-647B-4085-B6E8-CB46751612E3";
width = 600;
}
);
unicode = 103;
},
{
glyphname = h;
lastChange = "2022-04-19 19:11:18 +0000";
layers = (
{
layerId = m01;
shapes = (
{
attr = {
strokeWidth = 2;
};
closed = 0;
nodes = (
(51,722,l),
(51,0,l)
);
},
{
attr = {
strokeWidth = 2;
};
closed = 0;
nodes = (
(79,722,l),
(79,0,l)
);
},
{
attr = {
strokeWidth = 2;
};
closed = 0;
nodes = (
(107,722,l),
(107,0,l)
);
},
{
attr = {
strokeWidth = 2;
};
closed = 0;
nodes = (
(135,722,l),
(135,0,l)
);
},
{
attr = {
strokeWidth = 2;
};
closed = 0;
nodes = (
(163,722,l),
(163,0,l)
);
},
{
attr = {
strokeWidth = 2;
};
closed = 0;
nodes = (
(191,722,l),
(191,0,l)
);
},
{
attr = {
strokeWidth = 2;
};
closed = 0;
nodes = (
(219,722,l),
(219,0,l)
);
},
{
attr = {
strokeWidth = 2;
};
closed = 0;
nodes = (
(247,503,l),
(247,374,l)
);
},
{
attr = {
strokeWidth = 2;
};
closed = 0;
nodes = (
(275,521,l),
(275,386,l)
);
},
{
attr = {
strokeWidth = 2;
};
closed = 0;
nodes = (
(303,387,l),
(303,531,l)
);
},
{
attr = {
strokeWidth = 2;
};
closed = 0;
nodes = (
(331,536,l),
(331,376,l)
);
},
{
attr = {
strokeWidth = 2;
};
closed = 0;
nodes = (
(359,536,l),
(359,0,l)
);
},
{
attr = {
strokeWidth = 2;
};
closed = 0;
nodes = (
(387,0,l),
(387,534,l)
);
},
{
attr = {
strokeWidth = 2;
};
closed = 0;
nodes = (
(415,527,l),
(415,0,l)
);
},
{
attr = {
strokeWidth = 2;
};
closed = 0;
nodes = (
(443,0,l),
(443,514,l)
);
},
{
attr = {
strokeWidth = 2;
};
closed = 0;
nodes = (
(471,492,l),
(471,0,l)
);
},
{
attr = {
strokeWidth = 2;
};
closed = 0;
nodes = (
(499,0,l),
(499,452,l)
);
},
{
attr = {
strokeWidth = 2;
};
closed = 0;
nodes = (
(527,346,l),
(527,0,l)
);
}
);
width = 578;
},
{
layerId = "D0DEFB70-7D0D-4B44-B499-5072819829F5";
shapes = (
{
attr = {
strokeWidth = 2;
};
closed = 0;
nodes = (
(51,722,l),
(51,0,l)
);
},
{
attr = {
strokeWidth = 2;
};
closed = 0;
nodes = (
(91,722,l),
(91,0,l)
);
},
{
attr = {
strokeWidth = 2;
};
closed = 0;
nodes = (
(131,722,l),
(131,0,l)
);
},
{
attr = {
strokeWidth = 2;
};
closed = 0;
nodes = (
(171,722,l),
(171,0,l)
);
},
{
attr = {
strokeWidth = 2;
};
closed = 0;
nodes = (
(211,722,l),
(211,0,l)
);
},
{
attr = {
strokeWidth = 2;
};
closed = 0;
nodes = (
(251,722,l),
(251,0,l)
);
},
{
attr = {
strokeWidth = 2;
};
closed = 0;
nodes = (
(291,722,l),
(291,0,l)
);
},
{
attr = {
strokeWidth = 2;
};
closed = 0;
nodes = (
(331,503,l),
(331,374,l)
);
},
{
attr = {
strokeWidth = 2;
};
closed = 0;
nodes = (
(371,521,l),
(371,386,l)
);
},
{
attr = {
strokeWidth = 2;
};
closed = 0;
nodes = (
(411,387,l),
(411,531,l)
);
},
{
attr = {
strokeWidth = 2;
};
closed = 0;
nodes = (
(451,536,l),
(451,376,l)
);
},
{
attr = {
strokeWidth = 2;
};
closed = 0;
nodes = (
(491,536,l),
(491,0,l)
);
},
{
attr = {
strokeWidth = 2;
};
closed = 0;
nodes = (
(531,0,l),
(531,534,l)
);
},
{
attr = {
strokeWidth = 2;
};
closed = 0;
nodes = (
(571,527,l),
(571,0,l)
);
},
{
attr = {
strokeWidth = 2;
};
closed = 0;
nodes = (
(611,0,l),
(611,514,l)
);
},
{
attr = {
strokeWidth = 2;
};
closed = 0;
nodes = (
(651,492,l),
(651,0,l)
);
},
{
attr = {
strokeWidth = 2;
};
closed = 0;
nodes = (
(691,0,l),
(691,452,l)
);
},
{
attr = {
strokeWidth = 2;
};
closed = 0;
nodes = (
(731,346,l),
(731,0,l)
);
}
);
width = 782;
},
{
layerId = "8A987DE3-647B-4085-B6E8-CB46751612E3";
width = 600;
}
);
unicode = 104;
},
{
glyphname = i;
lastChange = "2022-04-19 19:11:18 +0000";
layers = (
{
layerId = m01;
shapes = (
{
attr = {
strokeWidth = 2;
};
closed = 0;
nodes = (
(51,672,l),
(51,618,l)
);
},
{
attr = {
strokeWidth = 2;
};
closed = 0;
nodes = (
(238,672,l),
(238,618,l)
);
},
{
attr = {
strokeWidth = 2;
};
closed = 0;
nodes = (
(78,712,l),
(78,580,l)
);
},
{
attr = {
strokeWidth = 2;
};
closed = 0;
nodes = (
(104,563,l),
(104,729,l)
);
},
{
attr = {
strokeWidth = 2;
};
closed = 0;
nodes = (
(131,736,l),
(131,557,l)
);
},
{
attr = {
strokeWidth = 2;
};
closed = 0;
nodes = (
(158,557,l),
(158,736,l)
);
},
{
attr = {
strokeWidth = 2;
};
closed = 0;
nodes = (
(184,565,l),
(184,728,l)
);
},
{
attr = {
strokeWidth = 2;
};
closed = 0;
nodes = (
(211,710,l),
(211,583,l)
);
},
{
attr = {
strokeWidth = 2;
};
closed = 0;
nodes = (
(78,524,l),
(78,0,l)
);
},
{
attr = {
strokeWidth = 2;
};
closed = 0;
nodes = (
(104,0,l),
(104,524,l)
);
},
{
attr = {
strokeWidth = 2;
};
closed = 0;
nodes = (
(131,0,l),
(131,524,l)
);
},
{
attr = {
strokeWidth = 2;
};
closed = 0;
nodes = (
(158,0,l),
(158,524,l)
);
},
{
attr = {
strokeWidth = 2;
};
closed = 0;
nodes = (
(184,0,l),
(184,524,l)
);
},
{
attr = {
strokeWidth = 2;
};
closed = 0;
nodes = (
(211,0,l),
(211,524,l)
);
}
);
width = 289;
},
{
layerId = "D0DEFB70-7D0D-4B44-B499-5072819829F5";
shapes = (
{
attr = {
strokeWidth = 2;
};
closed = 0;
nodes = (
(51,672,l),
(51,618,l)
);
},
{
attr = {
strokeWidth = 2;
};
closed = 0;
nodes = (
(318,672,l),
(318,618,l)
);
},
{
attr = {
strokeWidth = 2;
};
closed = 0;
nodes = (
(90,712,l),
(90,580,l)
);
},
{
attr = {
strokeWidth = 2;
};
closed = 0;
nodes = (
(127,563,l),
(127,729,l)
);
},
{
attr = {
strokeWidth = 2;
};
closed = 0;
nodes = (
(165,736,l),
(165,557,l)
);
},
{
attr = {
strokeWidth = 2;
};
closed = 0;
nodes = (
(204,557,l),
(204,736,l)
);
},
{
attr = {
strokeWidth = 2;
};
closed = 0;
nodes = (
(241,565,l),
(241,728,l)
);
},
{
attr = {
strokeWidth = 2;
};
closed = 0;
nodes = (
(280,710,l),
(280,583,l)
);
},
{
attr = {
strokeWidth = 2;
};
closed = 0;
nodes = (
(90,524,l),
(90,0,l)
);
},
{
attr = {
strokeWidth = 2;
};
closed = 0;
nodes = (
(127,0,l),
(127,524,l)
);
},
{
attr = {
strokeWidth = 2;
};
closed = 0;
nodes = (
(165,0,l),
(165,524,l)
);
},
{
attr = {
strokeWidth = 2;
};
closed = 0;
nodes = (
(204,0,l),
(204,524,l)
);
},
{
attr = {
strokeWidth = 2;
};
closed = 0;
nodes = (
(241,0,l),
(241,524,l)
);
},
{
attr = {
strokeWidth = 2;
};
closed = 0;
nodes = (
(280,0,l),
(280,524,l)
);
}
);
width = 369;
},
{
layerId = "8A987DE3-647B-4085-B6E8-CB46751612E3";
width = 600;
}
);
unicode = 105;
},
{
glyphname = j;
lastChange = "2022-04-19 19:11:18 +0000";
layers = (
{
layerId = m01;
shapes = (
{
attr = {
strokeWidth = 2;
};
closed = 0;
nodes = (
(21,-48,l),
(21,-189,l)
);
},
{
attr = {
strokeWidth = 2;
};
closed = 0;
nodes = (
(51,-192,l),
(51,-50,l)
);
},
{
attr = {
strokeWidth = 2;
};
closed = 0;
nodes = (
(80,-45,l),
(80,-191,l)
);
},
{
attr = {
strokeWidth = 2;
};
closed = 0;
nodes = (
(110,-189,l),
(110,524,l)
);
},
{
attr = {
strokeWidth = 2;
};
closed = 0;
nodes = (
(139,524,l),
(139,-183,l)
);
},
{
attr = {
strokeWidth = 2;
};
closed = 0;
nodes = (
(169,-175,l),
(169,524,l)
);
},
{
attr = {
strokeWidth = 2;
};
closed = 0;
nodes = (
(198,524,l),
(198,-161,l)
);
},
{
attr = {
strokeWidth = 2;
};
closed = 0;
nodes = (
(228,-139,l),
(228,524,l)
);
},
{
attr = {
strokeWidth = 2;
};
closed = 0;
nodes = (
(257,524,l),
(257,-99,l)
);
},
{
attr = {
strokeWidth = 2;
};
closed = 0;
nodes = (
(287,668,l),
(287,624,l)
);
},
{
attr = {
strokeWidth = 2;
};
closed = 0;
nodes = (
(257,713,l),
(257,579,l)
);
},
{
attr = {
strokeWidth = 2;
};
closed = 0;
nodes = (
(228,562,l),
(228,730,l)
);
},
{
attr = {
strokeWidth = 2;
};
closed = 0;
nodes = (
(198,736,l),
(198,556,l)
);
},
{
attr = {
strokeWidth = 2;
};
closed = 0;
nodes = (
(169,558,l),
(169,734,l)
);
},
{
attr = {
strokeWidth = 2;
};
closed = 0;
nodes = (
(139,721,l),
(139,571,l)
);
},
{
attr = {
strokeWidth = 2;
};
closed = 0;
nodes = (
(110,604,l),
(110,688,l)
);
}
);
width = 308;
},
{
layerId = "D0DEFB70-7D0D-4B44-B499-5072819829F5";
shapes = (
{
attr = {
strokeWidth = 2;
};
closed = 0;
nodes = (
(51,-48,l),
(51,-189,l)
);
},
{
attr = {
strokeWidth = 2;
};
closed = 0;
nodes = (
(94,-192,l),
(94,-50,l)
);
},
{
attr = {
strokeWidth = 2;
};
closed = 0;
nodes = (
(135,-45,l),
(135,-191,l)
);
},
{
attr = {
strokeWidth = 2;
};
closed = 0;
nodes = (
(178,-189,l),
(178,524,l)
);
},
{
attr = {
strokeWidth = 2;
};
closed = 0;
nodes = (
(220,524,l),
(220,-183,l)
);
},
{
attr = {
strokeWidth = 2;
};
closed = 0;
nodes = (
(262,-175,l),
(262,524,l)
);
},
{
attr = {
strokeWidth = 2;
};
closed = 0;
nodes = (
(304,524,l),
(304,-161,l)
);
},
{
attr = {
strokeWidth = 2;
};
closed = 0;
nodes = (
(347,-139,l),
(347,524,l)
);
},
{
attr = {
strokeWidth = 2;
};
closed = 0;
nodes = (
(388,524,l),
(388,-99,l)
);
},
{
attr = {
strokeWidth = 2;
};
closed = 0;
nodes = (
(431,668,l),
(431,624,l)
);
},
{
attr = {
strokeWidth = 2;
};
closed = 0;
nodes = (
(388,713,l),
(388,579,l)
);
},
{
attr = {
strokeWidth = 2;
};
closed = 0;
nodes = (
(347,562,l),
(347,730,l)
);
},
{
attr = {
strokeWidth = 2;
};
closed = 0;
nodes = (
(304,736,l),
(304,556,l)
);
},
{
attr = {
strokeWidth = 2;
};
closed = 0;
nodes = (
(262,558,l),
(262,734,l)
);
},
{
attr = {
strokeWidth = 2;
};
closed = 0;
nodes = (
(220,721,l),
(220,571,l)
);
},
{
attr = {
strokeWidth = 2;
};
closed = 0;
nodes = (
(178,604,l),
(178,688,l)
);
}
);
width = 482;
},
{
layerId = "8A987DE3-647B-4085-B6E8-CB46751612E3";
width = 600;
}
);
unicode = 106;
},
{
glyphname = k;
lastChange = "2022-04-19 19:11:18 +0000";
layers = (
{
layerId = m01;
shapes = (
{
attr = {
strokeWidth = 2;
};
closed = 0;
nodes = (
(51,722,l),
(51,0,l)
);
},
{
attr = {
strokeWidth = 2;
};
closed = 0;
nodes = (
(80,722,l),
(80,0,l)
);
},
{
attr = {
strokeWidth = 2;
};
closed = 0;
nodes = (
(108,722,l),
(108,0,l)
);
},
{
attr = {
strokeWidth = 2;
};
closed = 0;
nodes = (
(136,722,l),
(136,0,l)
);
},
{
attr = {
strokeWidth = 2;
};
closed = 0;
nodes = (
(165,722,l),
(165,0,l)
);
},
{
attr = {
strokeWidth = 2;
};
closed = 0;
nodes = (
(193,722,l),
(193,0,l)
);
},
{
attr = {
strokeWidth = 2;
};
closed = 0;
nodes = (
(221,319,l),
(221,239,l)
);
},
{
attr = {
strokeWidth = 2;
};
closed = 0;
nodes = (
(250,192,l),
(250,361,l)
);
},
{
attr = {
strokeWidth = 2;
};
closed = 0;
nodes = (
(278,403,l),
(278,145,l)
);
},
{
attr = {
strokeWidth = 2;
};
closed = 0;
nodes = (
(306,98,l),
(306,445,l)
);
},
{
attr = {
strokeWidth = 2;
};
closed = 0;
nodes = (
(335,50,l),
(335,487,l)
);
},
{
attr = {
strokeWidth = 2;
};
closed = 0;
nodes = (
(363,524,l),
(363,3,l)
);
},
{
attr = {
strokeWidth = 2;
};
closed = 0;
nodes = (
(391,0,l),
(391,264,l)
);
},
{
attr = {
strokeWidth = 2;
};
closed = 0;
nodes = (
(391,304,l),
(391,524,l)
);
},
{
attr = {
strokeWidth = 2;
};
closed = 0;
nodes = (
(420,524,l),
(420,344,l)
);
},
{
attr = {
strokeWidth = 2;
};
closed = 0;
nodes = (
(448,524,l),
(448,385,l)
);
},
{
attr = {
strokeWidth = 2;
};
closed = 0;
nodes = (
(476,425,l),
(476,524,l)
);
},
{
attr = {
strokeWidth = 2;
};
closed = 0;
nodes = (
(505,524,l),
(505,465,l)
);
},
{
attr = {
strokeWidth = 2;
};
closed = 0;
nodes = (
(533,524,l),
(533,505,l)
);
},
{
attr = {
strokeWidth = 2;
};
closed = 0;
nodes = (
(420,219,l),
(420,0,l)
);
},
{
attr = {
strokeWidth = 2;
};
closed = 0;
nodes = (
(448,0,l),
(448,175,l)
);
},
{
attr = {
strokeWidth = 2;
};
closed = 0;
nodes = (
(476,131,l),
(476,0,l)
);
},
{
attr = {
strokeWidth = 2;
};
closed = 0;
nodes = (
(505,0,l),
(505,87,l)
);
},
{
attr = {
strokeWidth = 2;
};
closed = 0;
nodes = (
(533,43,l),
(533,0,l)
);
},
{
attr = {
strokeWidth = 2;
};
closed = 0;
nodes = (
(561,0,l),
(561,22,l)
);
}
);
width = 612;
},
{
layerId = "D0DEFB70-7D0D-4B44-B499-5072819829F5";
shapes = (
{
attr = {
strokeWidth = 2;
};
closed = 0;
nodes = (
(51,722,l),
(51,0,l)
);
},
{
attr = {
strokeWidth = 2;
};
closed = 0;
nodes = (
(92,722,l),
(92,0,l)
);
},
{
attr = {
strokeWidth = 2;
};
closed = 0;
nodes = (
(132,722,l),
(132,0,l)
);
},
{
attr = {
strokeWidth = 2;
};
closed = 0;
nodes = (
(172,722,l),
(172,0,l)
);
},
{
attr = {
strokeWidth = 2;
};
closed = 0;
nodes = (
(214,722,l),
(214,0,l)
);
},
{
attr = {
strokeWidth = 2;
};
closed = 0;
nodes = (
(254,722,l),
(254,0,l)
);
},
{
attr = {
strokeWidth = 2;
};
closed = 0;
nodes = (
(294,319,l),
(294,239,l)
);
},
{
attr = {
strokeWidth = 2;
};
closed = 0;
nodes = (
(335,192,l),
(335,361,l)
);
},
{
attr = {
strokeWidth = 2;
};
closed = 0;
nodes = (
(375,403,l),
(375,145,l)
);
},
{
attr = {
strokeWidth = 2;
};
closed = 0;
nodes = (
(415,98,l),
(415,445,l)
);
},
{
attr = {
strokeWidth = 2;
};
closed = 0;
nodes = (
(456,50,l),
(456,487,l)
);
},
{
attr = {
strokeWidth = 2;
};
closed = 0;
nodes = (
(496,524,l),
(496,3,l)
);
},
{
attr = {
strokeWidth = 2;
};
closed = 0;
nodes = (
(536,0,l),
(536,264,l)
);
},
{
attr = {
strokeWidth = 2;
};
closed = 0;
nodes = (
(536,304,l),
(536,524,l)
);
},
{
attr = {
strokeWidth = 2;
};
closed = 0;
nodes = (
(578,524,l),
(578,344,l)
);
},
{
attr = {
strokeWidth = 2;
};
closed = 0;
nodes = (
(618,524,l),
(618,385,l)
);
},
{
attr = {
strokeWidth = 2;
};
closed = 0;
nodes = (
(658,425,l),
(658,524,l)
);
},
{
attr = {
strokeWidth = 2;
};
closed = 0;
nodes = (
(699,524,l),
(699,465,l)
);
},
{
attr = {
strokeWidth = 2;
};
closed = 0;
nodes = (
(739,524,l),
(739,505,l)
);
},
{
attr = {
strokeWidth = 2;
};
closed = 0;
nodes = (
(578,219,l),
(578,0,l)
);
},
{
attr = {
strokeWidth = 2;
};
closed = 0;
nodes = (
(618,0,l),
(618,175,l)
);
},
{
attr = {
strokeWidth = 2;
};
closed = 0;
nodes = (
(658,131,l),
(658,0,l)
);
},
{
attr = {
strokeWidth = 2;
};
closed = 0;
nodes = (
(699,0,l),
(699,87,l)
);
},
{
attr = {
strokeWidth = 2;
};
closed = 0;
nodes = (
(739,43,l),
(739,0,l)
);
},
{
attr = {
strokeWidth = 2;
};
closed = 0;
nodes = (
(779,0,l),
(779,22,l)
);
}
);
width = 830;
},
{
layerId = "8A987DE3-647B-4085-B6E8-CB46751612E3";
width = 600;
}
);
unicode = 107;
},
{
glyphname = l;
lastChange = "2022-04-19 19:11:18 +0000";
layers = (
{
layerId = m01;
shapes = (
{
attr = {
strokeWidth = 2;
};
closed = 0;
nodes = (
(51,721,l),
(51,0,l)
);
},
{
attr = {
strokeWidth = 2;
};
closed = 0;
nodes = (
(79,721,l),
(79,0,l)
);
},
{
attr = {
strokeWidth = 2;
};
closed = 0;
nodes = (
(106,721,l),
(106,0,l)
);
},
{
attr = {
strokeWidth = 2;
};
closed = 0;
nodes = (
(134,721,l),
(134,0,l)
);
},
{
attr = {
strokeWidth = 2;
};
closed = 0;
nodes = (
(162,721,l),
(162,0,l)
);
},
{
attr = {
strokeWidth = 2;
};
closed = 0;
nodes = (
(190,721,l),
(190,0,l)
);
},
{
attr = {
strokeWidth = 2;
};
closed = 0;
nodes = (
(217,721,l),
(217,0,l)
);
}
);
width = 268;
},
{
layerId = "D0DEFB70-7D0D-4B44-B499-5072819829F5";
shapes = (
{
attr = {
strokeWidth = 2;
};
closed = 0;
nodes = (
(51,721,l),
(51,0,l)
);
},
{
attr = {
strokeWidth = 2;
};
closed = 0;
nodes = (
(91,721,l),
(91,0,l)
);
},
{
attr = {
strokeWidth = 2;
};
closed = 0;
nodes = (
(130,721,l),
(130,0,l)
);
},
{
attr = {
strokeWidth = 2;
};
closed = 0;
nodes = (
(170,721,l),
(170,0,l)
);
},
{
attr = {
strokeWidth = 2;
};
closed = 0;
nodes = (
(210,721,l),
(210,0,l)
);
},
{
attr = {
strokeWidth = 2;
};
closed = 0;
nodes = (
(250,721,l),
(250,0,l)
);
},
{
attr = {
strokeWidth = 2;
};
closed = 0;
nodes = (
(289,721,l),
(289,0,l)
);
}
);
width = 340;
},
{
layerId = "8A987DE3-647B-4085-B6E8-CB46751612E3";
width = 600;
}
);
unicode = 108;
},
{
glyphname = m;
lastChange = "2022-04-19 19:11:18 +0000";
layers = (
{
layerId = m01;
shapes = (
{
attr = {
strokeWidth = 2;
};
closed = 0;
nodes = (
(51,524,l),
(51,0,l)
);
},
{
attr = {
strokeWidth = 2;
};
closed = 0;
nodes = (
(80,524,l),
(80,0,l)
);
},
{
attr = {
strokeWidth = 2;
};
closed = 0;
nodes = (
(109,524,l),
(109,0,l)
);
},
{
attr = {
strokeWidth = 2;
};
closed = 0;
nodes = (
(138,524,l),
(138,0,l)
);
},
{
attr = {
strokeWidth = 2;
};
closed = 0;
nodes = (
(167,524,l),
(167,0,l)
);
},
{
attr = {
strokeWidth = 2;
};
closed = 0;
nodes = (
(196,524,l),
(196,0,l)
);
},
{
attr = {
strokeWidth = 2;
};
closed = 0;
nodes = (
(225,352,l),
(225,487,l)
);
},
{
attr = {
strokeWidth = 2;
};
closed = 0;
nodes = (
(254,513,l),
(254,382,l)
);
},
{
attr = {
strokeWidth = 2;
};
closed = 0;
nodes = (
(283,387,l),
(283,527,l)
);
},
{
attr = {
strokeWidth = 2;
};
closed = 0;
nodes = (
(312,535,l),
(312,380,l)
);
},
{
attr = {
strokeWidth = 2;
};
closed = 0;
nodes = (
(341,537,l),
(341,340,l)
);
},
{
attr = {
strokeWidth = 2;
};
closed = 0;
nodes = (
(370,535,l),
(370,0,l)
);
},
{
attr = {
strokeWidth = 2;
};
closed = 0;
nodes = (
(399,0,l),
(399,529,l)
);
},
{
attr = {
strokeWidth = 2;
};
closed = 0;
nodes = (
(428,516,l),
(428,0,l)
);
},
{
attr = {
strokeWidth = 2;
};
closed = 0;
nodes = (
(457,0,l),
(457,495,l)
);
},
{
attr = {
strokeWidth = 2;
};
closed = 0;
nodes = (
(486,477,l),
(486,0,l)
);
},
{
attr = {
strokeWidth = 2;
};
closed = 0;
nodes = (
(515,342,l),
(515,503,l)
);
},
{
attr = {
strokeWidth = 2;
};
closed = 0;
nodes = (
(544,520,l),
(544,380,l)
);
},
{
attr = {
strokeWidth = 2;
};
closed = 0;
nodes = (
(573,387,l),
(573,530,l)
);
},
{
attr = {
strokeWidth = 2;
};
closed = 0;
nodes = (
(602,536,l),
(602,382,l)
);
},
{
attr = {
strokeWidth = 2;
};
closed = 0;
nodes = (
(631,352,l),
(631,537,l)
);
},
{
attr = {
strokeWidth = 2;
};
closed = 0;
nodes = (
(660,535,l),
(660,0,l)
);
},
{
attr = {
strokeWidth = 2;
};
closed = 0;
nodes = (
(689,0,l),
(689,529,l)
);
},
{
attr = {
strokeWidth = 2;
};
closed = 0;
nodes = (
(718,518,l),
(718,0,l)
);
},
{
attr = {
strokeWidth = 2;
};
closed = 0;
nodes = (
(747,0,l),
(747,499,l)
);
},
{
attr = {
strokeWidth = 2;
};
closed = 0;
nodes = (
(776,465,l),
(776,0,l)
);
},
{
attr = {
strokeWidth = 2;
};
closed = 0;
nodes = (
(805,0,l),
(805,386,l)
);
}
);
width = 856;
},
{
layerId = "D0DEFB70-7D0D-4B44-B499-5072819829F5";
shapes = (
{
attr = {
strokeWidth = 2;
};
closed = 0;
nodes = (
(51,524,l),
(51,0,l)
);
},
{
attr = {
strokeWidth = 2;
};
closed = 0;
nodes = (
(93,524,l),
(93,0,l)
);
},
{
attr = {
strokeWidth = 2;
};
closed = 0;
nodes = (
(134,524,l),
(134,0,l)
);
},
{
attr = {
strokeWidth = 2;
};
closed = 0;
nodes = (
(176,524,l),
(176,0,l)
);
},
{
attr = {
strokeWidth = 2;
};
closed = 0;
nodes = (
(217,524,l),
(217,0,l)
);
},
{
attr = {
strokeWidth = 2;
};
closed = 0;
nodes = (
(259,524,l),
(259,0,l)
);
},
{
attr = {
strokeWidth = 2;
};
closed = 0;
nodes = (
(300,352,l),
(300,487,l)
);
},
{
attr = {
strokeWidth = 2;
};
closed = 0;
nodes = (
(341,513,l),
(341,382,l)
);
},
{
attr = {
strokeWidth = 2;
};
closed = 0;
nodes = (
(383,387,l),
(383,527,l)
);
},
{
attr = {
strokeWidth = 2;
};
closed = 0;
nodes = (
(424,535,l),
(424,380,l)
);
},
{
attr = {
strokeWidth = 2;
};
closed = 0;
nodes = (
(466,537,l),
(466,340,l)
);
},
{
attr = {
strokeWidth = 2;
};
closed = 0;
nodes = (
(507,535,l),
(507,0,l)
);
},
{
attr = {
strokeWidth = 2;
};
closed = 0;
nodes = (
(549,0,l),
(549,529,l)
);
},
{
attr = {
strokeWidth = 2;
};
closed = 0;
nodes = (
(590,516,l),
(590,0,l)
);
},
{
attr = {
strokeWidth = 2;
};
closed = 0;
nodes = (
(631,0,l),
(631,495,l)
);
},
{
attr = {
strokeWidth = 2;
};
closed = 0;
nodes = (
(673,477,l),
(673,0,l)
);
},
{
attr = {
strokeWidth = 2;
};
closed = 0;
nodes = (
(714,342,l),
(714,503,l)
);
},
{
attr = {
strokeWidth = 2;
};
closed = 0;
nodes = (
(756,520,l),
(756,380,l)
);
},
{
attr = {
strokeWidth = 2;
};
closed = 0;
nodes = (
(797,387,l),
(797,530,l)
);
},
{
attr = {
strokeWidth = 2;
};
closed = 0;
nodes = (
(839,536,l),
(839,382,l)
);
},
{
attr = {
strokeWidth = 2;
};
closed = 0;
nodes = (
(880,352,l),
(880,537,l)
);
},
{
attr = {
strokeWidth = 2;
};
closed = 0;
nodes = (
(921,535,l),
(921,0,l)
);
},
{
attr = {
strokeWidth = 2;
};
closed = 0;
nodes = (
(963,0,l),
(963,529,l)
);
},
{
attr = {
strokeWidth = 2;
};
closed = 0;
nodes = (
(1004,518,l),
(1004,0,l)
);
},
{
attr = {
strokeWidth = 2;
};
closed = 0;
nodes = (
(1046,0,l),
(1046,499,l)
);
},
{
attr = {
strokeWidth = 2;
};
closed = 0;
nodes = (
(1087,465,l),
(1087,0,l)
);
},
{
attr = {
strokeWidth = 2;
};
closed = 0;
nodes = (
(1129,0,l),
(1129,386,l)
);
}
);
width = 1180;
},
{
layerId = "8A987DE3-647B-4085-B6E8-CB46751612E3";
width = 600;
}
);
unicode = 109;
},
{
glyphname = n;
lastChange = "2022-04-19 19:11:18 +0000";
layers = (
{
layerId = m01;
shapes = (
{
attr = {
strokeWidth = 2;
};
closed = 0;
nodes = (
(51,524,l),
(51,0,l)
);
},
{
attr = {
strokeWidth = 2;
};
closed = 0;
nodes = (
(79,524,l),
(79,0,l)
);
},
{
attr = {
strokeWidth = 2;
};
closed = 0;
nodes = (
(106,524,l),
(106,0,l)
);
},
{
attr = {
strokeWidth = 2;
};
closed = 0;
nodes = (
(134,524,l),
(134,0,l)
);
},
{
attr = {
strokeWidth = 2;
};
closed = 0;
nodes = (
(162,524,l),
(162,0,l)
);
},
{
attr = {
strokeWidth = 2;
};
closed = 0;
nodes = (
(190,524,l),
(190,0,l)
);
},
{
attr = {
strokeWidth = 2;
};
closed = 0;
nodes = (
(218,477,l),
(218,0,l)
);
},
{
attr = {
strokeWidth = 2;
};
closed = 0;
nodes = (
(246,505,l),
(246,375,l)
);
},
{
attr = {
strokeWidth = 2;
};
closed = 0;
nodes = (
(274,522,l),
(274,386,l)
);
},
{
attr = {
strokeWidth = 2;
};
closed = 0;
nodes = (
(302,532,l),
(302,386,l)
);
},
{
attr = {
strokeWidth = 2;
};
closed = 0;
nodes = (
(329,537,l),
(329,376,l)
);
},
{
attr = {
strokeWidth = 2;
};
closed = 0;
nodes = (
(357,537,l),
(357,0,l)
);
},
{
attr = {
strokeWidth = 2;
};
closed = 0;
nodes = (
(385,534,l),
(385,0,l)
);
},
{
attr = {
strokeWidth = 2;
};
closed = 0;
nodes = (
(413,527,l),
(413,0,l)
);
},
{
attr = {
strokeWidth = 2;
};
closed = 0;
nodes = (
(441,0,l),
(441,514,l)
);
},
{
attr = {
strokeWidth = 2;
};
closed = 0;
nodes = (
(469,493,l),
(469,0,l)
);
},
{
attr = {
strokeWidth = 2;
};
closed = 0;
nodes = (
(497,454,l),
(497,0,l)
);
},
{
attr = {
strokeWidth = 2;
};
closed = 0;
nodes = (
(525,0,l),
(525,399,l)
);
}
);
width = 576;
},
{
layerId = "D0DEFB70-7D0D-4B44-B499-5072819829F5";
shapes = (
{
attr = {
strokeWidth = 2;
};
closed = 0;
nodes = (
(51,524,l),
(51,0,l)
);
},
{
attr = {
strokeWidth = 2;
};
closed = 0;
nodes = (
(91,524,l),
(91,0,l)
);
},
{
attr = {
strokeWidth = 2;
};
closed = 0;
nodes = (
(130,524,l),
(130,0,l)
);
},
{
attr = {
strokeWidth = 2;
};
closed = 0;
nodes = (
(170,524,l),
(170,0,l)
);
},
{
attr = {
strokeWidth = 2;
};
closed = 0;
nodes = (
(210,524,l),
(210,0,l)
);
},
{
attr = {
strokeWidth = 2;
};
closed = 0;
nodes = (
(250,524,l),
(250,0,l)
);
},
{
attr = {
strokeWidth = 2;
};
closed = 0;
nodes = (
(290,477,l),
(290,0,l)
);
},
{
attr = {
strokeWidth = 2;
};
closed = 0;
nodes = (
(330,505,l),
(330,375,l)
);
},
{
attr = {
strokeWidth = 2;
};
closed = 0;
nodes = (
(370,522,l),
(370,386,l)
);
},
{
attr = {
strokeWidth = 2;
};
closed = 0;
nodes = (
(410,532,l),
(410,386,l)
);
},
{
attr = {
strokeWidth = 2;
};
closed = 0;
nodes = (
(449,537,l),
(449,376,l)
);
},
{
attr = {
strokeWidth = 2;
};
closed = 0;
nodes = (
(489,537,l),
(489,0,l)
);
},
{
attr = {
strokeWidth = 2;
};
closed = 0;
nodes = (
(529,534,l),
(529,0,l)
);
},
{
attr = {
strokeWidth = 2;
};
closed = 0;
nodes = (
(569,527,l),
(569,0,l)
);
},
{
attr = {
strokeWidth = 2;
};
closed = 0;
nodes = (
(609,0,l),
(609,514,l)
);
},
{
attr = {
strokeWidth = 2;
};
closed = 0;
nodes = (
(649,493,l),
(649,0,l)
);
},
{
attr = {
strokeWidth = 2;
};
closed = 0;
nodes = (
(689,454,l),
(689,0,l)
);
},
{
attr = {
strokeWidth = 2;
};
closed = 0;
nodes = (
(729,0,l),
(729,399,l)
);
}
);
width = 780;
},
{
layerId = "8A987DE3-647B-4085-B6E8-CB46751612E3";
width = 600;
}
);
unicode = 110;
},
{
glyphname = o;
lastChange = "2022-04-19 19:11:18 +0000";
layers = (
{
layerId = m01;
shapes = (
{
attr = {
strokeWidth = 2;
};
closed = 0;
nodes = (
(51,287,l),
(51,209,l)
);
},
{
attr = {
strokeWidth = 2;
};
closed = 0;
nodes = (
(623,287,l),
(623,209,l)
);
},
{
attr = {
strokeWidth = 2;
};
closed = 0;
nodes = (
(80,374,l),
(80,122,l)
);
},
{
attr = {
strokeWidth = 2;
};
closed = 0;
nodes = (
(108,419,l),
(108,77,l)
);
},
{
attr = {
strokeWidth = 2;
};
closed = 0;
nodes = (
(137,450,l),
(137,47,l)
);
},
{
attr = {
strokeWidth = 2;
};
closed = 0;
nodes = (
(165,24,l),
(165,473,l)
);
},
{
attr = {
strokeWidth = 2;
};
closed = 0;
nodes = (
(194,491,l),
(194,7,l)
);
},
{
attr = {
strokeWidth = 2;
};
closed = 0;
nodes = (
(223,-5,l),
(223,209,l)
);
},
{
attr = {
strokeWidth = 2;
};
closed = 0;
nodes = (
(223,289,l),
(223,504,l)
);
},
{
attr = {
strokeWidth = 2;
};
closed = 0;
nodes = (
(251,514,l),
(251,343,l)
);
},
{
attr = {
strokeWidth = 2;
};
closed = 0;
nodes = (
(280,520,l),
(280,365,l)
);
},
{
attr = {
strokeWidth = 2;
};
closed = 0;
nodes = (
(308,525,l),
(308,375,l)
);
},
{
attr = {
strokeWidth = 2;
};
closed = 0;
nodes = (
(337,378,l),
(337,525,l)
);
},
{
attr = {
strokeWidth = 2;
};
closed = 0;
nodes = (
(366,525,l),
(366,375,l)
);
},
{
attr = {
strokeWidth = 2;
};
closed = 0;
nodes = (
(394,520,l),
(394,364,l)
);
},
{
attr = {
strokeWidth = 2;
};
closed = 0;
nodes = (
(423,514,l),
(423,342,l)
);
},
{
attr = {
strokeWidth = 2;
};
closed = 0;
nodes = (
(451,504,l),
(451,289,l)
);
},
{
attr = {
strokeWidth = 2;
};
closed = 0;
nodes = (
(251,157,l),
(251,-14,l)
);
},
{
attr = {
strokeWidth = 2;
};
closed = 0;
nodes = (
(280,135,l),
(280,-20,l)
);
},
{
attr = {
strokeWidth = 2;
};
closed = 0;
nodes = (
(308,125,l),
(308,-25,l)
);
},
{
attr = {
strokeWidth = 2;
};
closed = 0;
nodes = (
(338,122,l),
(338,-25,l)
);
},
{
attr = {
strokeWidth = 2;
};
closed = 0;
nodes = (
(366,125,l),
(366,-25,l)
);
},
{
attr = {
strokeWidth = 2;
};
closed = 0;
nodes = (
(394,137,l),
(394,-20,l)
);
},
{
attr = {
strokeWidth = 2;
};
closed = 0;
nodes = (
(423,159,l),
(423,-13,l)
);
},
{
attr = {
strokeWidth = 2;
};
closed = 0;
nodes = (
(451,212,l),
(451,-4,l)
);
},
{
attr = {
strokeWidth = 2;
};
closed = 0;
nodes = (
(480,492,l),
(480,9,l)
);
},
{
attr = {
strokeWidth = 2;
};
closed = 0;
nodes = (
(509,475,l),
(509,27,l)
);
},
{
attr = {
strokeWidth = 2;
};
closed = 0;
nodes = (
(537,50,l),
(537,452,l)
);
},
{
attr = {
strokeWidth = 2;
};
closed = 0;
nodes = (
(566,422,l),
(566,81,l)
);
},
{
attr = {
strokeWidth = 2;
};
closed = 0;
nodes = (
(594,126,l),
(594,378,l)
);
}
);
width = 674;
},
{
layerId = "D0DEFB70-7D0D-4B44-B499-5072819829F5";
shapes = (
{
attr = {
strokeWidth = 2;
};
closed = 0;
nodes = (
(51,287,l),
(51,209,l)
);
},
{
attr = {
strokeWidth = 2;
};
closed = 0;
nodes = (
(869,287,l),
(869,209,l)
);
},
{
attr = {
strokeWidth = 2;
};
closed = 0;
nodes = (
(93,374,l),
(93,122,l)
);
},
{
attr = {
strokeWidth = 2;
};
closed = 0;
nodes = (
(133,419,l),
(133,77,l)
);
},
{
attr = {
strokeWidth = 2;
};
closed = 0;
nodes = (
(174,450,l),
(174,47,l)
);
},
{
attr = {
strokeWidth = 2;
};
closed = 0;
nodes = (
(214,24,l),
(214,473,l)
);
},
{
attr = {
strokeWidth = 2;
};
closed = 0;
nodes = (
(256,491,l),
(256,7,l)
);
},
{
attr = {
strokeWidth = 2;
};
closed = 0;
nodes = (
(297,-5,l),
(297,209,l)
);
},
{
attr = {
strokeWidth = 2;
};
closed = 0;
nodes = (
(297,289,l),
(297,504,l)
);
},
{
attr = {
strokeWidth = 2;
};
closed = 0;
nodes = (
(337,514,l),
(337,343,l)
);
},
{
attr = {
strokeWidth = 2;
};
closed = 0;
nodes = (
(379,520,l),
(379,365,l)
);
},
{
attr = {
strokeWidth = 2;
};
closed = 0;
nodes = (
(419,525,l),
(419,375,l)
);
},
{
attr = {
strokeWidth = 2;
};
closed = 0;
nodes = (
(460,378,l),
(460,525,l)
);
},
{
attr = {
strokeWidth = 2;
};
closed = 0;
nodes = (
(501,525,l),
(501,375,l)
);
},
{
attr = {
strokeWidth = 2;
};
closed = 0;
nodes = (
(541,520,l),
(541,364,l)
);
},
{
attr = {
strokeWidth = 2;
};
closed = 0;
nodes = (
(583,514,l),
(583,342,l)
);
},
{
attr = {
strokeWidth = 2;
};
closed = 0;
nodes = (
(623,504,l),
(623,289,l)
);
},
{
attr = {
strokeWidth = 2;
};
closed = 0;
nodes = (
(337,157,l),
(337,-14,l)
);
},
{
attr = {
strokeWidth = 2;
};
closed = 0;
nodes = (
(379,135,l),
(379,-20,l)
);
},
{
attr = {
strokeWidth = 2;
};
closed = 0;
nodes = (
(419,125,l),
(419,-25,l)
);
},
{
attr = {
strokeWidth = 2;
};
closed = 0;
nodes = (
(461,122,l),
(461,-25,l)
);
},
{
attr = {
strokeWidth = 2;
};
closed = 0;
nodes = (
(501,125,l),
(501,-25,l)
);
},
{
attr = {
strokeWidth = 2;
};
closed = 0;
nodes = (
(541,137,l),
(541,-20,l)
);
},
{
attr = {
strokeWidth = 2;
};
closed = 0;
nodes = (
(583,159,l),
(583,-13,l)
);
},
{
attr = {
strokeWidth = 2;
};
closed = 0;
nodes = (
(623,212,l),
(623,-4,l)
);
},
{
attr = {
strokeWidth = 2;
};
closed = 0;
nodes = (
(664,492,l),
(664,9,l)
);
},
{
attr = {
strokeWidth = 2;
};
closed = 0;
nodes = (
(706,475,l),
(706,27,l)
);
},
{
attr = {
strokeWidth = 2;
};
closed = 0;
nodes = (
(746,50,l),
(746,452,l)
);
},
{
attr = {
strokeWidth = 2;
};
closed = 0;
nodes = (
(787,422,l),
(787,81,l)
);
},
{
attr = {
strokeWidth = 2;
};
closed = 0;
nodes = (
(827,126,l),
(827,378,l)
);
}
);
width = 920;
},
{
layerId = "8A987DE3-647B-4085-B6E8-CB46751612E3";
width = 600;
}
);
unicode = 111;
},
